<?xml version="1.0" encoding="UTF-8"?>
<svg id="Calque_1" data-name="Calque 1" xmlns="http://www.w3.org/2000/svg" viewBox="0 0 850.39 850.39">
  <defs>
    <style>
      .cls-1 {
        fill: #d946e8;
      }
    </style>
  </defs>
  <path class="cls-1" d="M305.21,352.83c2.8,6.9,5.23,12.85,6.62,17.14,6.19,19.09,6.12,31.1,6.04,43.81-.06,10.08-.12,20.5,2.91,35.61,3.43,17.11,9.13,27.69,17.95,33.3,7.85,5,18.73,5.5,29.11,1.34,10.86-4.35,19.07-13.01,21.44-22.6,12.75-51.75,7.67-77.6,3.59-98.38-.66-3.39-1.29-6.59-1.81-9.75-.35-2.08-.72-4.56-1.15-7.35-1.37-9-3.31-21.66-6.16-34.53-2.93-13.19-6.83-26.59-12.09-36.48-3.2-6.02-6.91-10.74-11.22-13.32-2.48-1.48-5.62-2.57-9.19-3.28-1.63-.33-3.34-.58-5.12-.75-19.63-1.39-45.92,5.2-56.25,18.17-.09.14-.19.29-.28.43-4.84,7.5-3.2,21.12.83,35.74,3.93,14.26,10.13,29.48,14.78,40.9Z"/>
  <path class="cls-1" d="M695.77,294.67c-1.56,27.68-3.11,55.37-4.66,83.05-2.14,38.22-.28,78.39-15.63,113.77-27.78,64.03-73.66,111.24-128,138.98-.01.02-.03.02-.04.03-27.35,17.9-60.39,27.75-95.14,27.75l-53.94-.99c-62.58,0-99.19-8.88-134.53-59.18-18.68-26.58-31.45-56.93-38.03-88.85l-29.39-142.39c0-8.62.97-15.95,2.82-22.18,2.88,13.87,10.16,26.97,16.97,39.2,6.21,11.17,5.68,24.13,5.12,37.86-.18,4.29-.36,8.72-.31,13.04.23,19.88,9.22,41.47,28.81,44.92,1.4.25,2.79.38,4.17.41h.02c.24,0,.47,0,.71,0,12.89,0,24.63-8.66,31.78-17.51.36-.45.72-.89,1.07-1.35.03-.03.05-.07.08-.1.17-.24.35-.47.52-.71,14.28-19.02,19.82-44.9,16.95-78.98-.51-6.08-1.23-12.14-2.16-18.17,1.31,3.32,2.41,6.22,3.16,8.54,5.89,18.17,5.83,29.18,5.75,41.92-.06,10.38-.12,21.12,3.03,36.83,2.37,11.84,7.09,28.58,20.61,37.18,4.86,3.1,10.63,4.79,16.74,5.04.54.03,1.08.04,1.62.04,5.3,0,10.83-1.07,16.21-3.23,7.56-3.03,13.91-7.75,18.43-13.5.04-.04.07-.07.09-.11,2.33-3.26,3.6-7.03,5.04-10.77,19.59-50.98,2.33-121.9-1.55-132.65l13.34,36.22c1.17,2.65,2.07,5.42,2.73,8.28,2.75,11.71,1.74,24.92.77,37.79-.54,7.04-1.09,14.32-1.02,21.23.27,25.73,10.83,53.68,33.83,58.14,1.76.34,3.5.52,5.23.55h.04c.18,0,.34,0,.52,0,6.01,0,11.8-1.76,17.13-4.59.08-.12.15-.24.23-.37-.02.09-.03.18-.03.27h-.01c-.02.18-.04.35-.05.53-.19.1-.38.2-.57.3h-.01c-3.21,5.42-5.87,10.97-7.93,16.64-4.63,12.69-6.27,25.87-4.87,39.18.16,1.54,1.46,2.68,2.98,2.68.1,0,.21,0,.31-.01,1.65-.18,2.85-1.65,2.67-3.3-1.29-12.39.23-24.67,4.54-36.49.65-1.77,1.35-3.54,2.13-5.29h0c3.65-8.32,8.67-16.36,15.01-24.06,4.03-4.9,7.6-10.17,10.49-15.82,4.61-9,8.97-18.4,8.97-18.4l1.6,14.81c.66,6.08,2.36,12.04,5.32,17.39,2.06,3.72,4.65,7.15,7.92,10.1,6.4,5.76,14.81,8.84,24.05,8.97h.1c.18.01.36,0,.54.01h.03c3.51,0,7.14-.43,10.81-1.3,11.2-2.64,20.99-9.01,27.31-17.45h.01c.02-.05.05-.08.07-.11,1.49-2.19,2.75-4.55,3.73-7.05,26.3-66.86,20.41-97.99,20.16-123.91-.05-4.74-.45-10.93-1.26-17.97,0-1.11-.01-2.91-.02-4.02.21-2.06.42-4.14.64-6.21-.04-.29-.08-.59-.12-.89.06.07.13.15.19.23,2.51-22.37,6.95-45.35,21.53-62.65,16.1-19.1,56.36-46.04,72.51-27.92,10.86,12.18,3.05,50.08,2.13,66.58Z"/>
  <path class="cls-1" d="M206.64,324.75l-2.67,9.02h0c.26,13.29,6.03,26.07,12.74,38.57,1.55,2.88,3.14,5.75,4.73,8.61,5.27,9.48,6.26,19.96,6.18,30.49,0,.88-.02,1.76-.04,2.63s-.04,1.76-.07,2.63c-.06,1.75-.13,3.5-.2,5.25-.17,4.21-.35,8.56-.3,12.73h0c.03,2.63.24,5.33.63,8.01.24,1.61.54,3.22.91,4.8.25,1.06.52,2.11.83,3.14.15.52.31,1.03.48,1.54.34,1.02.7,2.03,1.1,3.01.99,2.46,2.18,4.8,3.56,6.94,3.87,5.98,9.28,10.39,16.33,11.63,12.2,2.15,24-6.32,30.97-14.95,11.77-14.58,17.72-33.92,18.01-58.76.07-5.73-.17-11.76-.7-18.1-2.01-23.79-7.23-47.27-15.53-69.79-.07-.19-.14-.38-.22-.57-1.68-4.53-3.65-9.18-6.95-12.58-5.24-5.39-12.98-8.57-22.09-9.24-.02-.01-.05-.01-.07-.01h-.08c-.09,0-.17-.02-.26,0-15.86-.59-33.08,5.83-41.87,16.84-.03.04-.06.07-.09.12h0c-.41.57-.78,1.15-1.13,1.74-5.12,8.67-7.06,17.09-6.88,25.31l2.67-9.02Z"/>
  <path class="cls-1" d="M385.57,294.24v.02h0l1.8,7.1,2.41,9.46h.15c.28,1.25.58,2.51.89,3.77,1.87,7.54,4.27,14.96,6.9,21.96.44,1.17.88,2.32,1.33,3.47,3.58,9.14,7.46,17.45,10.86,24.19,1.39,2.75,2.48,5.6,3.33,8.51.43,1.46.79,2.94,1.11,4.43.31,1.49.57,3,.78,4.52.11.76.2,1.52.28,2.29.42,3.83.56,7.74.54,11.68,0,1.58-.05,3.16-.1,4.74h0c-.17,4.98-.55,9.99-.93,14.95-.55,7.23-1.07,14.05-1,20.71.24,22.54,9.4,48.52,28.97,52.31.69.14,1.38.24,2.07.31h0c3.71.4,7.36-.07,10.89-1.18,2.2-.69,4.36-1.63,6.44-2.76,1.25-.68,2.47-1.43,3.66-2.23,3.85-2.62,7.37-5.85,10.42-9.27,1.39-1.56,2.69-3.15,3.86-4.75,7.83-10.69,13.52-23.29,17.1-37.98.07-.27.13-.54.19-.81.36-1.49.69-3.01,1-4.55,2.19-10.76,3.32-22.58,3.4-35.51.08-.64.15-1.29.22-1.94.41-3.9.69-7.97.73-12.39.06-6.62-.42-14.03-1.78-22.85-.23-1.49-.55-3.21-.92-5.09-.82-4.12-1.94-9.07-3.19-14.55-1.3-7.84-2.85-15.62-4.64-23.36-.6-2.58-1.22-5.15-1.87-7.71-.02-.09-.05-.19-.07-.28-.03-.14-.07-.28-.11-.42h0c-2.27-8.93-4.87-17.77-7.79-26.51l-.1-.31c-2.07-6.17-5.9-17.66-10.01-22.31-3.85-4.36-9.1-7.78-15.21-10.11-4.91-1.87-10.37-3.05-16.1-3.44-.06,0-.13-.01-.2-.01-17.85-.68-36.52,5.79-46.29,18.23-.03.03-.05.06-.07.09-.01,0-.01.02-.02.03,0,0,0,0,0,0,0,0,0,0,0,0-1.69,2.16-3.1,4.5-4.2,7.02-1.99,4.56-3.31,9.45-4.06,14.57-.09.64-.18,1.28-.26,1.93-.15,1.3-.27,2.6-.36,3.93-.04.66-.08,1.32-.1,1.99-.05,1.33-.07,2.68-.06,4.03,0,1.36.05,2.72.12,4.09Z"/>
  <path class="cls-1" d="M496.22,299.98c.09.55.19,1.1.29,1.65,1.94,10.61,4.28,20.9,6.22,29.43.05.21.09.41.14.61,1.9,11.4,3.3,22.9,4.18,34.45.64,8.36.93,16.34.86,23.96-.47,4.05-1.07,7.95-1.67,11.92-.07.47-.14.95-.22,1.42-.4,7.32-2.59,22.85-2.54,22.83-.08,1.61-.15,3.26-.18,4.98v.02c-.08,3.64-.04,7.54.14,11.77.85,20.09,5.28,33.08,13.93,40.88,7.48,6.75,18.47,9.05,30.14,6.3,13.07-3.07,23.89-11.87,28.25-22.94,22.39-56.94,21.22-87.17,20.28-111.45-.05-1.42-.11-2.82-.16-4.19h0v-.03c-.08-2.42-.15-4.78-.17-7.11-.07-7.62-.99-17.83-2.72-28.92-.18-1.15-.36-2.32-.56-3.49-4.52-26.78-13.6-57.44-26.75-68.61-4.69-3.98-11.02-7.28-17.93-9.58-5.78-1.93-11.98-3.16-17.96-3.5-.04,0-.07,0-.11,0-1.14-.07-2.27-.1-3.38-.1-1.54,0-3.05.06-4.54.19-6.94.6-16.57,2.94-22.98,10.65-.31.37-.59.75-.86,1.15-.05.05-.08.11-.12.16-4.3,6.3-5.54,16.57-5.08,28.38.36,9.18,1.74,19.29,3.5,29.18Z"/>
</svg>