<?xml version="1.0" encoding="UTF-8"?>
<svg id="Calque_1" xmlns="http://www.w3.org/2000/svg" version="1.1" viewBox="0 0 850.4 850.4">
  <!-- Generator: Adobe Illustrator 29.8.3, SVG Export Plug-In . SVG Version: 2.1.1 Build 3)  -->
  <defs>
    <style>
      .st0 {
        fill: #a3214b;
      }
    </style>
  </defs>
  <path class="st0" d="M239.7,501.6c14.4-2.6,24.5-19.4,23.5-37.5-.2-3.9-.1-7.9-.3-11.8-.5-13.1-1.1-26.6,5.5-38.5,9.3-17,19.2-37.7,14.9-57.8-.4-2-1-4-1.7-5.9,0,0,0,0,0,0l-2.6-5.8s0,0,0-.1c0,0,0,0,0,0-11.6-18.7-48-25.3-64-8.6-3.5,3.7-5.5,8.5-7.2,13.2-7.7,21.1-12.5,43.3-14.4,65.6-2.1,25.6.3,53.2,16.5,73.5,4.4,5.5,10.3,10.5,16.8,13.2h0c1.5.5,3.1.8,5,1,2.4.2,5.1.2,8.2-.4h0Z"/>
  <path class="st0" d="M481.3,358.2c-4.4,17-11.5,33.1-17.2,44.5-3.8,7.6-4.9,16.4-5,25.5-.5.3-.9.6-1.4.9-.4.3-.8.5-1.1.8v.5h0c.4-.2.8-.5,1.1-.8.5-.3.9-.6,1.4-.9,6.3-4.4,13.2-8.9,20.7-13.6,13.6-8.5,8.5-28.8,3.5-48.5-.7-2.8-1.4-5.5-2-8.2h0c0-.1,0-.2,0-.3h0Z"/>
  <path class="st0" d="M479,346.1l-2.7-25.9c-.2-4.9-.1-9.7.2-14.5,0-.1,0-.3,0-.5,0-.6.1-1.1.2-1.7,0-.2,0-.4,0-.6,0-.6.1-1.2.2-1.8h0c-.5-.8-1-1.5-1.5-2.3-.2-.3-.4-.6-.6-.9-.1-.1-.2-.2-.3-.4-.3-.3-.5-.6-.8-1-.2-.3-.5-.6-.7-.8-.1-.1-.2-.2-.3-.3l-.3.4c-.3.5-.6.9-.8,1.2-.1.2-.2.4-.3.5-.3.5-.5.7-.5.8v.2c-5.3,9.2-17.1,16.6-30.3,18.9-2.7.5-5.3.7-7.8.7-7.8,0-14.5-2.2-19.4-6.5-5.4-4.7-8.4-12.4-9.9-17.2-.5.5-1,1-1.5,1.6-3.8,4.4-7.3,15.1-9.2,20.9v.3c-1.5,4.4-2.9,8.9-4.2,13.3l-.7,2.5c-2.7,9.5-4.9,19.1-6.8,28.9l-3.6,22.4c-.8,6.2-1.4,12.4-1.9,18.6-.3,4.3-.5,8.6-.7,12.7,0,1.5,0,2.9,0,4.4-.4,32.5,5.9,57.7,19,76.6l.8,1.2.8.9s0,0,0,0h0c0-.1,0-.2.1-.4,0-.2.1-.4.2-.7,0-.3.2-.6.3-.9.3-.8.5-1.7.8-2.5,1.1-3,2.4-6,4.1-9.2.3-.5.6-1.1.9-1.6.2-.4.4-.7.6-1,.3-.6.7-1.1,1-1.7.6-1,1.2-1.9,1.9-2.9.2-.3.4-.6.6-1,.4-.6.9-1.3,1.4-1.9,0,0,.1-.2.2-.3.4-.5.8-1.1,1.2-1.7,2-2.6,4.2-5.3,6.7-8,.3-.3.6-.7,1-1,.3-.4.6-.7,1-1,.3-.4.7-.7,1-1,.7-.8,1.5-1.5,2.3-2.3.3-.3.6-.6.9-.9,2.1-2,4.3-4.1,6.6-6.2.4-.4.9-.8,1.3-1.1.9-.8,1.8-1.5,2.6-2.3.4-.3.7-.6,1-.9,3.8-3.2,8-6.6,12.5-10,1-.8,2.1-1.6,3.2-2.4,1.7-1.3,3.5-2.5,5.3-3.8h0s0,0,0,0c0-.2,0-.3,0-.5,0-.8,0-1.5,0-2.3s0-1.2,0-1.9c0-.3,0-.6,0-.9,0-.3,0-.6,0-.9,0-1.2.1-2.5.2-3.7,0-.6.1-1.2.2-1.8s.1-1.2.2-1.8c0-.6.1-1.2.2-1.8,0,0,0,0,0,0,0-.6.2-1.2.3-1.7h0c.1-.6.2-1.1.3-1.7,0,0,0-.1,0-.2.1-.5.2-.9.3-1.4,0-.1,0-.3.1-.5.1-.4.2-.9.3-1.3,0-.1,0-.3.1-.4.1-.4.2-.8.3-1.1.2-.8.5-1.5.8-2.3.2-.5.4-1,.6-1.6.2-.6.5-1.1.7-1.7.2-.5.5-1.1.8-1.6,5.6-11.2,12.6-27.1,16.9-43.8.4-1.6,2.1-8.4,2.4-10v-1h0Z"/>
  <path class="st0" d="M600.5,373.8v-.2c.1,0-4-41.3-14.9-120.6l-1.6-34.6c-.9-20.2-17.2-36.6-37.7-37.8-9.2-.5-18.3-.7-27.4-.8-12.9,0-49.2-1.5-76.1-1.9-14.8-.2-27.1,11-28,25.5l-.6,9.2c-2.3,22-3.2,45.1-6,66.2-.3,2-.5,4.2-.5,6.3,0,1,0,2,0,2.9-.1.1-.3.2-.5.3,0,.3.1.7.2,1,.1.5.2,1,.4,1.6,0,.2.1.4.2.6.7,5.8,2.9,11.2,7.5,15.2.3.3.7.6,1,.8,0,.1.2.2.3.3,5.3,4.6,13.7,6.3,23,4.7,6.4-1.1,12.5-3.6,17.4-6.9,4-2.7,7.2-5.9,9.2-9.4.1-.3.4-.8,1.2-2,0,0,.1-.2.2-.3.2-.3.4-.6.6-1l.8-1.1.2-.3c.3-.5.6-1,1-1.5,0,0,.1-.2.2-.3,12.7-19.4,19.4-31.8,20.1-36.9l.3-2.3,11.2.9c.1,0,.3,0,.4,0,8.3-8.8,18.1-16.4,27.6-18.9,6.6-1.7,12.5-.9,17.4,2.5,10.9,7.5,14.1,30.9,16.6,49.8.7,5,1.2,9.2,1.9,12.5l5.1,26.1,10,51.3c1.4,7.4,3.3,15.2,5.3,23.3.5,2.1,1.1,4.3,1.6,6.4,3.1,12.6,6.4,25.9,8.8,39.2l4.2-55.5c0-5.2-.2-10.1-.5-14.6h0Z"/>
  <path class="st0" d="M288.6,488.5c2.2,9.1,9.9,17.3,20,21.3,9.5,3.8,19.5,3.3,26.6-1.4,8.1-5.3,13.4-15.2,16.6-31.1,2.8-14.1,2.7-23.8,2.7-33.2,0-11.8-.1-22.9,5.5-40.6,1.3-4,3.5-9.5,6.1-15.9,3.1-7.7,6.9-17.2,10.1-26.9,3.3-9.9,6-20,6.7-28.6v-.7c.5-6.2-.2-11.6-2.6-15.3-10.3-16.2-50.5-22.6-65.2-13.6-10.8,6.5-17.5,27.7-21.8,48-2.5,11.5-4.1,22.6-5.3,30.6-.4,2.6-.7,4.9-1,6.8-.5,2.9-1,5.9-1.7,9-3.7,19.4-8.4,43.4,3.3,91.6h0Z"/>
  <path class="st0" d="M594.8,469.9h0c-.8-20.5-6.3-42.5-11.7-64-.1-.5-.2-.9-.3-1.4l-17.1-82.5-.5-2.4-4.1-21c-.7-3.5-1.2-7.8-1.9-12.8-2.2-16-5.4-40.1-14.5-46.3-3.7-2.5-8.2-3.1-13.3-1.8-9.2,2.4-19.1,10.5-27.4,19.8-2.9,3.3-5.7,6.7-8.1,10.1-3.2,4.4-5.8,8.8-7.7,12.6-1.9,3.9-3.3,7.9-4.4,12-1.1,4.2-1.8,8.5-2.2,12.9h0c-.2,2.3-.3,4.6-.4,6.9h0s0,0,0,0c0,0,0,0,0,0,0,0,0,0,0,0,0,2.5,0,5.1,0,7.7l1.5,17.2h0c.4,3.1.8,6.2,1.3,9.2h0c0,.5.1,1,.2,1.5.8,5.4,2.3,11.5,4,17.9,5.1,20.4,11,43.5-5.7,53.9-1.7,1-3.3,2.1-4.9,3.1-1.5,1-3,1.9-4.4,2.8-5,3.2-9.6,6.4-14,9.4h0c-.8.6-1.6,1.1-2.4,1.7-.8.6-1.6,1.2-2.4,1.7-1.5,1.1-2.9,2.1-4.3,3.1-.6.5-1.3,1-1.9,1.4-2.8,2.1-5.4,4.1-7.9,6.2-.6.5-1.2,1-1.8,1.5-.5.4-1,.8-1.4,1.2,0,0-.1,0-.1.1-.5.4-.9.8-1.4,1.1-2,1.7-3.9,3.4-5.7,5-.6.5-1.2,1.1-1.8,1.7-.4.4-.8.7-1.2,1.1-.6.5-1.1,1.1-1.7,1.6-.5.5-1.1,1.1-1.6,1.6s-.7.7-1,1.1c0,0-.1.1-.2.2-.7.7-1.4,1.4-2,2.1-1.6,1.8-3.2,3.5-4.6,5.2-.3.4-.7.8-1,1.2-.3.4-.6.8-1,1.2-.3.4-.6.8-.9,1.2-1.5,2-2.9,3.9-4.1,5.8-.2.4-.5.8-.7,1.1-.2.4-.5.8-.7,1.1-.4.6-.8,1.2-1.1,1.9s-.7,1.2-1,1.9c-1,1.8-1.8,3.6-2.5,5.4-.2.6-.5,1.2-.7,1.8-.3.9-.6,1.8-.9,2.6-.2.5-.3,1-.5,1.5,0,0,0,.2,0,.2-.1.4-.2.9-.4,1.3-.1.6-.3,1.1-.4,1.7,0,.3-.1.6-.2.8,0,.1,0,.3,0,.4-.2,1-.4,2-.5,3-.2,1-.3,2.1-.4,3.1-.6,6.4-.2,12.7.5,19v.4c.3,2.1.6,4.3.9,6.4v.4c0,.3.1.6.2.9.4,2.9.8,5.9,1.1,9,0,.1,0,.3,0,.4.1,1.4-.8,2.6-2.2,2.8,0,0-.2,0-.3,0-1.3,0-2.3-1-2.5-2.2-.4-3.1-.8-6.2-1.2-9.2-1.5-10.7-2.9-21.1-1-32.4-1.2-1.4-2.3-2.8-3.3-4.2-13.6-18.9-20.5-43.7-20.9-75.4,0-1.6,0-3.3,0-5,0-5.7.3-11.7.8-17.8.4-5.8,1-11.5,1.7-17.2,0,0,0,.1,0,.2-.5,1.3-1,2.5-1.5,3.8-2.5,6.3-4.7,11.8-5.9,15.6-5.4,17-5.4,27.7-5.3,39.1,0,9.6.1,19.6-2.8,34.2-2.2,11-6.5,26.4-18.8,34.4-4.8,3.1-10.6,4.7-16.7,4.7s-9.7-1-14.5-2.9c-11.8-4.7-20.4-14-23-24.8-10.3-42.3-8.2-66.4-5-85-2,4.1-4.1,8.1-6.2,11.9-5.6,10.2-5.1,22.2-4.6,34.9.2,4,.3,8.1.3,12.2-.2,18.8-8.6,39.2-27,42.5-2.4.4-5.2.9-8.1,1l23.3,71.8c43,108.7,54.4,132.9,150.2,129.2,0,0,159.2,10.6,181.9-158.6l4.4-57.1.7-.2c0-.3-.1-.7,0-1.1,1.1-6.8,1.4-14,1.1-21.3h0Z"/>
</svg>