<?xml version="1.0" encoding="UTF-8"?>
<svg id="Calque_1" data-name="Calque 1" xmlns="http://www.w3.org/2000/svg" viewBox="0 0 850.39 850.39">
  <defs>
    <style>
      .cls-1 {
        fill: #d946e8;
      }
    </style>
  </defs>
  <path class="cls-1" d="M598.09,147.42c-7.17-19.32-18.88-40.97-40.6-44.53-21.05-3.44-40.91,13.45-46.87,32.45-5.97,19.01-1.73,39.31,2.33,58.74,9.88,47.35,12.29,98.69,19.55,146.44,1.93,12.68,3.23,25.9,3.77,39.34-7.81.19-16.02.39-24.59.47-9-63.78-19.33-157.16-20.54-255.75-.13-10.24-5.36-20.88-14.35-26.83-17.76-11.75-41.99,3.82-54,20.7-30.69,43.1-34.84,97.68-32.77,149.27,1.67,41.36,6.75,82.61,15.16,123.27l-21.14,2.28c-8.1-57.31-17.07-138.74-18.31-224.52-.14-9.23-4.92-18.84-13.12-24.23-16.21-10.63-38.24,3.38-49.15,18.59-27.87,38.83-31.55,88.07-29.56,134.61,1.67,38.92,6.71,77.74,15.06,115.97-5.65,2.8-11.1,5.89-16.31,9.27-7.06-34.89-13.74-73.65-18.59-113.69-.97-7.97-6-15.9-13.59-19.91-15.01-7.93-32.79,5.93-40.83,19.94-20.55,35.78-19.2,78.65-13.19,118.75,7.79,51.95,22.57,103.03,43.91,151.71.32.74.66,1.48,1,2.23l21.39,59.67c47.87,109.49,85.35,130.09,167,130.09l54.56,1.09c49.67,0,95.85-21.66,127.27-59.36-18.47,13.97-44.59-7.75-68.3-21.07-.7.43-1.52.66-2.35.66-.69,0-1.39-.16-2.04-.49-2.58-1.32-5.02-2.89-7.26-4.68-.27-.21-.52-.45-.74-.73-.01-.01-.02-.02-.02-.03-2.4-3.02-4.6-6.17-6.58-9.45-10.54-17.42-15.18-38.47-13.8-62.75.62-10.91,2.37-20.93,4.33-29.32,2.09-8.98,4.4-16.07,5.8-20.31-13.36-6.49-56.64-25.86-65.55-26.52-43.11-3.2-60.48-25.84-62.25-44.26-1.31-13.54,5.6-25.14,16.81-28.2,3.73-1.02,7.42-2,11.05-2.94,8.04-2.07,15.81-3.95,23.19-5.63,30.54-6.95,54.45-10.54,63.4-10.81,7.13-.22,14.31,1.25,20.75,4.25,20.09,9.35,48.91,22.42,67.12,27.91,9.08,2.75,16.87,4.5,23.74,6.05,10.8,2.44,19.69,4.44,28.15,8.98l-.33-10.88c4.4-114.01,1.15-228.63-38.61-335.84Z"/>
  <path class="cls-1" d="M672.31,569.98c-1.55-13.65-6.28-27.85-15.2-42.85-1.31-2.19-2.65-4.45-4.14-6.73-5.53-7.17-10.52-12.03-15.62-15.54-8.74-6.02-17.81-8.07-30.45-10.92-7.01-1.58-14.97-3.37-24.36-6.21-18.55-5.6-46.26-18.1-68.32-28.37-5.17-2.41-10.96-3.6-16.68-3.42-11.66.36-50.09,6.66-95.54,19.07-2.72.74-5.01,2.38-6.74,4.65-2.68,3.5-4.02,8.49-3.49,14.01,1.21,12.52,11.96,27.51,37.54,33.66,4.91,1.19,10.38,2.04,16.43,2.49,12.95.96,68.36,26.99,72.46,29.24,1.71.93,2.62,2.87,2.25,4.79-.15.79-.48,1.82-1.22,4.07-15.76,48-12.95,86.11,8.39,113.24,1.66,1.29,3.46,2.43,5.36,3.4,2.22,1.13,3.09,3.84,1.96,6.06-.38.76-.97,1.37-1.66,1.79,23.71,13.32,49.83,35.04,68.3,21.07.01,0,.01-.01.01-.01,3.12-2.35,6.02-5.74,8.66-10.35,24.69-43.21,64.94-83.79,62.06-133.14ZM630.35,567.57c-.65-.46-.2-.52.44-.28-.14.1-.29.19-.44.28Z"/>
</svg>