<?xml version="1.0" encoding="UTF-8"?>
<svg id="Calque_1" xmlns="http://www.w3.org/2000/svg" version="1.1" viewBox="0 0 850.4 850.4">
  <!-- Generator: Adobe Illustrator 29.8.3, SVG Export Plug-In . SVG Version: 2.1.1 Build 3)  -->
  <defs>
    <style>
      .st0 {
        fill: #a3214b;
      }
    </style>
  </defs>
  <path class="st0" d="M762.2,403.2c-6.6-23.4-54.6-16.7-77.4-6.6-22.8,10.1-37.5,31.9-50.4,52.9s-26.1,43.2-47.8,55.6c-8,4.6-17.5,7.2-26.8,7.5l-1.8-57.3c-2.8,15.2-7.7,33.1-16.2,55-.4,1.2-.9,2.4-1.4,3.6-5.1,12.9-17.5,23.1-32.5,26.6-3.7.9-7.3,1.3-10.9,1.3s-4.8-.2-7.1-.6c0,0,0,0,0,0-6.7-1.2-12.7-4-17.6-8.4-5.2-4.7-8.7-10.7-11.1-17.1-2.8-7.4-3.9-15.4-4.5-22.5l-.4.8h0c-3.3,8.2-7.4,15.6-12.4,22.3-8.4,11.5-22.3,22.8-37.5,22.8s-3.5-.2-5.3-.5h0c-.1,0-.3,0-.4,0-23-4.5-33.6-32.4-33.8-58.1,0-6.9.5-14.2,1-21.2,1.3-16.8,2.6-34.1-4.4-48-2.3-4.6-4.8-9.9-7.3-15.6.2,1.5.5,3,.8,4.5h0c.2,1,.4,2.1.6,3.1,4.2,21.4,9.4,47.9-3.6,101-2.9,11.6-12.2,21.6-25,26.7-5.4,2.2-10.9,3.2-16.2,3.2s-4-.2-6-.5c-4.5-.7-8.7-2.2-12.4-4.6-1.7-1.1-3.2-2.3-4.7-3.6-6.4-5.9-10.3-13.8-12.8-21.5-1.4-4.3-2.4-8.4-3.1-12.1-.4-2-.7-3.9-1-5.7-1.2-7.3-1.7-13.5-1.9-19.2-.1-4.2-.1-8.1,0-12,0-12.7.1-23.8-5.8-41.9-.7-2.3-1.8-5.1-3.1-8.4.4,3.4.8,6.8,1.1,10.2,3,35.2-3.1,61.7-18.5,80.8-7.1,8.8-18.7,17.3-31.4,17.3s-3.2-.1-4.8-.4c-19.3-3.4-28.2-24.8-28.4-44.4,0-4.3.1-8.7.3-13,.6-13.8,1.1-26.8-5.2-38.1-6.6-11.8-13.6-24.4-16.6-37.7,1.5,9,4.9,29.9,4.9,31.4l27.8,142.4c6.2,31.9,18.3,62.3,36,88.9,33.4,50.3,68.1,59.2,127.3,59.2l51.1,1c4.1,0,8.1-.2,12.2-.5,0,0,0,0,0,0,72.5,7.8,149.6-15.3,213.1-69.7,29.3-25.1,45.2-62,63.8-95.5,13.5-24.2,27-48.4,40.5-72.7,8-14.4,31.6-45.1,27.2-60.8h0Z"/>
  <path class="st0" d="M247,343.4c.8,4,1.8,8.2,3.1,12.5,1.9,6.5,4.2,13.2,6.6,19.5,2.6,6.8,5.2,13.3,7.5,18.9,2.8,6.9,5.2,12.9,6.6,17.1,6.2,19.1,6.1,31.1,6,43.8,0,10.1-.1,20.5,2.9,35.6,3.4,17.1,9.1,27.7,18,33.3,7.9,5,18.7,5.5,29.1,1.3,10.9-4.3,19.1-13,21.4-22.6,3.8-15.3,6-28.4,7.1-39.7,2.8-31.9-3-50.1-5.6-66.3-1.1-6.9-2.7-18.1-5-30.5,0,0,0,0,0-.1-.7-3.6-1.4-7.3-2.2-11-.5-2-.9-4.1-1.4-6.1,0,0,0,0,0-.1-4.9-20-12.2-39.3-23.4-45.9-3.5-2.1-8.3-3.5-13.8-4.2-1.8-.1-3.6-.2-5.5-.2-18.9,0-42.1,7-49.8,18.9-1.2,1.9-2.1,4.3-2.5,6.9-.9,5.2-.4,11.7,1,18.8h0Z"/>
  <path class="st0" d="M348.9,354.7c.6,2.9,1.3,5.7,2.1,8.5h0c4.8,17.4,12.1,33.9,18,45.6,7.7,15.3,6.4,33.5,5,51.1-.5,7.2-1.1,14.1-1,20.7.2,22.5,9.4,48.5,29,52.3,14.7,2.8,28.9-8.4,37.3-19.9,7.7-10.5,13.3-22.8,16.9-37.1,0,.6,0,1.2,0,1.9h0s.2-.9.2-.9h0c1.7-7.2,2.8-14.6,3.5-22.1,0-.2,0-.3,0-.5.6-6.2,1-12.6,1.1-19.4h0c.1-1.2.2-2.5.3-3.7,0,0,0-.2,0-.3.9-9.4,1-19.9-1.2-33.9-.7-4.8-2.3-11.6-4.1-19.6-1.8-10.6-4-21.2-6.7-31.7,0,0,0-.1,0-.2-.6-2.2-1.1-4.3-1.7-6.5.3,2.2.7,4.5,1.1,6.7h-.1c-2.2-8.4-4.7-16.8-7.4-25-2.2-6.7-6.1-18.5-10.7-23.7-6.8-7.7-16.8-12.2-27.7-13.9,0,0,0,0-.1,0-2.2-.2-4.4-.4-6.7-.4-3.3,0-6.7.3-10.1.8-16.9,2.7-30,11.2-35.1,22.8-1.8,4.1-3,8.5-3.7,13-1.3,8.3-1,17.3.3,26.4.4,3,1,5.9,1.6,8.9h0Z"/>
  <path class="st0" d="M455.5,345.6c2,10.8,4.4,21.4,6.3,30,0,.2,0,.4.1.6,1.9,11.4,3.3,22.9,4.2,34.5.6,8.4.9,16.4.9,24-.5,4-1.1,8-1.7,11.9-1.3,8.7-2.7,17.6-2.9,29.2,0,3.6,0,7.6.1,11.8.4,9.7,1.6,17.7,3.8,24.3,2.3,7.1,5.6,12.6,10.1,16.6,7.5,6.8,18.5,9,30.1,6.3,13.1-3.1,23.9-11.9,28.2-22.9.5-1.2,1-2.4,1.4-3.6,11.5-29.9,16.3-52.2,18.2-70.2,0,0,0-.1,0-.2h0c1.5-14.9,1.1-26.7.7-37.5-.2-3.9-.3-7.7-.3-11.3,0-.8,0-1.6,0-2.5-.2-.9-.3-1.8-.5-2.6h0c-1.8-27.4-11.6-79.3-30.8-95.6-7.4-6.3-19.2-11.3-31.4-13.1,0,0,0,0,0,0h-.1c-2.2-.2-4.4-.4-6.5-.4s-3,0-4.5.2c-6.9.6-16.6,2.9-23,10.6-8.8,10.6-6.8,35.3-2.6,58.9,0,.4.1.7.2,1h0Z"/>
  <path class="st0" d="M185.2,455.6c-.2,4.2-.3,8.6-.3,12.8.2,17,7.9,36.7,24.3,39.6,12.4,2.2,24.4-6.4,31.4-15.1,14.6-18,20.3-43.3,17.4-77.2-.9-10.7-2.5-21.4-4.7-32-2.7-12.9-6.3-25.6-10.9-38-.6-1.7-1.3-3.4-2-5.1-1.4-3-3-5.9-5.2-8.2-6-6.2-15.4-9.5-26.2-9.5s-4.4.1-6.7.4c-14.7,1.8-27.8,9.1-33.5,18.6-15.5,26.2-2.2,50,10.6,73,7,12.5,6.4,26.9,5.8,40.8Z"/>
</svg>