<?xml version="1.0" encoding="UTF-8"?>
<svg id="Calque_1" data-name="Calque 1" xmlns="http://www.w3.org/2000/svg" viewBox="0 0 850.39 850.39">
  <defs>
    <style>
      .cls-1 {
        fill: #d946e8;
      }
    </style>
  </defs>
  <path class="cls-1" d="M788.79,495.44c-2.01-24.72-47.84-27.24-70.86-21.4-23.04,5.84-40.6,24.87-56.28,43.48-15.68,18.6-31.95,38.4-54.25,46.77-2.97,1.1-6.09,1.93-9.29,2.44l-.05-1.52c-26.03-10.42-86.54-8.77-111.19,25.46-.88,1.23-2.26,1.87-3.65,1.87-.92,0-1.83-.27-2.63-.84-2.02-1.45-2.48-4.27-1.02-6.28,27.16-37.73,88.86-39.43,118.19-29.87l-1.88-61.04c4.8-120.62,2.86-242.22-36.09-355.68-6.79-19.75-17.88-41.9-38.45-45.55-19.94-3.51-38.74,13.75-44.39,33.2-5.66,19.43-1.63,40.2,2.21,60.09,9.35,48.42,11.64,100.94,18.53,149.78,3.17,22.66,4.56,47,3.45,71.26-.15,3.3-2.88,5.91-6.19,5.98l-4.62.09c-4.17.08-7.75-2.95-8.34-7.08-9.11-63.6-22.15-173.75-23.48-291.13-.12-10.47-5.07-21.36-13.59-27.44-16.83-12.03-39.77,3.91-51.13,21.17-29.06,44.09-33,99.91-31.03,152.68,1.94,52.41,8.86,104.62,20.57,155.73.65,2.86-1.32,5.65-4.24,5.96l-12.45,1.31c-2.61.28-4.97-1.55-5.35-4.15-8.41-57.76-20.15-155.78-21.55-260.08-.12-9.45-4.66-19.28-12.43-24.78-15.33-10.89-36.2,3.45-46.53,19.02-26.4,39.7-29.89,90.07-28,137.69,1.94,48.87,8.7,97.58,20.14,145.21.54,2.29-.61,4.61-2.75,5.59-2.72,1.26-5.41,2.59-8.04,3.98-4.55,2.41-10.12-.27-11.13-5.32-8.15-40.9-16.21-88.32-21.75-137.65-.91-8.17-5.66-16.27-12.86-20.38-14.2-8.1-31.05,6.08-38.67,20.4-19.46,36.61-18.18,80.47-12.48,121.48,5.78,41.58,15.58,82.61,29.29,122.34-.04,1.22-.06,2.45-.06,3.69l38.29,104.76c45.33,101.73,80.82,120.87,158.15,120.87l51.66,1c22.98,0,45.19-4.81,65.35-13.8,37.6-6.08,91.89-43.6,118.05-64.35,29.41-23.36,52.98-53.72,76.24-83.76,16.83-21.76,33.67-43.52,50.52-65.27,10.04-12.98,37.42-39.3,36.06-55.93ZM590.34,568.61c-.61-.48-.18-.54.42-.3-.12.12-.28.2-.42.3ZM592.41,567.34c-.21.02-.43.02-.67.04.3-.33.53-.71.73-1.1l-.06,1.06Z"/>
</svg>