<?xml version="1.0" encoding="UTF-8"?>
<svg id="Calque_1" data-name="Calque 1" xmlns="http://www.w3.org/2000/svg" viewBox="0 0 850.39 850.39">
  <defs>
    <style>
      .cls-1 {
        fill: #d946e8;
      }
    </style>
  </defs>
  <path class="cls-1" d="M658.45,477.28c-1.31-2.2-2.66-4.46-4.15-6.73-15-19.45-26.04-21.95-46.06-26.46-7.02-1.59-14.97-3.38-24.36-6.22-18.56-5.59-46.26-18.1-68.32-28.37-5.18-2.41-10.96-3.59-16.68-3.41-11.66.35-50.09,6.66-95.54,19.07-6.9,1.88-11.11,9.55-10.23,18.65,1.44,14.93,16.44,33.36,53.97,36.15,12.95.96,68.36,27,72.45,29.24,1.72.94,2.63,2.88,2.26,4.8-.15.78-.48,1.81-1.22,4.06-15.84,48.25-12.92,86.48,8.7,113.65,1.55,1.94,1.22,4.77-.72,6.32-1.95,1.55-4.78,1.23-6.32-.72-13.96-17.53-20.88-39.49-20.63-65.34-6.2,3.75-13.09,6.18-20.3,6.18-2.01,0-4.03-.19-6.08-.59-3.87-.75-7.4-2.13-10.6-4.04,0,0-.03-.01-.05-.02-.01-.01-.03-.02-.04-.02-.73-.36-1.44-.76-2.13-1.17-.56-.34-1.1-.69-1.63-1.07-.21-.14-.41-.29-.61-.44-.14-.1-.29-.21-.43-.32-.01-.01-.02-.01-.03-.02-.04-.03-.08-.06-.12-.09l-.02-.02c-.42-.32-.83-.65-1.24-1-.09-.09-.19-.17-.28-.25-.16-.15-.31-.29-.47-.43-.21-.18-.42-.37-.62-.57-.24-.22-.48-.46-.72-.7s-.47-.48-.7-.73c-.11-.12-.22-.24-.34-.37-.07-.07-.14-.14-.2-.22-.07-.08-.13-.16-.2-.23-.28-.32-.56-.64-.83-.97-.26-.31-.52-.63-.77-.96-.15-.19-.3-.39-.45-.59-.15-.2-.3-.4-.44-.6-.23-.32-.46-.64-.68-.96-.33-.49-.65-.98-.96-1.47-.2-.31-.39-.63-.58-.95-.19-.31-.38-.63-.56-.96-.02-.02-.03-.05-.05-.08-.35-.62-.69-1.25-1.02-1.89h0c-.12-.24-.23-.46-.35-.69-.11-.22-.22-.45-.33-.68-.05-.09-.09-.18-.13-.26-.19-.4-.37-.79-.55-1.19-.08-.18-.17-.37-.25-.57-.18-.41-.36-.83-.53-1.24-.08-.2-.16-.4-.24-.59-.02-.04-.03-.07-.05-.11s-.03-.09-.05-.13c-.09-.23-.18-.46-.26-.69-.13-.33-.25-.66-.38-1-.12-.33-.23-.67-.35-1-.07-.17-.13-.34-.18-.51-.19-.53-.37-1.07-.53-1.62-.19-.59-.37-1.19-.54-1.79-.02-.03-.03-.06-.03-.1-.02-.06-.03-.11-.05-.17-.09-.32-.19-.65-.27-.97-.05-.2-.1-.39-.15-.59-.37-1.38-.7-2.77-.99-4.18-.13-.6-.25-1.21-.36-1.81-.09-.5-.18-1-.26-1.49-.11-.63-.21-1.26-.3-1.89-.09-.57-.17-1.14-.24-1.71v-.03c-.17-1.31-.31-2.61-.42-3.92-.05-.62-.1-1.25-.14-1.87-.04-.57-.07-1.13-.09-1.7h0s0-.02,0-.02h0v-.03h0s0-.02,0-.02h0v-.03s-.01-.02,0-.02h0s-.01-.04,0-.05v-.05c-.14-1.91-.22-3.83-.24-5.73-.07-6.98.48-14.29,1.02-21.36.19-2.57.39-5.15.55-7.72,0-.02.02-.03.04-.03,1.57.18,3.17.34,4.82.46.97.07,2.36.38,4.06.85,0,0,.02.02.02.03-.16,2.37-.33,4.74-.51,7.09-.12,1.57-.24,3.12-.35,4.66-.4,5.49-.7,10.77-.65,15.93.23,21.94,9.01,47.21,27.75,50.85,9,1.74,17.87-2.14,25.22-8.08,1.77-20.59,7.29-37.53,9.8-45.2-13.35-6.49-56.62-25.85-65.54-26.52-43.11-3.2-60.48-25.84-62.26-44.26-1.3-13.54,5.61-25.13,16.82-28.19,5.39-1.47,10.69-2.86,15.86-4.16-.47-2.78-.98-5.67-1.53-8.64-.01-.02-.01-.05-.01-.07-.68-3.61-1.43-7.31-2.25-11.03-4.86-21.96-12.44-44.61-24.75-51.96-16.96-10.12-62.63-3.47-74.9,15.53-2.63,4.07-3.61,9.53-3.43,15.85.01.29.06.58.15.86,2.58,8.03,6.5,16.93,10.7,25.59,1.14,2.36,2.3,4.7,3.46,6.99,2.35,4.65,4.69,9.14,6.85,13.28,5.46,10.45,9.77,18.7,11.53,24.15,6.27,19.32,6.2,31.45,6.12,44.28-.06,10.01-.12,20.35,2.88,35.32,3.34,16.67,8.83,26.94,17.28,32.32,7.45,4.74,17.82,5.2,27.75,1.22,10.42-4.18,18.29-12.44,20.54-21.57,3.84-15.58,6.05-28.79,7.16-40.22-.68-1.14-1.16-1.95-1.83-3.09.43.19.88.38,1.33.57.23.1.46.2.7.3.19-2.18.32-4.28.43-6.34,0-.02.02-.03.04-.02,2.76.78,5.7,1.46,8.79,2.04.01,0,.02.01.02.03-.83,13.51-3.14,29.51-7.91,48.88-2.26,9.19-8.41,17.4-17.06,23.13h-.01c-.24.24-.49.47-.74.7l-.72.63c-.25.21-.5.43-.76.64-.32.26-.64.52-.97.77-.32.25-.64.49-.97.73-.68.49-1.38.97-2.09,1.42-.28.18-.56.36-.85.53-.28.17-.57.34-.86.51-.29.17-.58.33-.87.49-.29.16-.59.32-.88.47-.3.16-.6.31-.9.45-.29.15-.59.29-.89.43-.31.14-.62.28-.93.41-.04.02-.07.03-.11.05-.29.12-.58.24-.88.36-.33.14-.66.27-1,.4-.32.12-.64.23-.96.35-.24.09-.49.17-.74.25-.09.03-.17.06-.26.09-.48.16-.96.3-1.45.44-.08.03-.16.05-.25.07-.28.08-.57.16-.86.23-.35.09-.7.18-1.06.26-.57.13-1.14.25-1.71.36-.08.01-.16.03-.23.04-.33.06-.65.11-.98.16-.29.05-.57.09-.86.12-.09.02-.19.03-.28.04-.4.05-.79.1-1.19.13-.52.05-1.05.09-1.57.12-.21.01-.42.02-.63.03-.18,0-.36.01-.54.01-6.18.13-12.25-1.29-17.46-4.61-11.62-7.39-16.57-21.73-19.28-35.24-.46-2.3-.85-4.49-1.18-6.59-.01-.04-.02-.08-.02-.11-.05-.21-.09-.42-.13-.62-3.18-15.87-3.11-27.17-3.05-37.14.04-7.35.08-14.11-1.04-22.02-.11-.48-.21-.97-.33-1.46-.11-.49-.23-.99-.35-1.49-.07-.29-.15-.58-.22-.88-.1-.39-.2-.78-.3-1.17-.09-.34-.18-.69-.28-1.03-.14-.53-2.29-18.06-2.44-18.59-.46-1.59-.95-3.24-1.51-4.94,0-.02-.03-.03-.05-.01l-1.72,1.89s-.01.01-.01.02c2.64,34.81-1.62,78.06-17.09,97.22-1.9,2.35-3.9,4.49-5.99,6.4,0,0-.01,0-.01.02-.05.06-.1.13-.15.19-.04.07-.1.13-.15.19-.21.28-.43.56-.66.84-8.09,10.03-20.79,18.31-33.82,16.02-.57-.1-1.13-.22-1.68-.35-.41-.1-.81-.21-1.21-.33-.04-.01-.07-.02-.11-.03-.03-.01-.07-.02-.1-.03-.15-.05-.3-.1-.45-.15-.04-.01-.07-.02-.11-.03-.03-.01-.05-.02-.08-.03-.67-.22-1.32-.47-1.95-.75-.22-.09-.43-.19-.64-.28-.03,0-.05-.03-.07-.04-.23-.1-.46-.21-.68-.33-.27-.13-.54-.27-.8-.42-.21-.12-.42-.24-.62-.36-.41-.24-.81-.49-1.2-.75-.94-.63-1.84-1.31-2.69-2.06-.2-.17-.4-.35-.6-.53s-.39-.36-.58-.55c-.2-.18-.39-.37-.58-.57-.19-.19-.37-.39-.55-.58-.18-.18-.35-.37-.51-.56-.39-.44-.77-.89-1.13-1.35-.16-.19-.31-.39-.45-.59-.17-.22-.34-.44-.49-.66-.24-.33-.47-.66-.7-1l-.24-.36c-.19-.29-.38-.58-.56-.88-.24-.39-.47-.78-.69-1.17-.02-.03-.03-.05-.05-.08-.21-.37-.41-.74-.61-1.12-.16-.29-.31-.58-.46-.88-.16-.32-.32-.64-.46-.97-.08-.15-.15-.31-.22-.46-.1-.23-.21-.45-.3-.68-.02-.03-.04-.07-.05-.1-.15-.33-.29-.66-.42-1-.06-.12-.11-.25-.15-.37-.16-.38-.31-.77-.45-1.16-.17-.45-.34-.91-.49-1.37-.15-.44-.3-.88-.43-1.33-.03-.07-.05-.14-.07-.22-.08-.24-.15-.48-.22-.72-.08-.24-.14-.48-.21-.72-.02-.06-.03-.12-.05-.18-.01-.04-.02-.07-.03-.11,0-.01-.01-.03-.01-.04-.06-.22-.11-.43-.17-.64-.07-.27-.13-.53-.2-.79-.12-.49-.24-.98-.34-1.47-.04-.14-.07-.29-.1-.43-.01-.05-.02-.11-.03-.16-.06-.27-.11-.53-.16-.8-.07-.34-.13-.68-.19-1.02-.03-.17-.06-.34-.09-.5-.07-.43-.14-.85-.2-1.27-.07-.45-.13-.89-.18-1.33-.05-.36-.1-.72-.13-1.07-.01-.05-.02-.09-.02-.14-.02-.15-.03-.3-.04-.45-.04-.32-.07-.64-.1-.96-.03-.32-.05-.65-.07-.97-.03-.38-.05-.77-.07-1.15-.03-.51-.05-1.01-.06-1.51-.01-.05-.01-.08-.01-.13h0v-.02c-.67-3.76-1.03-7.59-1.07-11.35-.09-8.37-.26-22.88-1.75-36.76.05.12.09.24.13.36-.03-.13-.08-.26-.13-.38,0,0,0-.01-.01-.02-1.23-11.53-3.39-22.63-7.17-29.43-1.2-2.17-.42-4.91,1.75-6.12,2.17-1.21,4.91-.43,6.12,1.74,8.32,14.97,7.76,44.04,8.06,70.51.19,16.23,8.6,42.31,23.87,44.99,11.55,2.03,25.58-13.49,32.28-21.79,14.21-17.61,17.78-42.34,14.99-75.61v-.07c-2.02-16.48-5.57-32.79-10.6-48.66h0c-4.12-8.38-8.03-16.94-10.92-25.05h0c-.31-.38-.64-.75-.98-1.1-17.69-18.17-58.14-10.62-70.33,10.01-6.53,11.07-8.2,21.67-6.99,31.94v.02c-3.23,7.33-4.96,16.49-4.96,27.92l29.71,142.39c6.66,31.92,19.58,62.27,38.46,88.85,35.74,50.3,72.77,59.18,136.05,59.18l54.56.99c63.83,0,121.93-32.49,150.3-86.67,0,0,64.46-117.49,29.75-175.85ZM530.76,385.17c1.71,6.9,2.64,15.95,4.26,21.95.21.77.12,1.18-.2,1.33,17.66,8,37.75,16.61,51.66,20.81,9.08,2.74,16.87,4.5,23.74,6.05,7.64,1.72,14.31,3.23,20.56,5.56l-.09-21.1c-.39-5.29-1.07-11.4-2.03-17.93-4.1-27.75-13.38-63.1-28.62-76.05-14.36-12.19-47.91-19.6-67.32-8.62-5.09,2.87-8.08,8.4-7.85,14.24.51,12.55,1.98,37.96,5.89,53.76ZM420.17,381.83h0c.47,2.07,4.98,15.14,9.48,27.37,33.17-7.81,59.46-11.82,68.95-12.11,7.14-.21,14.32,1.26,20.76,4.25,2.48,1.15,5.09,2.36,7.8,3.61-1.46-7.31-3.12-14.56-4.98-21.76-2.2-8.43-4.67-16.78-7.43-25.02-2.23-6.69-6.13-18.46-10.71-23.66-21.09-23.89-73.49-17.49-85.79,10.73-1.69,3.88-2.89,7.99-3.68,12.28-.16.88-.3,1.75-.42,2.63v.02c.82,2.39,1.59,4.83,2.32,7.32,1.02,4.61,2.28,9.42,3.7,14.34Z"/>
</svg>