<?xml version="1.0" encoding="UTF-8"?>
<svg id="Calque_1" xmlns="http://www.w3.org/2000/svg" version="1.1" viewBox="0 0 850.4 850.4">
  <!-- Generator: Adobe Illustrator 29.8.3, SVG Export Plug-In . SVG Version: 2.1.1 Build 3)  -->
  <defs>
    <style>
      .st0 {
        fill: #a3214b;
      }
    </style>
  </defs>
  <path class="st0" d="M604.7,142.1c-7.2-19.3-18.9-41-40.6-44.5-21-3.4-40.9,13.4-46.9,32.4-6,19-1.7,39.3,2.3,58.7,9.9,47.4,12.3,98.7,19.6,146.4,2.7,18,4.2,37,4,56.2,0,3-2.4,5.4-5.4,5.5-2.6,0-5.2.1-7.8.2l8.7,43.1c6.2,2.5,12.4,5.2,18.6,7.9,11.9,5.2,23.2,10.1,32.9,13,9.1,2.8,16.9,4.5,23.8,6.1,11.7,2.6,21.2,4.8,30.2,10.2l-.4-11.9c3.7-109.9-.7-220.1-39.1-323.4h0ZM400.5,473.3c-2.2-8.4-1-16.3,3.5-22.8.4-.6,1-1.1,1.8-1.4,2.2-.7,4.7-1.5,7.4-2.2,2.7-.7,5.7-1.4,8.8-2.1h0c.2,0,.3,0,.5-.1,0-.5-.1-1-.2-1.5-3.6-23.8-11.2-73.2-29.2-84-2.5-1.5-5.6-2.5-9.1-3.2-3.5-.7-7.5-1.1-11.7-1.1-18.7,0-41.7,6.9-49.4,18.7-9.4,14.6,6.3,53.1,15.7,76.2,2.8,6.9,5.2,12.9,6.6,17.2,6.2,19.2,6.1,31.2,6.1,44,0,10.1-.1,20.5,2.9,35.5,3.4,17,9,27.4,17.7,33,7.7,4.9,18.4,5.4,28.6,1.3,10.7-4.3,18.8-12.8,21.1-22.3,4.9-19.7,7.1-35.7,7.8-49-12.6-8.5-25.2-21.8-29-36.2h0Z"/>
  <path class="st0" d="M660.5,620.9s0,0,0,0c-7.4,13.1-15.9,25.8-24.2,38.5-26.8,58.7-87.3,94.3-154,94.3l-54.6-1c-63.3,0-100.3-8.9-136-59.2-18.9-26.6-31.8-56.9-38.5-88.9l-28.3-135.7c-15.1-45.6-24.6-92.6-28.4-140-3.2-40.4-1.6-83.3,21.3-117.6,9-13.4,27.7-26,42.1-17.1,7.3,4.5,11.8,12.8,12.2,20.8,3.6,69.5,12.9,135.6,21.4,184.4.7,4,4.1,7,8.2,7.1,4.7.1,9.5.3,14.4.5,3.8,15.1,10.4,31.5,16.1,45.3,2.8,6.8,5.1,12.6,6.5,16.7,5.9,18.1,5.8,29.1,5.7,41.8,0,10.4-.1,21.2,3,36.9,2.4,11.9,7.2,28.8,20.8,37.5,5.4,3.4,11.8,5.2,18.6,5.2s11-1.1,16.4-3.3c13-5.2,22.4-15.3,25.3-27.1,4.5-18.3,6.8-33.6,7.8-46.7l6.1,2.9-.2,2.1c-.4,5.7-.8,11.8-.8,17.8.3,25.9,11,54.1,34.2,58.6,2,.4,4,.6,6,.6,7.5,0,15.2-2.7,22.6-7.9.3-.2.5-.3.8-.5,0,5.1.6,10.1,1.9,14.9v.3c.3.9.6,1.9.9,2.8.2.8.5,1.7.8,2.5.6,1.8,2.6,2.8,4.4,2.2,0,0,0,0,0,0,1.8-.6,2.7-2.6,2.1-4.4-.2-.7-.5-1.5-.7-2.2-.3-1-.5-1.9-.8-2.8v-.3c-1.8-6.3-2.2-12.9-1.2-19.5.4-2.8,1.1-5.6,2-8.4,1.3-3.9,3-7.7,5.2-11.3,2.1-3.5,3.8-7.5,5-11.7.3-1.2.6-2.5.9-3.8l.5-2.5-2.2-1.2c-4.7-2.6-9.5-5.1-14.1-7.5l-1.5-.8c-6.8-3.5-14.8-7.8-22.3-12.6l-.8-.5h-.9c-8.4-.5-23.6-4.5-34.5-8.5-1.2-.5-2.4-.9-3.5-1.4-.3-.1-3.9-2.1-5.1-2.7-1.5-.7-9.8-5.9-11.3-6.8-10.3-7.8-19.6-18.6-22.5-29.6-1.4-5.3-1.1-10.1.9-14.4.5-1.1,1.5-1.9,2.7-2.2,3.7-1.1,8.1-2.2,12.8-3.2h0c2.8-.5,9.4-1.9,10.4-2,1-.2,2.1-.4,3.1-.6,33.7-5.9,76.8-9.3,81-8.2,4.5,1.3,9.2,3,14.1,4.8,0,0,3.1.8,3.1.8,1.4.6,2.8,1.1,4.3,1.8,4.9,2,9.8,4.2,14.7,6.3,12.1,5.3,23.6,10.3,33.7,13.3,9.3,2.8,17.3,4.6,24.3,6.2,13.4,3,22.8,5.1,32,12,4.8,3.5,9.4,8.2,14.6,14.9,1.4,2.2,2.8,4.5,4.2,6.8,24.4,42.3,15.1,78.9-2.8,113.2h0Z"/>
  <path class="st0" d="M506.4,540.4l-1.5-.8c-6.7-3.5-14.5-7.7-22-12.4-8.8-.6-22.8-4.3-33.7-8.2-.4,5.5-.8,11.5-.7,17.2.2,22.3,9.3,48.1,28.6,51.8,10.6,2.1,20.1-3.4,26.2-8.4,1-.8,1.9-1.6,2.9-2.5,1.3-6.9,3.9-13.7,7.7-19.9,1.9-3.2,3.4-6.8,4.4-10.7-3.9-2.1-7.9-4.2-11.7-6.2h0ZM506.4,540.4l-1.5-.8c-6.7-3.5-14.5-7.7-22-12.4-8.8-.6-22.8-4.3-33.7-8.2-.4,5.5-.8,11.5-.7,17.2.2,22.3,9.3,48.1,28.6,51.8,10.6,2.1,20.1-3.4,26.2-8.4,1-.8,1.9-1.6,2.9-2.5,1.3-6.9,3.9-13.7,7.7-19.9,1.9-3.2,3.4-6.8,4.4-10.7-3.9-2.1-7.9-4.2-11.7-6.2h0ZM523.4,399.7c-2.2-8.4-4.7-16.8-7.4-24.8v-.4c-2.2-6.1-6-17.5-10-22.1-7.6-8.6-20.8-13.5-35.2-13.5s-6.7.3-10.1.8c-16.7,2.6-29.7,11.1-34.7,22.5-5.1,11.7-5.9,26.9-2.4,45,2.1,10.7,3.4,22.2,5.7,35.7l5.1-.6c28.9-5.2,65.5-8.8,80-8.8h0c2.7,0,4.7.1,5.7.4,3.6,1,7.3,2.3,11.1,3.7-2-12.8-4.6-25.5-7.8-38h0ZM637,562.2c.2,0,.3-.2.5-.3-.6-.2-1.1-.2-.5.3ZM506.4,540.4l-1.5-.8c-6.7-3.5-14.5-7.7-22-12.4-8.8-.6-22.8-4.3-33.7-8.2-.4,5.5-.8,11.5-.7,17.2.2,22.3,9.3,48.1,28.6,51.8,10.6,2.1,20.1-3.4,26.2-8.4,1-.8,1.9-1.6,2.9-2.5,1.3-6.9,3.9-13.7,7.7-19.9,1.9-3.2,3.4-6.8,4.4-10.7-3.9-2.1-7.9-4.2-11.7-6.2h0ZM506.4,540.4l-1.5-.8c-6.7-3.5-14.5-7.7-22-12.4-8.8-.6-22.8-4.3-33.7-8.2-.4,5.5-.8,11.5-.7,17.2.2,22.3,9.3,48.1,28.6,51.8,10.6,2.1,20.1-3.4,26.2-8.4,1-.8,1.9-1.6,2.9-2.5,1.3-6.9,3.9-13.7,7.7-19.9,1.9-3.2,3.4-6.8,4.4-10.7-3.9-2.1-7.9-4.2-11.7-6.2h0ZM506.4,540.4l-1.5-.8c-6.7-3.5-14.5-7.7-22-12.4-8.8-.6-22.8-4.3-33.7-8.2-.4,5.5-.8,11.5-.7,17.2.2,22.3,9.3,48.1,28.6,51.8,10.6,2.1,20.1-3.4,26.2-8.4,1-.8,1.9-1.6,2.9-2.5,1.3-6.9,3.9-13.7,7.7-19.9,1.9-3.2,3.4-6.8,4.4-10.7-3.9-2.1-7.9-4.2-11.7-6.2h0Z"/>
</svg>