<?xml version="1.0" encoding="UTF-8"?>
<svg id="Calque_1" data-name="Calque 1" xmlns="http://www.w3.org/2000/svg" viewBox="0 0 850.39 850.39">
  <defs>
    <style>
      .cls-1 {
        fill: #d946e8;
      }
    </style>
  </defs>
  <path class="cls-1" d="M762.21,403.23c-6.61-23.35-54.59-16.73-77.42-6.58-22.81,10.14-37.54,31.9-50.42,52.86s-26.13,43.19-47.75,55.63c-7.97,4.59-17.46,7.18-26.85,7.53l-1.81-57.3c-2.81,15.19-7.73,33.14-16.15,55.04-.44,1.19-.91,2.4-1.39,3.62-5.07,12.89-17.5,23.08-32.46,26.6-3.69.86-7.34,1.29-10.86,1.29-2.41,0-4.77-.2-7.06-.59,0,0-.02,0-.04-.01-6.67-1.16-12.71-3.99-17.57-8.38-5.24-4.71-8.74-10.7-11.1-17.07-2.75-7.44-3.93-15.41-4.48-22.46l-.35.84v.03c-3.32,8.15-7.44,15.57-12.36,22.29-8.43,11.53-22.31,22.8-37.54,22.8-1.73,0-3.5-.15-5.27-.47h-.04s-.02,0-.04,0c-.15-.02-.29-.05-.44-.08-23-4.45-33.56-32.41-33.82-58.13-.07-6.92.47-14.2,1.01-21.23,1.29-16.78,2.6-34.12-4.38-47.96-2.31-4.58-4.83-9.87-7.33-15.65.25,1.46.54,2.95.83,4.48h0c.19,1.03.4,2.06.61,3.11,4.2,21.36,9.41,47.94-3.65,100.97-2.87,11.61-12.23,21.61-25.04,26.74-5.37,2.16-10.89,3.23-16.21,3.23-2.04,0-4.04-.16-6-.48-4.46-.71-8.67-2.25-12.35-4.6-1.69-1.08-3.25-2.28-4.67-3.59-6.43-5.86-10.32-13.79-12.83-21.45-1.4-4.26-2.37-8.44-3.11-12.13-.4-1.97-.74-3.86-1.04-5.67-1.21-7.33-1.7-13.54-1.89-19.22-.14-4.19-.12-8.1-.09-11.95.07-12.74.14-23.75-5.75-41.92-.74-2.3-1.82-5.15-3.12-8.41.42,3.38.77,6.77,1.06,10.17,2.97,35.25-3.08,61.67-18.51,80.77-7.07,8.76-18.67,17.33-31.39,17.33-1.59,0-3.19-.13-4.81-.42-19.3-3.39-28.17-24.75-28.4-44.42-.05-4.31.13-8.74.31-13.02.56-13.8,1.09-26.83-5.18-38.12-6.57-11.8-13.58-24.4-16.62-37.72,1.46,9.04,4.91,29.93,4.91,31.44l27.81,142.39c6.24,31.92,18.32,62.28,36,88.86,33.44,50.29,68.09,59.18,127.3,59.18l51.06.98c4.08,0,8.14-.15,12.16-.47,0,0,.02.01.03,0,72.52,7.82,149.6-15.27,213.06-69.7,29.27-25.11,45.15-62.05,63.77-95.5,13.5-24.22,27-48.44,40.49-72.66,8.03-14.43,31.64-45.11,27.18-60.81Z"/>
  <path class="cls-1" d="M247.02,343.43c.77,4.02,1.84,8.23,3.08,12.5,1.9,6.52,4.21,13.19,6.6,19.54,2.56,6.84,5.21,13.32,7.48,18.9,2.81,6.9,5.24,12.85,6.63,17.14,6.18,19.09,6.11,31.1,6.04,43.8-.06,10.09-.13,20.51,2.9,35.63,3.43,17.1,9.14,27.68,17.96,33.29,7.85,5,18.73,5.5,29.11,1.34,10.85-4.35,19.07-13.01,21.43-22.6,3.78-15.33,5.99-28.39,7.13-39.72,2.75-31.94-2.97-50.11-5.63-66.28-1.13-6.86-2.66-18.08-4.99-30.49-.01-.04-.02-.09-.03-.13-.67-3.59-1.4-7.28-2.23-11-.45-2.03-.92-4.08-1.42-6.11-.01-.03-.02-.07-.02-.1-4.89-19.95-12.17-39.26-23.36-45.94-3.53-2.11-8.3-3.49-13.76-4.18-1.78-.14-3.63-.21-5.53-.21-18.9,0-42.11,6.96-49.84,18.93-1.25,1.93-2.06,4.27-2.51,6.93-.9,5.23-.41,11.71.96,18.75h0Z"/>
  <path class="cls-1" d="M348.86,354.69c.62,2.85,1.32,5.69,2.09,8.51,0,.02,0,.03,0,.04,4.76,17.36,12.11,33.82,18.02,45.54,7.73,15.34,6.35,33.53,5.01,51.12-.55,7.23-1.07,14.06-1,20.72.24,22.53,9.4,48.51,28.97,52.3,14.7,2.85,28.93-8.4,37.34-19.89,7.7-10.51,13.3-22.82,16.91-37.15-.02.61-.04,1.23-.06,1.86v.02l.21-.87h0c1.69-7.21,2.82-14.62,3.51-22.11.02-.16.04-.33.05-.49.65-6.17,1-12.64,1.07-19.42v-.04c.13-1.21.24-2.43.33-3.68.01-.09.02-.18.03-.27.9-9.41.97-19.86-1.19-33.88-.74-4.78-2.29-11.65-4.1-19.61-1.77-10.65-3.99-21.22-6.66-31.67,0-.07-.03-.14-.05-.22-.56-2.17-1.13-4.34-1.72-6.5.33,2.24.7,4.49,1.1,6.74h-.14c-2.19-8.42-4.67-16.75-7.42-24.99-2.24-6.69-6.13-18.47-10.71-23.66-6.79-7.7-16.83-12.25-27.74-13.94-.04,0-.07-.01-.1-.01-2.2-.24-4.44-.36-6.72-.36-3.33,0-6.73.26-10.15.79-16.9,2.66-30.01,11.19-35.08,22.83-1.79,4.1-3,8.47-3.72,13.03-1.33,8.33-1.05,17.29.29,26.35.43,2.96.98,5.94,1.62,8.91Z"/>
  <path class="cls-1" d="M455.48,345.6c1.97,10.84,4.36,21.35,6.33,30.04.05.2.09.41.14.61,1.91,11.4,3.3,22.89,4.18,34.45.64,8.37.93,16.35.86,23.97-.47,4.05-1.07,7.95-1.67,11.91-1.33,8.71-2.68,17.65-2.93,29.2-.08,3.65-.05,7.57.13,11.82.4,9.67,1.64,17.7,3.79,24.29,2.3,7.11,5.65,12.55,10.14,16.6,7.48,6.75,18.47,9.04,30.14,6.29,13.07-3.07,23.89-11.86,28.25-22.94.48-1.22.95-2.42,1.4-3.61,11.45-29.85,16.3-52.19,18.19-70.18,0-.07,0-.14.02-.2,0-.02,0-.04,0-.06,1.54-14.81,1.08-26.68.66-37.4-.15-3.94-.3-7.67-.33-11.33,0-.79-.02-1.61-.05-2.46-.15-.89-.32-1.75-.51-2.6h0c-1.83-27.44-11.58-79.33-30.78-95.63-7.43-6.31-19.18-11.31-31.37-13.15-.01,0-.03,0-.05-.01-.03,0-.07,0-.1,0h-.02c-2.2-.22-4.39-.35-6.53-.35-1.54,0-3.05.06-4.54.19-6.94.61-16.57,2.94-22.98,10.65-8.79,10.56-6.76,35.33-2.57,58.86.07.35.13.7.19,1.05Z"/>
  <path class="cls-1" d="M185.23,455.57c-.17,4.21-.34,8.57-.3,12.75.2,17.03,7.87,36.68,24.26,39.56,12.41,2.18,24.39-6.38,31.45-15.13,14.58-18.05,20.28-43.31,17.42-77.21-.91-10.74-2.47-21.41-4.67-31.95-2.68-12.88-6.32-25.57-10.89-37.97-.63-1.69-1.28-3.41-2.03-5.09-1.35-3.03-2.98-5.92-5.25-8.24-6.03-6.19-15.35-9.53-26.19-9.53-2.17,0-4.41.13-6.7.41-14.69,1.76-27.84,9.08-33.49,18.65-15.46,26.17-2.22,49.97,10.59,72.99,6.96,12.52,6.37,26.87,5.8,40.76Z"/>
</svg>