<?xml version="1.0" encoding="UTF-8"?>
<svg id="Calque_1" data-name="Calque 1" xmlns="http://www.w3.org/2000/svg" viewBox="0 0 850.39 850.39">
  <defs>
    <style>
      .cls-1 {
        fill: #d946e8;
      }
    </style>
  </defs>
  <path class="cls-1" d="M528.45,64.7c-9-9.28-22.98-12.52-36.02-10.53-2.04.31-2.52,3.05-.68,3.97,11.53,5.76,22.24,17.11,32.41,34.25,2.27,3.84,4.51,7.69,6.71,11.56.97,1.7,3.52,1.3,3.91-.62.62-3.11,1.26-6.23,1.9-9.35,2.08-10.02-.73-21.53-8.23-29.28Z"/>
  <path class="cls-1" d="M391.92,526.94c.73.4,1.17,1.18,1.1,2.01-.99,12.17-3.24,26.43-7.45,43.53-2.25,9.13-10.12,17.39-20.53,21.57-9.93,3.98-20.31,3.52-27.75-1.22-8.45-5.38-13.95-15.65-17.29-32.32-3-14.97-2.94-25.31-2.88-35.32.08-12.83.15-24.96-6.11-44.28-1.77-5.45-6.08-13.7-11.54-24.15-1.97-3.78-4.1-7.85-6.24-12.06-.69-1.37-1.39-2.75-2.07-4.15-5.62-11.28-11.03-23.27-13.83-33.45h0c.17-5.08,1.2-9.49,3.41-12.91,12.27-19,57.94-25.65,74.9-15.53,11.38,6.79,18.71,26.64,23.6,46.94l.18-.02c2,10.55,4.75,25.25,6.3,34.97.17,1.1-.53,2.13-1.62,2.38,0,0-.01,0-.02,0-11.32,2.59-18.71,13.89-17.96,27.48.67,12.3,8.18,26.76,25.8,36.52Z"/>
  <path class="cls-1" d="M623.17,498.67c-.03,1.6-1.78,2.61-3.16,1.8-8.23-4.83-16.98-7.18-27.62-10.05-6.8-1.83-14.51-3.91-23.47-7.03-17.98-6.24-46.23-20.49-65.91-30.66-6.32-3.27-13.43-5.03-20.56-5.11-11.11-.15-45.23,3.87-86.72,12.75l-1.64.36c-1.19.26-2.35-.53-2.54-1.73-1.83-11.4-5.12-28.77-7.09-39.05-.03-.17-.04-.34-.03-.51.22-4.18.49-8.36.81-12.53,4.83-65.13,19.72-130.11,34.61-193.38,4.89-20.78,7.57-44.48,12.08-67.57.41-2.08,3.29-2.33,4.05-.35,1.53,4.01,3.14,7.98,4.74,11.93,10.15,24.98,13.4,37.76,17.16,52.55,2.87,11.29,6.13,24.09,13.03,44.19,16.37,47.69,25.25,86.48,25.29,154.8,0,1.24.5,2.36,1.32,3.18.81.82,1.94,1.32,3.18,1.32,2.49,0,4.5-2.02,4.5-4.51-.04-69.57-9.09-109.1-25.78-157.71-6.78-19.76-9.85-31.82-12.82-43.49-3.84-15.11-7.16-28.17-17.55-53.76-7.29-17.94-14.82-36.5-12.5-55.08,2.15-17.23,16.5-36.03,35.92-36.38h.58c15.49,0,29.69,11.24,43.38,34.34,72.53,122.33,109.32,260.94,106.76,401.68Z"/>
  <path class="cls-1" d="M606.53,668.07h0s-.01.02-.01.03c0,0,0,0-.01,0-24.18,64.71-87.69,104.35-158.19,104.35l-54.56-.98c-63.29,0-100.31-8.88-136.05-59.18-18.89-26.58-31.8-56.93-38.46-88.85l-29.72-142.41c0-8.19.89-15.22,2.58-21.24-1.52-10.68,0-21.72,6.82-33.25,12.19-20.63,52.63-28.18,70.32-10.01,1.13,1.16,2.11,2.42,2.97,3.77.01,0,.01.02.01.02,3.46,9.13,8.06,18.74,12.71,27.91,7.18,19.62,7.38,21.91,9.3,44.67,2.81,33.37-2.74,58.16-16.98,75.79-6.7,8.3-17.99,16.44-29.55,14.42-15.26-2.69-22.42-21.38-22.6-37.62-.06-5.1-.9-50.42-12.07-70.5-1.2-2.17-3.95-2.95-6.12-1.75-2.17,1.21-2.95,3.95-1.74,6.12,8.21,14.77,10.74,49.78,10.93,66.24.23,20.49,9.61,42.78,30.05,46.37,1.72.3,3.46.45,5.21.45,11.56,0,23.54-6.49,32.89-18.07,15.77-19.53,21.96-46.42,18.95-82.2-.26-3.11-.49-5.86-.72-8.34,5.77,17.86,5.71,28.73,5.63,41.32-.06,9.97-.12,21.27,3.06,37.13,2.42,12.11,7.27,29.24,21.27,38.16,5.54,3.52,12.18,5.3,19.17,5.3,5.5,0,11.21-1.1,16.76-3.33,13.26-5.31,22.95-15.69,25.93-27.77,3.82-15.5,6.07-28.84,7.24-40.48.14-1.35,1.49-2.21,2.77-1.77,6.43,2.2,13.8,3.87,22.17,4.84,8.54.99,48.1,20.57,62.76,28.33.93.5,1.36,1.6.99,2.59-3.27,8.82-9.45,26.42-11.53,47.45-2.83,28.77,3.02,53.33,17.39,73.01,1.47,2.01,4.28,2.45,6.29.98,2.01-1.47,2.44-4.28.98-6.29-20.47-28.03-21.82-66.36-3.99-113.9.83-2.22,1.21-3.24,1.39-4.01.45-1.91-.38-3.88-2.06-4.89-4-2.41-58.28-30.72-71.19-32.21-9.95-1.16-18.26-3.35-25.11-6.24-18.11-6.47-26.81-23.01-27.31-32.11-.5-9.13,4.02-16.62,10.99-18.22.79-.18,1.58-.36,2.36-.54l10.65-2.41s0,.05.03.08c39.49-8.38,71.71-12.23,82.73-12.23h.48c5.74.06,11.45,1.48,16.53,4.1,21.61,11.17,48.77,24.81,67.08,31.18,9.26,3.22,17.14,5.34,24.09,7.21,14.05,3.79,23.64,6.37,33.08,14.71-.18-.46-.28-.95-.29-1.47,1.2,1.33,2.41,2.75,3.63,4.28h0c.52.64,1.03,1.29,1.54,1.95.07.11.15.23.22.34.37.56.73,1.12,1.09,1.68.56.89,1.1,1.77,1.63,2.64.48.79.94,1.59,1.4,2.38,32.15,55.81,3.32,99.35-25.81,142.45Z"/>
</svg>