<?xml version="1.0" encoding="UTF-8"?>
<svg id="Calque_1" data-name="Calque 1" xmlns="http://www.w3.org/2000/svg" viewBox="0 0 850.39 850.39">
  <defs>
    <style>
      .cls-1 {
        fill: #d946e8;
      }
    </style>
  </defs>
  <path class="cls-1" d="M512.41,457.47c-1.5-19.73-5.33-43.26-10.43-65.37-.24,0-.48.01-.73.01-2.2-8.43-4.67-16.77-7.43-25.02-2.24-6.69-6.13-18.46-10.71-23.65-21.09-23.9-73.49-17.49-85.79,10.72-1.69,3.88-2.9,8-3.68,12.29l-.12.66h0c.14.39.28.78.41,1.17,1.68,9.9,4.73,21.24,8.46,32.7,6.39,19.64,14.78,39.63,21.69,53.33,7.92,15.7,6.52,34.11,5.17,51.9-.55,7.2-1.07,14-1,20.59.23,21.94,9.01,47.22,27.75,50.85,14.01,2.72,27.71-8.19,35.85-19.31,17.23-23.53,23.95-56.52,20.56-100.87ZM304.11,464.37l-.14-1.58c-1.91-22.72-2.2-26.22-10.19-47.88-.25-.67-.33-1.37-.25-2.04h0c-3.56-7.25-6.93-14.62-9.61-21.71,0-.01-.01-.02-.01-.03-.86-1.32-1.83-2.56-2.94-3.7-17.69-18.18-58.14-10.63-70.33,10-1.56,2.64-2.84,5.25-3.86,7.83-.01.02-.01.03-.01.04-1.3,16.29,8.15,32.52,17.36,48.34,1.7,2.92,3.46,5.95,5.08,8.87,7.24,13.01,6.64,27.65,6.06,41.8-.17,4.19-.34,8.53-.29,12.65.18,16.24,7.33,34.93,22.6,37.62,11.56,2.02,22.84-6.12,29.55-14.42,14.23-17.63,19.79-42.42,16.98-75.79ZM742.25,351.88c-13.6-20.1-57.08,1.25-75.57,18.04-18.49,16.8-25.65,42.08-31.3,66.02-2.12,9-4.24,18.2-6.94,27.15-2.96,14.44-11.01,33.22-26.56,35.01-37.94,4.35-49.16,8.19-66.66,22.83-.84.7-1.87,1.05-2.88,1.05-1.29,0-2.57-.55-3.46-1.62-1.59-1.9-1.34-4.74.57-6.34,19.01-15.89,31.68-20.31,71.4-24.86,10.14-1.16,16.4-16.21,18.81-28.11,3.7-110.08-.66-220.48-39.04-323.96-7.16-19.32-18.87-40.97-40.6-44.53-21.05-3.44-40.9,13.45-46.87,32.45-5.96,19.01-1.72,39.31,2.34,58.74,9.88,47.35,12.29,98.69,19.55,146.44,2.99,19.64,4.47,40.55,3.95,61.58-2.57.05-5.18.11-7.83.16,4.99,22.02,8.73,45.27,10.23,64.85,3.56,46.59-3.73,81.54-22.28,106.88-10.99,15-25.06,23.41-38.67,23.41-2.07,0-4.12-.19-6.15-.59-23.83-4.61-34.77-33.25-35.04-59.59-.07-6.98.48-14.29,1.02-21.36,1.26-16.57,2.57-33.7-4.23-47.17-1.77-3.51-3.82-7.83-6.01-12.73,3.95,20.22,8.77,48.03-4.01,99.88-2.97,12.08-12.66,22.46-25.92,27.77-5.56,2.23-11.27,3.33-16.77,3.33-6.99,0-13.63-1.78-19.16-5.3-14-8.92-18.85-26.05-21.28-38.15-3.18-15.87-3.11-27.17-3.05-37.14.07-12.61.14-23.51-5.68-41.45-.51-1.59-1.35-3.6-2.43-5.93.4,3.8.76,8.11,1.21,13.4l.14,1.58c3.01,35.78-3.19,62.67-18.95,82.2-9.35,11.58-21.33,18.07-32.89,18.07-1.75,0-3.49-.15-5.22-.45-20.43-3.59-29.81-25.88-30.04-46.37-.05-4.37.13-8.82.3-13.12.55-13.51,1.07-26.27-4.93-37.07-1.58-2.84-3.24-5.69-5-8.71-4.89-8.4-10.03-17.22-13.69-26.37-2.6,6.9-3.98,15.3-3.98,25.51l29.72,142.39c6.66,31.92,19.58,62.27,38.46,88.85,35.74,50.3,72.77,59.18,136.05,59.18l43.53.79c1.29.4,3.23.62,5.9.66,91.91,1.35,182.52-48.4,236.93-138.65,19.91-33.03,23.4-73.08,30.6-110.68,5.22-27.23,10.43-54.47,15.65-81.7,3.1-16.22,15.88-52.75,6.73-66.27ZM614.94,558.69c.08-.85-.89-1.48-1.61-1.73-.14.1-.29.19-.44.28-.65-.46-.2-.52.44-.28.79-.54,1.4-1.22,1.82-2-.07,1.24-.14,2.49-.21,3.73ZM400.86,445.63c-.66-3.4-1.29-6.61-1.82-9.8-.34-2.08-.72-4.57-1.15-7.37-1.06-6.97-5.78-26.96-5.78-26.96-4.87-21.96-12.45-44.61-24.76-51.96-16.95-10.12-62.63-3.46-74.89,15.53-2.21,3.42-3.25,7.83-3.42,12.91h0c4.21,15.32,14.35,34.72,22.15,49.66,5.45,10.45,9.76,18.7,11.53,24.16,6.27,19.32,6.19,31.44,6.12,44.27-.06,10.01-.12,20.35,2.88,35.32,3.34,16.67,8.83,26.95,17.28,32.33,7.45,4.74,17.82,5.19,27.75,1.21,10.42-4.17,18.29-12.44,20.54-21.57,12.66-51.42,7.62-77.1,3.57-97.73Z"/>
</svg>