<?xml version="1.0" encoding="UTF-8"?>
<svg id="Calque_1" xmlns="http://www.w3.org/2000/svg" version="1.1" viewBox="0 0 850.4 850.4">
  <!-- Generator: Adobe Illustrator 29.8.3, SVG Export Plug-In . SVG Version: 2.1.1 Build 3)  -->
  <defs>
    <style>
      .st0 {
        fill: #a3214b;
      }
    </style>
  </defs>
  <path class="st0" d="M278.6,470.2c-4.5,15.8-.5,31.8,3.4,47.3,1.2,4.7,2.4,9.5,3.3,14.2,3.8,18.9.3,42.3-16.2,49.1-12.4,5.1-27-1.7-36.4-9.7-12.5-10.6-21.9-25.3-28.4-44.3,0,0,0,0,0,0l-9.5-48.1s0,0,0,0l-1.3-20.4c-.5-17.1.3-34.2,2.6-51.1.7-5.7,1.7-11.6,4.6-16.4,5.8-9.6,17.5-15.9,32.1-17.2,16.1-1.5,31.8,3.7,40.1,13.1,7.9,8.9,11.9,18.3,13.6,28,.9,5.5,1.1,11.2.7,16.8-1,5.7-1.9,11.2-2.5,16.3-1.6,7.5-3.8,15.1-6,22.6h0Z"/>
  <path class="st0" d="M598.8,535.8l-2.2,87.9c-12,83.7-103.6,135.8-181.1,135.8h-28.7c-61,0-96.3-9.1-130.7-61.6-17.1-26-28.7-55.2-34.7-85.7l-11.3-57.1c5.2,8.2,11.2,15.2,18.2,21.2,8.2,7,20,13.2,31.8,13.2s8-.7,11.8-2.3c14.7-6,21.1-21.4,21.9-38,2.6,8,6,16.6,10,26,4.8,11.1,15.9,19.5,29.5,22.5,3.3.7,6.5,1,9.7,1,9.5,0,18.2-3.1,24.5-8.8,12-10.9,13.9-28.3,14.3-40.5.5-16.1-1.4-26.7-3.2-36.9-2.2-12.5-4.1-23.3-1.3-42.1.6-4.2,2-10.4,3.6-17.5,2.5-11.1,5.3-23.9,7-36.2.1-.7.2-1.4.3-2.2.1-.8.2-1.6.3-2.4l.6-5.9s0,0,0,0c0-.2,0-.4,0-.6-6.7-8.8-19.3-30.2-30.6-47.1-13.3-22.6-25.4-45.8-36.2-69.6-18.7-40.9-38.5-94.8-25.9-148.3,4-17.2,18.9-40.8,38.1-36.9,9,1.8,17.2,8.6,20.9,17.3,24.7,58.4,54.8,119.8,89.3,182.5.4.7.5.9,1.2,2-7.8,11.9-12.8,25.5-15,35.3-4.9,22.5,2.2,44.8,10.7,65.9.5,1.4,1.1,2.8,1.7,4.1l.7,1.8c8.5,20.7,17.3,42.2,14.8,64-.4,3.1-1,6.3-2,9.3-4.2,13.1-13.8,24.6-25,29.1-14.2,5.8-25.3,16.8-30.4,30.2-.4.9-.7,1.9-1.1,2.9-9.9,26.9.7,54.6,7.9,68.8.5.9.9,1.8,1.4,2.7.6,1.2,1.8,1.8,3.1,1.8s1.1-.1,1.6-.4c1.1-.6,1.8-1.7,1.8-2.9,0-.6-.1-1.2-.4-1.8-.5-.8-.9-1.7-1.3-2.5-6.7-13.1-16.5-38.8-7.5-63.2.4-1,.7-1.9,1-2.8,4.4-11.6,14-21.2,26.4-26.2,13.8-5.6,25.2-19.5,29.7-35.4.8-2.9,1.4-5.8,1.7-8.8,2.6-23.6-6.5-45.9-15.3-67.4l-.7-1.8c-.3-.7-.6-1.5-.9-2.2-8.4-20.6-15.7-42.5-11.1-63.6,2-8.9,6.7-20.9,13.1-31.3,5.2-8.5,11.5-15.9,18.3-19.5,4.5-2.4,8.6-2.9,12.5-1.4,9.9,3.8,18.6,26.2,24.5,41,1.9,4.7,3.5,8.8,4.9,12.1l9.8,21.3,17.9,39,5.2,11.4c2.9,6.3,39.5,74.3,37.8,118.4-1.4,35-5.1,68.7-17.1,100.3,0,.2-.1.4-.2.6-.3,1.6.6,3.3,2.2,3.9.4.2.8.2,1.2.2,1.4,0,2.8-.9,3.3-2.3,12-31.8,17.9-65.7,17.6-100.8,0-6.6-.4-13.3-.9-20-2.3-30.1-15.7-57.8-28.7-84.6-3-6.1-6-12.5-8.9-18.7l-3.6-7.9-24.8-53.9c.7-11.9.8-23.6.4-35-1.8-48.3,1.5-99.6-3-147.7-1.8-19.8-3.8-40.4,4.3-58.6,8.1-18.2,29.7-32.8,50.2-27,21.2,6,30.4,28.8,35.3,48.8,32.9,133.1,12.5,270.8-10.3,405.1h0Z"/>
  <path class="st0" d="M381.7,408.1c-.2,1.6-.4,3.2-.5,4.9-1.7,13.5-4.8,27.6-7.2,38.5-1.6,7.3-3,13.6-3.7,18-2.9,19.9-.8,31.8,1.4,44.4,1.7,9.9,3.5,20.1,3.1,35.5-.5,17.3-4.3,28.6-12,35.5-6.8,6.1-17.3,8.4-28,6.1-11.3-2.4-20.7-9.5-24.6-18.4-21.2-48.8-25.7-69.8-25.2-90.9,0-3.5,5.7-26,6.4-32.2,1.3-5.9,2.2-11.8,2.7-17.8,1-5.5,2.3-11.1,3.8-16.5,4.3-15.9,10.5-30.4,18.4-37.2,8.5-7.3,23.6-12.6,37.2-12.6s.6,0,.9,0c.7,0,27.4,41.9,27.4,42.7h0Z"/>
</svg>