<?xml version="1.0" encoding="UTF-8"?>
<svg id="Calque_1" data-name="Calque 1" xmlns="http://www.w3.org/2000/svg" viewBox="0 0 850.39 850.39">
  <defs>
    <style>
      .cls-1 {
        fill: #d946e8;
      }
    </style>
  </defs>
  <path class="cls-1" d="M371.24,451.71c-.67-3.4-1.3-6.61-1.82-9.8-.35-2.08-.73-4.57-1.15-7.37-1.47-9.64-8.02-36.25-8.02-36.25-4.87-18.76-11.95-36.36-22.52-42.67-16.96-10.12-62.63-3.46-74.9,15.53-2.2,3.41-3.25,7.81-3.42,12.88,2.7,9.84,7.85,21.37,13.25,32.32.47.96.95,1.92,1.43,2.87,2.55,5.09,5.12,10,7.47,14.5,5.46,10.45,9.77,18.7,11.53,24.16,6.27,19.32,6.2,31.44,6.12,44.27-.06,10.01-.12,20.35,2.88,35.32,3.34,16.67,8.83,26.95,17.28,32.33,7.45,4.74,17.82,5.19,27.75,1.21,10.42-4.17,18.29-12.44,20.54-21.57,12.67-51.42,7.63-77.1,3.58-97.73ZM807.87,513.29c-2.41-24.15-50.81-26.06-75.07-20.08-24.25,5.99-42.57,24.82-58.93,43.19-16.35,18.37-33.3,37.94-56.76,46.39-6.46,2.32-13.54,3.4-20.58,3.27l-.09-2.67c-.53-.02-1.07-.13-1.59-.35-25.38-10.92-87.29-9.72-112.3,25-.88,1.22-2.25,1.87-3.65,1.87-.91,0-1.83-.27-2.63-.84-2.02-1.46-2.47-4.27-1.02-6.29,28.02-38.92,92.8-39.49,120.87-28.93l-2.7-80.91c33.99-121.52,62.94-246.02,46.2-371.55-2.72-20.42-9.36-44.13-29.76-52.39-19.77-8.01-42.87,4.08-52.88,21.3-10.02,17.22-10.36,37.96-10.69,57.8-.82,48.37-9.8,98.97-13.26,147.15-2.17,30.18-8.4,62.5-19.48,92.49-11.12.03-23.28.4-36.39.62-15.66-57.11-44.16-171.55-58.91-295.92-1.2-10.16-7.52-20.19-17.09-25.16-18.91-9.81-41.35,8.24-51.52,26.29-25.96,46.1-24.34,100.81-16.82,151.89,5.97,40.65,15.28,80.82,27.79,120.07h0c.32.36.58.77.77,1.22l7.81,24.16s.01.03.02.05c.74,2.08,6.5,32.7,7.95,42.22.42,2.76.8,5.22,1.14,7.27.5,3.05,1.11,6.19,1.77,9.52,4,20.37,9.47,48.27-3.67,101.62-2.98,12.08-12.67,22.46-25.93,27.77-5.55,2.23-11.27,3.33-16.76,3.33-7,0-13.64-1.78-19.17-5.3-14-8.92-18.85-26.05-21.28-38.15-3.18-15.87-3.11-27.17-3.05-37.14.08-12.61.14-23.51-5.68-41.45-.28-.88-.67-1.89-1.14-3.02.3,3.07.58,6.49.92,10.47l.14,1.6c3.01,35.78-3.18,62.67-18.95,82.2-9.35,11.58-21.33,18.07-32.89,18.07-1.75,0-3.49-.15-5.21-.45-20.44-3.59-29.82-25.88-30.05-46.37-.18-15.34-.59-51.24-8.93-66.23-1.21-2.18-.43-4.92,1.75-6.12,2.16-1.21,4.91-.43,6.12,1.74,8.32,14.97,9.75,44.04,10.06,70.5.18,16.24,7.34,34.93,22.61,37.62,11.55,2.01,22.84-6.12,29.54-14.42,14.24-17.63,19.79-42.42,16.98-75.79l-.14-1.59c-1.85-22.05-2.18-25.99-9.5-46-3.49-6.96-6.89-14.12-9.75-21.09-4.19-10.21-13.6-17.49-24.6-18.37-18.02-1.45-38.42,6.48-46.48,20.11-3.96,6.7-6.13,13.23-6.96,19.63-4,7.71-6.17,17.67-6.17,30.46l36.77,176.17c47.86,99.46,85.8,114.25,167.46,114.25l32.98.6c71.69,23.23,154.66,14.9,229.16-29,33.22-19.59,55.34-53.16,79.56-82.81,17.53-21.48,35.07-42.95,52.61-64.43,10.45-12.79,39.07-38.85,37.45-55.09ZM578.85,538.12c.88-.36,1.61-.89,2.19-1.55.56-1.96,1.12-3.92,1.68-5.89.21,2.18-.34,4.37-1.68,5.89-.34,1.2-.69,2.39-1.03,3.59.26-.8-.52-1.62-1.16-2.04-.17.06-.34.13-.52.18-.53-.6-.06-.56.52-.18Z"/>
</svg>