<?xml version="1.0" encoding="UTF-8"?>
<svg id="Calque_1" xmlns="http://www.w3.org/2000/svg" version="1.1" viewBox="0 0 850.4 850.4">
  <!-- Generator: Adobe Illustrator 29.8.3, SVG Export Plug-In . SVG Version: 2.1.1 Build 3)  -->
  <defs>
    <style>
      .st0 {
        fill: #a3214b;
      }
    </style>
  </defs>
  <path class="st0" d="M279.6,448.2h0l.4.6c-.1-.2-.2-.4-.3-.6h0Z"/>
  <path class="st0" d="M337.5,262.4c-22.2,1.3-51.6,3.7-65,4.4,1.8-16.3,14.3-29.4,30.1-31,7.6-.8,15.3-1.2,22.8-1.5.2,0,.4,0,.6,0,11.2-.5,40.9-2.9,62.9-4.1,2.2-.1,4.4,0,6.5.6,6.3,1.6,11.7,5.8,14.8,11.7,0,0,20.4,29.7,29.7,44.2,1.2,2,2.5,3.9,3.7,5.8,2.8,4.4,4.4,9.8,4.5,15.3,0,3.7-.5,7.5-1.9,11-5.9,15.2-25,17.9-40.4,14.3-2.1-.5-4.1-1.1-6-1.8-1.8-.7-3.6-1.4-5.3-2.2-.8-1.3-1.6-2.6-2.4-3.9-10-16.1-31.8-49-31.8-49-3.4-6.5-9.1-11.2-15.8-13-2.2-.6-4.6-.8-7-.7h0Z"/>
  <path class="st0" d="M391.2,224.1c-12.8.7-28,1.9-41.2,2.8,5.9-7,14-11.6,23.3-12.6,8.2-.8,16.4-1.4,24.5-1.7,1.8,0,4.2-.2,7-.4,0,0,0,0,0,0,6.5.7,40.1,4.1,60,3,2.2-.1,4.4.1,6.5.6,6.3,1.6,11.7,5.8,14.8,11.7,0,0,20.4,29.7,29.7,44.2,1.2,2,2.5,3.9,3.7,5.8,2.8,4.4,4.3,9.8,4.5,15.2,0,3.7-.5,7.5-1.9,11-5.9,15.2-25,17.9-40.4,14.3-2.1-.5-4.1-1.1-6-1.8-1.7-.6-19.1-10.3-22.4-12-.4-4-1.4-7.5-3.5-11-1.3-2.1-2.6-4.3-3.9-6.4-10-16.1-31.8-49-31.8-49-3.4-6.5-9.1-11.2-15.8-13-2.2-.6-4.6-.8-7-.7h0Z"/>
  <path class="st0" d="M669,275c-4.6-6.9-13-11-21.1-11.2-47.4-1.3-96.6-2.1-136.5-6.6,34.7,35.7,15,60.6-6.1,67.4-8.6,2.8-20,.8-26.5-.8,0,0,0,0,0,0-2-.6-4-1.5-5.9-2.4l-19.4-9.9c-.1,3.4-.8,6.8-2,10-5.7,15.3-28.3,21.2-44.6,18.5,0,8.1.1,27.4-.6,32.8-.8,5.6-.1,7.7-3.3,7.5-2.2-.1-1.8-3.2-1.3-5.1.2-1,.4-2,.5-3.1l.5-33c-.2,0-.4-.1-.5-.1l-3.6-1.4c.9,3.1,1.2,6.4,1.2,10.1,0,4.1-.6,8.3-2,12.2-6.3,16.9-32,21.3-48.2,16.4-2-.6-4.3-1.5-6.7-2.6.3,2.7.6,6.9.6,11.1s.9,7.7-2.2,7.9c-2.2.2-2.2-3-2-4.9.1-1,.1-2.1,0-3.1l-1-13.2c-8.9-4.7-18.6-11.5-23-17-2.3-2.9-9.6-10.6-11.9-13.6-8.1,2.3-5.8,2.3-14.1,4.6.1,1.2.3,2.4.5,3.5,3.2,22.8,8.2,43,10.1,63.6.1,1.5-1,2.6-2.4,2.6s-.4,0-.6,0c-1-.2-1.7-1.1-1.8-2.1-2-22.1-8.1-45.4-11.4-67.6-.2-1.1-.3-2.1-.5-3.2,7.7-2.1,15.5-4.2,23-6.3,2.1,2.7,4.3,5.4,6.4,8,6.5,7.9,13.4,15,22.1,20.3,3.4,2.1,7.1,4,11.2,5.5,1.9.7,3.9,1.3,6,1.8,15.4,3.6,34.5.9,40.4-14.3,1.4-3.5,2-7.3,1.9-11-.1-5.5-1.7-10.9-4.5-15.3-1.2-1.9-2.4-3.8-3.7-5.8-9.3-14.5-29.7-44.2-29.7-44.2-3.1-5.8-8.5-10.1-14.8-11.7-2.1-.5-4.3-.7-6.5-.6-22,1.2-51.7,3.6-62.9,4.1-.2,0-.4,0-.6,0-7.6.3-15.2.8-22.8,1.5-17.1,1.7-30.2,16.8-30.4,34.8l-.3,30.9c-1.5,15.4-2.8,29.2-3.9,41.3h0c-.4,4.6-.9,10.3-1.4,15.5-.9,10.5-.9,21,.2,31.4l1.7,15.6,19.9,131.9c18.1,90.4,97.3,92,170.6,86.6,49.4-3.6,43.8,5.6,90.4-22.3,0,0,134.9-86.8,134.3-88.2.2,0,5.8-35.1,5.7-41.2-.3-14.2,3.3-44.6-3.2-60h0c-.8-1.3-1.7-2.5-2.7-3.5-17.5-16.8-44.6,9.1-59.2,29.4-3.6,5.1-5.7,12-7.2,19.2-12.4,3-24.5,7.8-36.1,12.6-5.4,2.2-10.8,4.5-16.3,6.7-3.4-4.1-5-9-7.6-13.3-.4-.6-3.4-4.3-6.1-7.5-3.8-4.5-8.7-8-14.2-9.9-15.9-5.6-36-5.4-51.1-1.9-1.3.3-2.7-.5-3-1.9s.5-2.7,1.9-3c17.6-4,41.6-3.9,59.3,4.3-.4-1.3-.7-2.6-1.1-3.9h0c-.1-.4-.2-.8-.3-1.2h0c-5.5-20.4-6-104.8-9.1-143.3,2.9.6,6.4,1.2,10.4,1.8,14.3,1.8,28.7,3.1,43.1,3.8,40.9,2.2,84.2-.3,118.7-23.1,13.5-8.9,26.2-27.2,17.1-40.8h0ZM279.6,448.2h0c.1.2.2.4.3.6l-.4-.6h0ZM469.5,331.9c0,0,0-.1,0-.2v.2Z"/>
  <path class="st0" d="M279.7,448.2c.1.2.2.4.3.6l-.4-.6h0Z"/>
  <path class="st0" d="M469.6,331.6v.2c0,0,0-.1,0-.2Z"/>
</svg>