<?xml version="1.0" encoding="UTF-8"?>
<svg id="Calque_1" xmlns="http://www.w3.org/2000/svg" version="1.1" viewBox="0 0 850.4 850.4">
  <!-- Generator: Adobe Illustrator 29.8.3, SVG Export Plug-In . SVG Version: 2.1.1 Build 3)  -->
  <defs>
    <style>
      .st0 {
        fill: #a3214b;
      }
    </style>
  </defs>
  <path class="st0" d="M688.1,568.2c7,40.2-15.7,74.4-38.7,108.3-3.7,9.9-8.3,19.3-13.8,28-2.5,3.5-5,7-7.5,10.5-.3.4-.5.8-.6,1.2-31.2,40.8-81.6,64.7-136.3,64.7l-54.6-1c-81.6,0-119.1-18.7-167-118.2l-31.8-80.5c-27.2-39.6-49.5-82.2-66.4-126.7-14.4-37.9-24.8-79.5-12.2-118.9,4.9-15.4,19.3-32.7,35.7-28.1,8.3,2.3,14.9,9,17.5,16.6,19.3,55.6,41.8,107.7,61.5,149.4,8.3-6.4,17.5-12,27.4-16.8-19.5-43-34.5-87.8-44.8-133.7-10.1-45.5-15.1-94.6,5.5-137.7,8.1-16.9,27.3-34.6,45.1-26.9,9,3.9,15.4,12.5,17.2,21.6,20.6,106.8,52.2,204.6,70.6,256.7l46.9-4.6c-14.7-54.6-23.2-110.6-25.5-166.8-2.1-51.6,2.1-106.2,32.8-149.3,12-16.9,36.2-32.5,54-20.7,9,5.9,14.2,16.6,14.4,26.8,1.5,126.3,18.1,244,27.6,301.9,15.4-.3,29.4-.7,41.9-.3,13.2-33,20.2-69.4,22.2-103.1,2.8-48.2,11.2-98.9,11.3-147.3,0-19.9.2-40.6,9.9-57.9,9.8-17.3,32.7-29.7,52.6-22,20.5,8,27.5,31.6,30.4,52,18.5,125.9-5.3,253.8-37.6,376.6-7.6-9.3-14.8-14.5-22.7-18.2-6.8-3.1-14-5.1-22.5-7.4-6.8-1.8-14.5-3.9-23.5-7-12.1-4.2-28.9-12.1-44.6-19.9-4.1-2-8.1-4.1-12-6-3.2-1.6-6.4-3.3-9.3-4.8-6.3-3.3-13.4-5-20.6-5.1h-.5c-10,0-36.3,3-69.4,9.3-9,1.7-18.6,3.7-28.5,6-6.8,1.5-12.1,6.2-15.2,12.5h0c-.5,1.1-1,2.2-1.3,3.3-1.2,3.5-1.7,7.5-1.5,11.6,1,17.3,15.4,38.8,52.5,45.6,2.5.5,5.2.8,7.9,1.2,3.2.4,10.8,3.4,19.8,7.4,15.9,7.1,36.3,17.3,44.6,21.8-1.3,3.6-3.5,9.3-5.6,16.4-15,43.4-3.6,86.1,10.8,105.8,1.5,2,4.3,2.5,6.3,1,2-1.5,2.4-4.3,1-6.3-9-12.3-14.3-26.6-15.9-42.8-2.1-20.5,1.8-44,11.6-70.4,0-.3.2-.5.3-.8.8-2.2,1.2-3.2,1.4-4,.4-1.9-.4-3.9-2.1-4.9-.7-.4-2.7-1.5-5.8-3.1-7.7-4-21.6-11.2-34.9-17.3-4.8-2.2-9.6-4.4-13.9-6.2-7.2-3-13.3-5.2-16.6-5.6-14.9-1.7-26.1-5.8-34.3-11-8.1-7.8-14.9-16.5-17.9-24.9-.1-.8-.2-1.6-.2-2.4-.5-9.1,4-16.6,11-18.2,10.2-2.3,20.1-4.4,29.4-6.2,31.2-6,56-8.8,65.8-8.9.2,0,.3,0,.5,0h.5c2.6,0,5.2.3,7.8.9h0c5.3,2.5,11.1,5.2,17.2,7.9,2.3,1,4.7,2.1,7,3.2,0,0,0,0,0,0,1.5.8,3.1,1.6,4.7,2.4,16.6,8.3,33.9,16.4,46.8,20.9,9.3,3.2,17.1,5.4,24.1,7.2,10.2,2.7,18,4.9,25.1,9,5.2,3,10,7,15,13.1,1.4,1.7,2.9,3.7,4.4,5.8.1.2.2.3.3.5,1.4,2.3,2.7,4.8,3.9,6.9.3.6.6,1.2.9,1.8h0c4.7,9,8,17.7,10,26.1h0Z"/>
</svg>