<?xml version="1.0" encoding="UTF-8"?>
<svg id="Calque_1" data-name="Calque 1" xmlns="http://www.w3.org/2000/svg" viewBox="0 0 850.39 850.39">
  <defs>
    <style>
      .cls-1 {
        fill: #d946e8;
      }
    </style>
  </defs>
  <path class="cls-1" d="M604.71,142.05c-7.16-19.31-18.88-40.97-40.6-44.52-21.05-3.45-40.9,13.44-46.87,32.45-5.96,19-1.72,39.31,2.33,58.74,9.88,47.35,12.3,98.68,19.56,146.44,2.73,17.96,4.2,37,4.03,56.21-.02,3-2.41,5.44-5.41,5.5-2.57.06-5.18.11-7.83.16l8.73,43.1c6.15,2.49,12.42,5.22,18.6,7.92,11.92,5.19,23.18,10.1,32.88,13.03,9.11,2.75,16.92,4.51,23.81,6.07,11.71,2.64,21.15,4.77,30.23,10.23l-.4-11.93c3.67-109.9-.74-220.09-39.06-323.4ZM400.51,473.28c-2.2-8.38-1.01-16.27,3.45-22.8.43-.64,1.05-1.11,1.78-1.35,2.21-.74,4.71-1.47,7.43-2.18,2.73-.71,5.69-1.41,8.83-2.09.01,0,.03,0,.04,0,.17-.04.34-.07.51-.11-.08-.48-.15-.98-.23-1.48-3.62-23.76-11.17-73.2-29.23-83.98-2.46-1.47-5.57-2.54-9.11-3.25-3.55-.72-7.52-1.06-11.71-1.06-18.72,0-41.7,6.89-49.35,18.73-9.43,14.59,6.28,53.14,15.66,76.18,2.81,6.9,5.24,12.86,6.63,17.17,6.22,19.17,6.14,31.21,6.07,43.96-.06,10.06-.12,20.46,2.9,35.52,3.4,16.96,9.03,27.44,17.73,32.98,7.71,4.91,18.42,5.39,28.65,1.29,10.71-4.29,18.81-12.82,21.14-22.26,4.86-19.74,7.13-35.7,7.84-49.05-12.62-8.5-25.22-21.77-29.03-36.21Z"/>
  <path class="cls-1" d="M660.5,620.86s-.02.04-.03.06c-7.36,13.06-15.92,25.82-24.23,38.5-26.77,58.72-87.26,94.26-154.01,94.26l-54.56-.98c-63.28,0-100.31-8.89-136.05-59.18-18.89-26.58-31.8-56.94-38.46-88.86l-28.32-135.67c-15.07-45.57-24.63-92.61-28.44-139.97-3.25-40.41-1.65-83.28,21.3-117.57,8.99-13.42,27.68-26.03,42.1-17.09,7.31,4.52,11.78,12.78,12.19,20.8,3.61,69.48,12.94,135.55,21.4,184.42.7,4.03,4.14,7.02,8.23,7.12,4.68.11,9.49.3,14.41.54,3.77,15.1,10.44,31.47,16.06,45.28,2.76,6.77,5.15,12.62,6.46,16.69,5.87,18.09,5.8,29.06,5.73,41.76-.06,10.41-.13,21.17,3.03,36.93,2.39,11.93,7.16,28.8,20.84,37.51,5.37,3.42,11.82,5.15,18.62,5.15,5.37,0,10.96-1.08,16.4-3.26,12.96-5.19,22.43-15.32,25.32-27.08,4.52-18.32,6.83-33.63,7.75-46.65l6.09,2.92-.16,2.09c-.42,5.72-.81,11.81-.75,17.79.28,25.94,10.97,54.12,34.23,58.62,1.99.39,3.99.58,6,.58,7.53,0,15.21-2.66,22.6-7.88.26-.17.51-.35.77-.54-.07,5.06.56,10.09,1.91,14.93l.07.27c.27.93.53,1.9.82,2.85.23.83.48,1.65.75,2.46.6,1.84,2.59,2.84,4.42,2.23.03,0,.07-.02.1-.04,1.77-.63,2.72-2.57,2.13-4.37-.24-.73-.46-1.46-.68-2.22-.28-.96-.54-1.89-.8-2.8l-.07-.26c-1.74-6.28-2.1-12.93-1.14-19.5.41-2.83,1.06-5.64,1.96-8.41,1.26-3.9,2.99-7.71,5.19-11.32,2.14-3.53,3.81-7.45,4.96-11.71.34-1.25.64-2.53.89-3.83l.48-2.51-2.24-1.22c-4.71-2.58-9.5-5.07-14.13-7.48l-1.5-.78c-6.79-3.55-14.75-7.81-22.28-12.57l-.78-.49-.92-.05c-8.43-.4-23.62-4.44-34.47-8.46-1.22-.45-2.38-.9-3.48-1.35-.27-.11-3.88-2.09-5.15-2.71-1.45-.71-9.79-5.88-11.27-6.75-10.28-7.78-19.63-18.62-22.51-29.57-1.4-5.3-1.09-10.13.92-14.39.52-1.1,1.51-1.9,2.67-2.25,3.74-1.11,8.06-2.18,12.78-3.21,0,0,0,.03,0,.04,2.79-.57,9.39-1.91,10.4-2.09,1.04-.19,2.08-.37,3.14-.56,33.72-5.86,76.82-9.26,81.02-8.24,4.47,1.28,9.22,2.95,14.13,4.84,0,0,3.09.75,3.09.76,1.43.57,2.85,1.15,4.29,1.75,4.88,2.03,9.84,4.19,14.72,6.32,12.12,5.28,23.56,10.27,33.66,13.32,9.35,2.83,17.29,4.62,24.29,6.2,13.38,3.02,22.8,5.15,32.05,11.95,4.75,3.48,9.44,8.2,14.61,14.9,1.44,2.19,2.85,4.48,4.19,6.82,24.36,42.35,15.12,78.86-2.75,113.21Z"/>
  <path class="cls-1" d="M506.4,540.43l-1.5-.79c-6.69-3.49-14.5-7.67-22.01-12.37-8.76-.63-22.82-4.28-33.74-8.15-.4,5.55-.79,11.47-.73,17.18.24,22.34,9.28,48.09,28.56,51.82,10.63,2.06,20.11-3.42,26.19-8.38.97-.78,1.92-1.61,2.85-2.49,1.3-6.91,3.89-13.67,7.68-19.92,1.94-3.19,3.41-6.79,4.41-10.74-3.91-2.1-7.86-4.16-11.71-6.16ZM506.4,540.43l-1.5-.79c-6.69-3.49-14.5-7.67-22.01-12.37-8.76-.63-22.82-4.28-33.74-8.15-.4,5.55-.79,11.47-.73,17.18.24,22.34,9.28,48.09,28.56,51.82,10.63,2.06,20.11-3.42,26.19-8.38.97-.78,1.92-1.61,2.85-2.49,1.3-6.91,3.89-13.67,7.68-19.92,1.94-3.19,3.41-6.79,4.41-10.74-3.91-2.1-7.86-4.16-11.71-6.16ZM523.39,399.74c-2.2-8.44-4.68-16.79-7.36-24.8l-.13-.38c-2.04-6.12-5.86-17.52-9.88-22.08-7.61-8.6-20.77-13.51-35.18-13.51-3.31,0-6.69.26-10.09.79-16.72,2.64-29.69,11.06-34.69,22.54-5.11,11.71-5.91,26.86-2.39,45.01,2.07,10.72,3.44,22.25,5.66,35.7l5.11-.58c28.89-5.17,65.5-8.77,80.02-8.77h.03c2.74,0,4.69.13,5.65.4,3.56,1.01,7.27,2.26,11.07,3.66-1.96-12.77-4.58-25.53-7.82-37.98ZM636.98,562.21c.16-.09.31-.18.45-.29-.64-.24-1.11-.18-.45.29ZM506.4,540.43l-1.5-.79c-6.69-3.49-14.5-7.67-22.01-12.37-8.76-.63-22.82-4.28-33.74-8.15-.4,5.55-.79,11.47-.73,17.18.24,22.34,9.28,48.09,28.56,51.82,10.63,2.06,20.11-3.42,26.19-8.38.97-.78,1.92-1.61,2.85-2.49,1.3-6.91,3.89-13.67,7.68-19.92,1.94-3.19,3.41-6.79,4.41-10.74-3.91-2.1-7.86-4.16-11.71-6.16ZM506.4,540.43l-1.5-.79c-6.69-3.49-14.5-7.67-22.01-12.37-8.76-.63-22.82-4.28-33.74-8.15-.4,5.55-.79,11.47-.73,17.18.24,22.34,9.28,48.09,28.56,51.82,10.63,2.06,20.11-3.42,26.19-8.38.97-.78,1.92-1.61,2.85-2.49,1.3-6.91,3.89-13.67,7.68-19.92,1.94-3.19,3.41-6.79,4.41-10.74-3.91-2.1-7.86-4.16-11.71-6.16ZM506.4,540.43l-1.5-.79c-6.69-3.49-14.5-7.67-22.01-12.37-8.76-.63-22.82-4.28-33.74-8.15-.4,5.55-.79,11.47-.73,17.18.24,22.34,9.28,48.09,28.56,51.82,10.63,2.06,20.11-3.42,26.19-8.38.97-.78,1.92-1.61,2.85-2.49,1.3-6.91,3.89-13.67,7.68-19.92,1.94-3.19,3.41-6.79,4.41-10.74-3.91-2.1-7.86-4.16-11.71-6.16Z"/>
</svg>