<?xml version="1.0" encoding="UTF-8"?>
<svg id="Calque_1" data-name="Calque 1" xmlns="http://www.w3.org/2000/svg" viewBox="0 0 850.39 850.39">
  <defs>
    <style>
      .cls-1 {
        fill: #d946e8;
      }
    </style>
  </defs>
  <path class="cls-1" d="M646.41,504.68c-2.67-2.08-5.34-3.8-8.05-5.26-8.49-4.56-17.4-6.57-28.24-9.02-6.88-1.55-14.67-3.31-23.74-6.05-12.5-3.77-29.99-11.1-46.23-18.35-2.1-.95-4.18-1.88-6.23-2.81-5.19-2.35-10.15-4.65-14.67-6.75-6.44-3-13.61-4.47-20.75-4.26-9.52.29-35.98,4.33-69.34,12.2-2.85.67-5.75,1.37-8.7,2.09-.05-.28-.09-.56-.14-.84-.34-2.06-.72-4.51-1.14-7.27-1.01-6.58-2.27-14.86-3.94-23.74-.95-2.61-8.72-31.43-16.93-64.18-8.2-32.75-16.84-69.44-19.53-87.77-7.52-51.07-9.14-105.79,16.82-151.88,10.16-18.06,32.61-36.1,51.51-26.29,9.57,4.97,15.9,15,17.1,25.16,14.75,124.37,43.25,238.81,58.9,295.92,13.11-.22,25.27-.59,36.4-.62,11.08-29.99,17.31-62.32,19.48-92.5,3.46-48.18,12.44-98.78,13.25-147.14.34-19.85.68-40.59,10.7-57.81,10.01-17.22,33.1-29.3,52.88-21.3,20.4,8.27,27.04,31.97,29.76,52.39,15.58,116.77-8.4,232.66-39.17,346.08Z"/>
  <path class="cls-1" d="M658.34,532.37c-1.2-2.02-2.55-4.3-4-6.52h0c-3.68-4.54-7.19-8.13-10.69-11.04-1.63-1.36-3.25-2.56-4.89-3.64l-.03-.98c-8.79-6.09-17.88-8.15-30.59-11.01-7.01-1.59-14.97-3.38-24.35-6.21-13.27-4-31.22-11.54-48.44-19.26-1.67-.76-3.34-1.51-5-2.26-5.13-2.33-10.14-4.64-14.89-6.85-2.52-1.17-5.18-2.06-7.91-2.63-.01-.01-.02-.01-.03-.01-.79-.17-1.58-.31-2.38-.42h-.01c-2.1-.31-4.23-.43-6.35-.36-2.45.07-6.08.41-10.72,1.01h-.01c-12.43,1.62-32.05,5.14-55.33,10.59-3.45.81-6.98,1.66-10.58,2.55-2.87.71-5.79,1.45-8.74,2.22-.35.09-.69.18-1.03.27-3.01.78-6.05,1.59-9.13,2.43-1.04.28-2.01.69-2.92,1.22,0,.01-.01.01-.01.01-5.12,3-8.04,9.69-7.29,17.42.97,10.11,8.16,21.82,24.34,29.19.25.11.5.23.75.34,1.73.76,3.56,1.47,5.49,2.12h.01c.81.29,1.64.55,2.49.8,6.01,1.82,12.94,3.11,20.88,3.7,12.96.96,68.36,27,72.46,29.24,1.71.94,2.63,2.88,2.26,4.8-.15.78-.49,1.81-1.23,4.06-9.64,29.37-12.33,55.03-8.08,76.74t.01.02c2.73,13.95,8.32,26.27,16.77,36.89,1.55,1.94,1.23,4.77-.72,6.32-1.94,1.55-4.77,1.23-6.32-.72-15.17-19.07-22.03-43.37-20.39-72.22.1-1.83.24-3.64.41-5.42v-.06c.1-2.86.44-5.72,1.01-8.53,0-.01,0-.02.01-.03,2.25-15.56,6.25-28.15,8.44-34.82.08-.27.17-.53.25-.78-3.41-1.66-8.75-4.15-14.98-6.95-.03-.01-.07-.03-.1-.05-8.29-3.73-18.13-8.01-27.01-11.61h-.02c-10.6-4.3-19.83-7.63-23.44-7.9-1.16-.09-2.29-.19-3.41-.3t-.02-.01c-6.5-.65-12.38-1.76-17.68-3.25-1.26,10.63-3.4,22.62-6.77,36.29-2.54,10.29-9.94,19.33-20.26,25.08h-.01c-1.8,1.01-3.69,1.91-5.66,2.7-5.55,2.22-11.27,3.33-16.76,3.33-6.99,0-13.64-1.79-19.17-5.31-14-8.91-18.85-26.04-21.27-38.15-1.38-6.89-2.16-12.93-2.58-18.36,0-.02,0-.05,0-.07-.54-7.05-.5-13.09-.47-18.71.02-2.94.04-5.79-.02-8.66-.63-7.4-2.1-15.6-5.46-25.96-.51-1.57-1.17-3.38-1.94-5.4.17,1.87.34,3.87.52,6.04l.14,1.58c3.01,35.79-3.18,62.68-18.95,82.2-4.65,5.77-9.97,10.28-15.55,13.35-5.63,3.09-11.53,4.73-17.34,4.73-1.75,0-3.49-.15-5.21-.45-18.24-3.21-27.68-21.31-29.65-39.74-.24-2.22-.37-4.44-.4-6.64-.01-.53-.01-1.09-.02-1.67l-1.81-35.8c-1.25-11.29-3.39-22.09-7.1-28.76-1.21-2.17-.43-4.91,1.75-6.12,2.17-1.21,4.91-.43,6.12,1.74,8.32,14.97,9.75,44.04,10.06,70.51.18,16.23,7.34,34.93,22.61,37.61,11.55,2.03,22.84-6.11,29.54-14.41,12.65-15.67,18.44-36.99,17.61-64.95-.07-1-.15-2.01-.23-3.01-1.87-22.16-6.51-44.1-13.79-65.21,0-.01-.01-.02-.01-.03s-.01-.02-.01-.03c-.45-.92-.87-1.85-1.3-2.78-2-4.36-3.85-8.72-5.46-12.97-.86-1.34-1.84-2.6-2.97-3.76-17.69-18.17-58.14-10.63-70.32,10.01-9.51,16.09-8.72,31.21-3.76,45.75-.95,4.86-1.44,10.3-1.44,16.38l30.2,144.71c5.42,25.96,15.2,50.85,29.23,73.36,38.61,61.96,76.34,72.35,144.8,72.35l54.56.99c56.63,0,108.75-25.58,139.59-69.19-.55-1.32-.47-2.88.37-4.17,4.09-6.36,8.36-12.76,12.49-18.95.02-.03.08-.12.16-.25,2.57-4.05,33.65-53.9,40.58-75.36.01-.03.02-.06.03-.09,7.39-25.41,6.21-52.06-11.51-81.85ZM625.97,577.38c.26-.81-.52-1.63-1.17-2.05-.16.07-.33.13-.51.18-.54-.6-.07-.55.51-.18.89-.35,1.62-.88,2.2-1.54-.34,1.2-.69,2.39-1.03,3.59Z"/>
  <path class="cls-1" d="M416.51,537.52c-1.19,10.69-3.34,22.92-6.83,37.09-2.25,9.13-10.12,17.4-20.54,21.57-9.93,3.98-20.3,3.53-27.75-1.21-8.45-5.38-13.94-15.65-17.28-32.33-3-14.96-2.94-25.31-2.88-35.31.08-12.84.15-24.96-6.11-44.28-1.77-5.46-6.08-13.71-11.54-24.16-3.65-6.99-7.82-14.96-11.65-23.03-4.34-9.19-8.27-18.5-10.5-26.66.17-5.06,1.22-9.46,3.42-12.88,12.27-18.99,57.94-25.64,74.9-15.52,12.85,7.67,20.54,31.99,25.37,54.81,2.67,12.56,4.46,24.67,5.78,33.29-3.31.86-6.65,1.75-10.04,2.67-11.2,3.06-18.12,14.65-16.81,28.2,1.29,13.38,10.82,28.99,32.46,37.75Z"/>
</svg>