<?xml version="1.0" encoding="UTF-8"?>
<svg id="Calque_1" data-name="Calque 1" xmlns="http://www.w3.org/2000/svg" viewBox="0 0 850.39 850.39">
  <defs>
    <style>
      .cls-1 {
        fill: #d946e8;
      }
    </style>
  </defs>
  <path class="cls-1" d="M779.83,574.21c-17.54,21.48-35.08,42.95-52.62,64.43-24.21,29.65-46.33,63.22-79.56,82.81-54.21,31.95-112.92,45.06-168.5,40.87-7.6,1.03-15.33,1.56-23.14,1.56l-54.55-1.07c-81.66,0-119.14-20.29-167-128.16l-22.5-61.82c-.28-.39-.57-.78-.85-1.17-31.17-43.06-56.43-89.85-75.04-138.97-14.37-37.92-24.76-79.53-12.26-118.85,4.9-15.4,19.34-32.71,35.68-28.14,8.28,2.31,14.87,9,17.5,16.59,17.08,49.23,36.71,95.73,54.61,134.7,7.88-7.56,16.77-14.27,26.41-20.05-15.74-37.47-28.1-76.21-36.89-115.7-10.12-45.48-15.13-94.59,5.5-137.71,8.07-16.89,27.31-34.55,45.13-26.92,9.02,3.87,15.41,12.49,17.16,21.55,17.83,92.32,43.87,177.86,62.44,233.01,1.1-.02,2.2-.03,3.3-.03l45.73-4.86c-10.99-46.96-17.53-94.82-19.46-142.84-2.08-51.58,2.08-106.16,32.76-149.26,12.02-16.88,36.24-32.46,54.01-20.7,8.99,5.95,14.22,16.59,14.34,26.82,1.35,110.03,14.06,213.57,23.61,276.72,20.71-.41,38.99-1.14,54.46.01,7.71-25.85,12.05-52.81,13.55-78.23,2.84-48.22,11.16-98.93,11.35-147.3.08-19.85.16-40.6,9.95-57.94,9.79-17.35,32.72-29.74,52.6-21.99,20.5,8,27.45,31.62,30.44,52,19.23,131.16-7.35,264.53-41.67,391.89-3.6,13.36-9.65,42.65-13.81,64.88-27.1-11.23-93.94-11.43-122.54,28.27-1.45,2.02-.99,4.83,1.03,6.29.79.57,1.71.84,2.62.84,1.4,0,2.78-.65,3.66-1.87,25-34.72,86.91-35.92,112.29-25,.43.18.87.29,1.31.34-.08.38-.14.76-.21,1.14.39-.09.77-.19,1.16-.28,1.59-.42,3.16-.9,4.69-1.45,23.45-8.45,40.4-28.02,56.76-46.39,16.36-18.37,34.68-37.2,58.93-43.19,24.25-5.98,72.66-4.07,75.06,20.08,1.62,16.24-26.99,42.3-37.44,55.09Z"/>
</svg>