<?xml version="1.0" encoding="UTF-8"?>
<svg id="Calque_1" xmlns="http://www.w3.org/2000/svg" version="1.1" viewBox="0 0 850.4 850.4">
  <!-- Generator: Adobe Illustrator 29.8.3, SVG Export Plug-In . SVG Version: 2.1.1 Build 3)  -->
  <defs>
    <style>
      .st0 {
        fill: #a3214b;
      }
    </style>
  </defs>
  <path class="st0" d="M371.2,451.7c-.7-3.4-1.3-6.6-1.8-9.8-.4-2.1-.7-4.6-1.1-7.4-1.5-9.6-8-36.2-8-36.2-4.9-18.8-12-36.4-22.5-42.7-17-10.1-62.6-3.5-74.9,15.5-2.2,3.4-3.2,7.8-3.4,12.9,2.7,9.8,7.9,21.4,13.2,32.3.5,1,1,1.9,1.4,2.9,2.5,5.1,5.1,10,7.5,14.5,5.5,10.5,9.8,18.7,11.5,24.2,6.3,19.3,6.2,31.4,6.1,44.3,0,10-.1,20.4,2.9,35.3,3.3,16.7,8.8,27,17.3,32.3,7.5,4.7,17.8,5.2,27.8,1.2,10.4-4.2,18.3-12.4,20.5-21.6,12.7-51.4,7.6-77.1,3.6-97.7ZM807.9,513.3c-2.4-24.1-50.8-26.1-75.1-20.1-24.2,6-42.6,24.8-58.9,43.2-16.3,18.4-33.3,37.9-56.8,46.4-6.5,2.3-13.5,3.4-20.6,3.3v-2.7c-.6,0-1.2-.1-1.7-.3-25.4-10.9-87.3-9.7-112.3,25-.9,1.2-2.2,1.9-3.6,1.9s-1.8-.3-2.6-.8c-2-1.5-2.5-4.3-1-6.3,28-38.9,92.8-39.5,120.9-28.9l-2.7-80.9c34-121.5,62.9-246,46.2-371.5-2.7-20.4-9.4-44.1-29.8-52.4-19.8-8-42.9,4.1-52.9,21.3-10,17.2-10.4,38-10.7,57.8-.8,48.4-9.8,99-13.3,147.2-2.2,30.2-8.4,62.5-19.5,92.5-11.1,0-23.3.4-36.4.6-15.7-57.1-44.2-171.6-58.9-295.9-1.2-10.2-7.5-20.2-17.1-25.2-18.9-9.8-41.4,8.2-51.5,26.3-26,46.1-24.3,100.8-16.8,151.9,6,40.6,15.3,80.8,27.8,120.1h0c.3.4.6.8.8,1.2l7.8,24.2s0,0,0,0c.7,2.1,6.5,32.7,8,42.2.4,2.8.8,5.2,1.1,7.3.5,3,1.1,6.2,1.8,9.5,4,20.4,9.5,48.3-3.7,101.6-3,12.1-12.7,22.5-25.9,27.8-5.5,2.2-11.3,3.3-16.8,3.3s-13.6-1.8-19.2-5.3c-14-8.9-18.9-26-21.3-38.2-3.2-15.9-3.1-27.2-3-37.1,0-12.6.1-23.5-5.7-41.5-.3-.9-.7-1.9-1.1-3,.3,3.1.6,6.5.9,10.5v1.6c3.2,35.8-3,62.7-18.8,82.2-9.4,11.6-21.3,18.1-32.9,18.1s-3.5-.2-5.2-.5c-20.4-3.6-29.8-25.9-30.1-46.4-.2-15.3-.6-51.2-8.9-66.2-1.2-2.2-.4-4.9,1.8-6.1,2.2-1.2,4.9-.4,6.1,1.7,8.3,15,9.8,44,10.1,70.5.2,16.2,7.3,34.9,22.6,37.6,11.6,2,22.8-6.1,29.5-14.4,14.2-17.6,19.8-42.4,17-75.8v-1.6c-2-22-2.3-26-9.6-46-3.5-7-6.9-14.1-9.8-21.1-4.2-10.2-13.6-17.5-24.6-18.4-18-1.5-38.4,6.5-46.5,20.1-4,6.7-6.1,13.2-7,19.6-4,7.7-6.2,17.7-6.2,30.5l36.8,176.2c47.9,99.5,85.8,114.2,167.5,114.2l33,.6c71.7,23.2,154.7,14.9,229.2-29,33.2-19.6,55.3-53.2,79.6-82.8,17.5-21.5,35.1-43,52.6-64.4,10.5-12.8,39.1-38.8,37.5-55.1h0ZM578.8,538.1c.9-.4,1.6-.9,2.2-1.5.6-2,1.1-3.9,1.7-5.9.2,2.2-.3,4.4-1.7,5.9-.3,1.2-.7,2.4-1,3.6.3-.8-.5-1.6-1.2-2-.2,0-.3.1-.5.2-.5-.6,0-.6.5-.2h0Z"/>
</svg>