<?xml version="1.0" encoding="UTF-8"?>
<svg id="Calque_1" xmlns="http://www.w3.org/2000/svg" version="1.1" viewBox="0 0 850.4 850.4">
  <!-- Generator: Adobe Illustrator 29.8.3, SVG Export Plug-In . SVG Version: 2.1.1 Build 3)  -->
  <defs>
    <style>
      .st0 {
        fill: #a3214b;
      }
    </style>
  </defs>
  <path class="st0" d="M658.5,477.3c-1.3-2.2-2.7-4.5-4.2-6.7-15-19.5-26-22-46.1-26.5-7-1.6-15-3.4-24.4-6.2-18.6-5.6-46.3-18.1-68.3-28.4-5.2-2.4-11-3.6-16.7-3.4-11.7.4-50.1,6.7-95.5,19.1-6.9,1.9-11.1,9.5-10.2,18.6,1.4,14.9,16.4,33.4,54,36.1,13,1,68.4,27,72.4,29.2,1.7.9,2.6,2.9,2.3,4.8-.2.8-.5,1.8-1.2,4.1-15.8,48.2-12.9,86.5,8.7,113.7,1.5,1.9,1.2,4.8-.7,6.3-2,1.5-4.8,1.2-6.3-.7-14-17.5-20.9-39.5-20.6-65.3-6.2,3.8-13.1,6.2-20.3,6.2s-4-.2-6.1-.6c-3.9-.8-7.4-2.1-10.6-4,0,0,0,0,0,0,0,0,0,0,0,0-.7-.4-1.4-.8-2.1-1.2-.6-.3-1.1-.7-1.6-1.1-.2-.1-.4-.3-.6-.4-.1,0-.3-.2-.4-.3,0,0,0,0,0,0,0,0,0,0-.1,0h0c-.4-.3-.8-.7-1.2-1,0,0-.2-.2-.3-.2-.2-.2-.3-.3-.5-.4-.2-.2-.4-.4-.6-.6-.2-.2-.5-.5-.7-.7s-.5-.5-.7-.7c-.1-.1-.2-.2-.3-.4,0,0-.1-.1-.2-.2,0,0-.1-.2-.2-.2-.3-.3-.6-.6-.8-1-.3-.3-.5-.6-.8-1-.1-.2-.3-.4-.5-.6-.1-.2-.3-.4-.4-.6-.2-.3-.5-.6-.7-1-.3-.5-.6-1-1-1.5-.2-.3-.4-.6-.6-1-.2-.3-.4-.6-.6-1,0,0,0,0,0,0-.4-.6-.7-1.2-1-1.9h0c-.1-.2-.2-.5-.4-.7-.1-.2-.2-.5-.3-.7,0,0,0-.2-.1-.3-.2-.4-.4-.8-.5-1.2,0-.2-.2-.4-.2-.6-.2-.4-.4-.8-.5-1.2,0-.2-.2-.4-.2-.6,0,0,0,0,0-.1s0,0,0-.1c0-.2-.2-.5-.3-.7-.1-.3-.2-.7-.4-1-.1-.3-.2-.7-.4-1,0-.2-.1-.3-.2-.5-.2-.5-.4-1.1-.5-1.6-.2-.6-.4-1.2-.5-1.8,0,0,0,0,0,0,0,0,0-.1,0-.2,0-.3-.2-.7-.3-1,0-.2-.1-.4-.1-.6-.4-1.4-.7-2.8-1-4.2-.1-.6-.2-1.2-.4-1.8,0-.5-.2-1-.3-1.5-.1-.6-.2-1.3-.3-1.9,0-.6-.2-1.1-.2-1.7h0c-.2-1.3-.3-2.6-.4-4,0-.6-.1-1.2-.1-1.9,0-.6,0-1.1,0-1.7h0c0-.1,0-.1,0-.1h0s0,0,0,0h0c-.1-2-.2-3.9-.2-5.8,0-7,.5-14.3,1-21.4.2-2.6.4-5.1.5-7.7,0,0,0,0,0,0,1.6.2,3.2.3,4.8.5,1,0,2.4.4,4.1.9,0,0,0,0,0,0-.2,2.4-.3,4.7-.5,7.1-.1,1.6-.2,3.1-.4,4.7-.4,5.5-.7,10.8-.6,15.9.2,21.9,9,47.2,27.8,50.8,9,1.7,17.9-2.1,25.2-8.1,1.8-20.6,7.3-37.5,9.8-45.2-13.4-6.5-56.6-25.9-65.5-26.5-43.1-3.2-60.5-25.8-62.3-44.3-1.3-13.5,5.6-25.1,16.8-28.2,5.4-1.5,10.7-2.9,15.9-4.2-.5-2.8-1-5.7-1.5-8.6,0,0,0,0,0,0-.7-3.6-1.4-7.3-2.2-11-4.9-22-12.4-44.6-24.8-52-17-10.1-62.6-3.5-74.9,15.5-2.6,4.1-3.6,9.5-3.4,15.9,0,.3,0,.6.1.9,2.6,8,6.5,16.9,10.7,25.6,1.1,2.4,2.3,4.7,3.5,7,2.4,4.6,4.7,9.1,6.9,13.3,5.5,10.5,9.8,18.7,11.5,24.1,6.3,19.3,6.2,31.5,6.1,44.3,0,10-.1,20.4,2.9,35.3,3.3,16.7,8.8,26.9,17.3,32.3,7.5,4.7,17.8,5.2,27.8,1.2,10.4-4.2,18.3-12.4,20.5-21.6,3.8-15.6,6-28.8,7.2-40.2-.7-1.1-1.2-2-1.8-3.1.4.2.9.4,1.3.6.2.1.5.2.7.3.2-2.2.3-4.3.4-6.3,0,0,0,0,0,0,2.8.8,5.7,1.5,8.8,2,0,0,0,0,0,0-.8,13.5-3.1,29.5-7.9,48.9-2.3,9.2-8.4,17.4-17.1,23.1h0c-.2.2-.5.5-.7.7l-.7.6c-.2.2-.5.4-.8.6-.3.3-.6.5-1,.8-.3.2-.6.5-1,.7-.7.5-1.4,1-2.1,1.4-.3.2-.6.4-.9.5-.3.2-.6.3-.9.5-.3.2-.6.3-.9.5s-.6.3-.9.5c-.3.2-.6.3-.9.5-.3.2-.6.3-.9.4-.3.1-.6.3-.9.4,0,0,0,0-.1,0-.3.1-.6.2-.9.4-.3.1-.7.3-1,.4-.3.1-.6.2-1,.3-.2,0-.5.2-.7.2,0,0-.2,0-.3,0-.5.2-1,.3-1.5.4,0,0-.2,0-.2,0-.3,0-.6.2-.9.2-.4,0-.7.2-1.1.3-.6.1-1.1.2-1.7.4,0,0-.2,0-.2,0-.3,0-.6.1-1,.2-.3,0-.6,0-.9.1,0,0-.2,0-.3,0-.4,0-.8,0-1.2.1-.5,0-1,0-1.6.1-.2,0-.4,0-.6,0-.2,0-.4,0-.5,0-6.2.1-12.2-1.3-17.5-4.6-11.6-7.4-16.6-21.7-19.3-35.2-.5-2.3-.9-4.5-1.2-6.6,0,0,0,0,0-.1,0-.2,0-.4-.1-.6-3.2-15.9-3.1-27.2-3-37.1,0-7.4,0-14.1-1-22-.1-.5-.2-1-.3-1.5-.1-.5-.2-1-.4-1.5,0-.3-.1-.6-.2-.9-.1-.4-.2-.8-.3-1.2,0-.3-.2-.7-.3-1-.1-.5-2.3-18.1-2.4-18.6-.5-1.6-1-3.2-1.5-4.9,0,0,0,0,0,0l-1.7,1.9s0,0,0,0c2.6,34.8-1.6,78.1-17.1,97.2-1.9,2.3-3.9,4.5-6,6.4,0,0,0,0,0,0,0,0-.1.1-.1.2,0,0-.1.1-.1.2-.2.3-.4.6-.7.8-8.1,10-20.8,18.3-33.8,16-.6,0-1.1-.2-1.7-.3-.4,0-.8-.2-1.2-.3,0,0,0,0-.1,0,0,0,0,0-.1,0-.1,0-.3,0-.5-.2,0,0,0,0-.1,0,0,0,0,0,0,0-.7-.2-1.3-.5-2-.8-.2,0-.4-.2-.6-.3,0,0,0,0,0,0-.2,0-.5-.2-.7-.3-.3-.1-.5-.3-.8-.4-.2-.1-.4-.2-.6-.4-.4-.2-.8-.5-1.2-.8-.9-.6-1.8-1.3-2.7-2.1-.2-.2-.4-.3-.6-.5s-.4-.4-.6-.5c-.2-.2-.4-.4-.6-.6-.2-.2-.4-.4-.5-.6-.2-.2-.4-.4-.5-.6-.4-.4-.8-.9-1.1-1.3-.2-.2-.3-.4-.5-.6-.2-.2-.3-.4-.5-.7-.2-.3-.5-.7-.7-1l-.2-.4c-.2-.3-.4-.6-.6-.9-.2-.4-.5-.8-.7-1.2,0,0,0,0,0,0-.2-.4-.4-.7-.6-1.1-.2-.3-.3-.6-.5-.9-.2-.3-.3-.6-.5-1,0-.2-.1-.3-.2-.5-.1-.2-.2-.5-.3-.7,0,0,0,0,0,0-.1-.3-.3-.7-.4-1,0-.1-.1-.2-.1-.4-.2-.4-.3-.8-.4-1.2-.2-.5-.3-.9-.5-1.4-.1-.4-.3-.9-.4-1.3,0,0,0-.1,0-.2,0-.2-.1-.5-.2-.7,0-.2-.1-.5-.2-.7,0,0,0-.1,0-.2,0,0,0,0,0-.1,0,0,0,0,0,0,0-.2-.1-.4-.2-.6,0-.3-.1-.5-.2-.8-.1-.5-.2-1-.3-1.5,0-.1,0-.3-.1-.4,0,0,0-.1,0-.2,0-.3-.1-.5-.2-.8,0-.3-.1-.7-.2-1,0-.2,0-.3,0-.5,0-.4-.1-.8-.2-1.3,0-.5-.1-.9-.2-1.3,0-.4-.1-.7-.1-1.1,0,0,0,0,0-.1,0-.2,0-.3,0-.5,0-.3,0-.6-.1-1s0-.7,0-1c0-.4,0-.8,0-1.2,0-.5,0-1,0-1.5,0,0,0,0,0-.1h0c-.7-3.8-1-7.6-1.1-11.4,0-8.4-.3-22.9-1.8-36.8,0,.1,0,.2.1.4,0-.1,0-.3-.1-.4,0,0,0,0,0,0-1.2-11.5-3.4-22.6-7.2-29.4-1.2-2.2-.4-4.9,1.8-6.1s4.9-.4,6.1,1.7c8.3,15,7.8,44,8.1,70.5.2,16.2,8.6,42.3,23.9,45,11.5,2,25.6-13.5,32.3-21.8,14.2-17.6,17.8-42.3,15-75.6h0c-2-16.6-5.6-32.9-10.6-48.7h0c-4.1-8.4-8-16.9-10.9-25h0c-.3-.4-.6-.8-1-1.1-17.7-18.2-58.1-10.6-70.3,10-6.5,11.1-8.2,21.7-7,31.9h0c-3.2,7.3-5,16.5-5,27.9l29.7,142.4c6.7,31.9,19.6,62.3,38.5,88.8,35.7,50.3,72.8,59.2,136.1,59.2l54.6,1c63.8,0,121.9-32.5,150.3-86.7,0,0,64.5-117.5,29.8-175.9h0ZM530.8,385.2c1.7,6.9,2.6,16,4.3,22,.2.8.1,1.2-.2,1.3,17.7,8,37.8,16.6,51.7,20.8,9.1,2.7,16.9,4.5,23.7,6,7.6,1.7,14.3,3.2,20.6,5.6v-21.1c-.5-5.3-1.2-11.4-2.1-17.9-4.1-27.8-13.4-63.1-28.6-76.1-14.4-12.2-47.9-19.6-67.3-8.6-5.1,2.9-8.1,8.4-7.8,14.2.5,12.5,2,38,5.9,53.8h0ZM420.2,381.8h0c.5,2.1,5,15.1,9.5,27.4,33.2-7.8,59.5-11.8,69-12.1,7.1-.2,14.3,1.3,20.8,4.2,2.5,1.1,5.1,2.4,7.8,3.6-1.5-7.3-3.1-14.6-5-21.8-2.2-8.4-4.7-16.8-7.4-25-2.2-6.7-6.1-18.5-10.7-23.7-21.1-23.9-73.5-17.5-85.8,10.7-1.7,3.9-2.9,8-3.7,12.3-.2.9-.3,1.8-.4,2.6h0c.8,2.4,1.6,4.8,2.3,7.3,1,4.6,2.3,9.4,3.7,14.3h0Z"/>
</svg>