<?xml version="1.0" encoding="UTF-8"?>
<svg id="Calque_1" data-name="Calque 1" xmlns="http://www.w3.org/2000/svg" viewBox="0 0 850.39 850.39">
  <defs>
    <style>
      .cls-1 {
        fill: #d946e8;
      }
    </style>
  </defs>
  <path class="cls-1" d="M420.51,534.02c-1.19,10.69-3.34,22.92-6.83,37.09-2.25,9.14-10.12,17.4-20.53,21.58-9.94,3.97-20.31,3.52-27.75-1.22-8.45-5.38-13.95-15.65-17.29-32.33-3-14.96-2.94-25.31-2.88-35.31.08-12.84.15-24.96-6.11-44.28-1.77-5.45-6.08-13.71-11.54-24.16-7.8-14.94-17.95-34.36-22.15-49.69.17-5.06,1.22-9.47,3.42-12.88,12.27-18.99,57.94-25.64,74.9-15.52,12.85,7.67,20.54,31.99,25.37,54.81l1.12-.11c1.73,9.04,3.03,17.53,4.05,24.22.42,2.8.8,5.28,1.15,7.37.09.53.18,1.07.27,1.6-3.56.92-7.19,1.88-10.85,2.88-11.2,3.06-18.12,14.65-16.81,28.2,1.29,13.38,10.82,28.99,32.46,37.75Z"/>
  <path class="cls-1" d="M430.05,430.06c-10.3-54.18-14.7-109.27-13.11-164.15,1.51-51.61,9.44-105.77,43.03-146.64,13.16-16,38.41-29.86,55.31-16.9,8.56,6.55,13.04,17.53,12.46,27.75-6.77,118.44.15,230.26,5.55,291.84,8.73-.17,17.01-.38,24.82-.46,5.51-29.02,6.74-59.14,4.81-86.98-3.34-48.18-1.55-99.54-7.54-147.54-2.45-19.7-5.03-40.28,2.47-58.74,7.5-18.45,28.66-33.66,49.36-28.51,21.36,5.31,31.27,27.85,36.83,47.69,32.52,115.91,24.02,236.71,8.86,355.81-11.91-10.27-23.4-12.86-38.78-16.33-6.87-1.55-14.66-3.31-23.74-6.05-18.22-5.5-47.04-18.56-67.13-27.91-6.44-3-13.61-4.47-20.75-4.26-10.33.32-40.62,5.05-78.03,14.29-.06-.28-.1-.56-.15-.84-.34-2.06-.71-4.51-1.14-7.27-1-6.58-2.26-14.86-3.94-23.74l10.81-1.06Z"/>
  <path class="cls-1" d="M606.35,724.12c-1.68,2.49-3.33,4.94-4.93,7.34-31.12,30.13-74.44,47.27-120.79,47.27l-54.56-.99c-81.66,0-119.6-14.79-167.46-114.25l-36.77-176.17c0-6.08.49-11.52,1.44-16.38-4.96-14.54-5.75-29.66,3.76-45.75,12.18-20.64,52.63-28.18,70.32-10.01,1.13,1.16,2.11,2.42,2.97,3.76,2.68,7.09,6.05,14.45,9.6,21.68h0c-.08.68,0,1.37.24,2.04,7.99,21.67,8.29,25.16,10.2,47.88l.13,1.59c2.81,33.36-2.74,58.15-16.98,75.79-6.7,8.3-18,16.44-29.54,14.41-15.27-2.68-22.43-21.38-22.61-37.61-.3-26.47-1.74-55.54-10.06-70.5-1.21-2.18-3.95-2.96-6.12-1.75-2.17,1.21-2.96,3.95-1.75,6.12,8.34,15,8.75,50.9,8.93,66.23.23,20.5,9.62,42.79,30.05,46.38,1.72.3,3.46.45,5.21.45,11.57,0,23.54-6.49,32.89-18.08,15.77-19.52,21.97-46.41,18.95-82.2l-.13-1.58c-.45-5.28-.81-9.59-1.21-13.38,1.08,2.32,1.91,4.33,2.43,5.92,5.81,17.94,5.75,28.83,5.67,41.44-.06,9.98-.12,21.28,3.06,37.14,2.42,12.11,7.27,29.24,21.27,38.15,5.53,3.53,12.18,5.31,19.17,5.31,5.5,0,11.21-1.11,16.76-3.33,13.26-5.31,22.95-15.7,25.93-27.77,3.37-13.67,5.51-25.67,6.77-36.3,6.22,1.74,13.23,2.98,21.11,3.56,8.91.66,52.19,20.02,65.55,26.51-2.7,8.21-8.84,27.06-10.12,49.64-1.64,28.86,5.22,53.16,20.39,72.22,1.55,1.95,4.38,2.27,6.32.72,1.95-1.54,2.27-4.38.72-6.32-21.61-27.17-24.54-65.4-8.7-113.64.74-2.26,1.08-3.29,1.23-4.07.37-1.92-.55-3.86-2.26-4.8-4.1-2.24-59.51-28.28-72.46-29.24-7.94-.59-14.87-1.88-20.88-3.69-3.17-.95-6.08-2.05-8.74-3.27-16.18-7.37-23.37-19.08-24.34-29.19-.88-9.1,3.32-16.77,10.22-18.65,3.43-.94,6.82-1.84,10.16-2.7,2.95-.77,5.87-1.51,8.74-2.22,36.94-9.16,66.64-13.84,76.64-14.15,5.73-.18,11.51,1.01,16.69,3.42,22.05,10.26,49.76,22.77,68.32,28.37,9.38,2.83,17.34,4.63,24.36,6.21,16.91,3.82,27.43,6.19,39.34,18.58-.02.15-.04.3-.06.45,2.25,2.2,4.53,4.7,6.88,7.59.02.02.03.03.04.05,1.42,2.19,2.73,4.39,4,6.52,35.35,59.42-17.45,137.93-55.99,195.25Z"/>
</svg>