<?xml version="1.0" encoding="UTF-8"?>
<svg id="Calque_1" xmlns="http://www.w3.org/2000/svg" version="1.1" viewBox="0 0 850.4 850.4">
  <!-- Generator: Adobe Illustrator 29.8.3, SVG Export Plug-In . SVG Version: 2.1.1 Build 3)  -->
  <defs>
    <style>
      .st0 {
        fill: #a3214b;
      }
    </style>
  </defs>
  <path class="st0" d="M559.1,77c-9-9.3-23-12.5-36-10.5-2,.3-2.5,3.1-.7,4,11.5,5.8,22.2,17.1,32.4,34.2,2.3,3.8,4.5,7.7,6.7,11.6,1,1.7,3.5,1.3,3.9-.6.6-3.1,1.3-6.2,1.9-9.3,2.1-10-.7-21.5-8.2-29.3h0Z"/>
  <path class="st0" d="M422.6,539.2c.7.4,1.2,1.2,1.1,2-1,12.2-3.2,26.4-7.5,43.5-2.2,9.1-10.1,17.4-20.5,21.6-9.9,4-20.3,3.5-27.8-1.2-8.5-5.4-14-15.7-17.3-32.3-3-15-2.9-25.3-2.9-35.3,0-12.8.1-25-6.1-44.3-1.8-5.5-6.1-13.7-11.5-24.1-2-3.8-4.1-7.9-6.2-12.1-.7-1.4-1.4-2.8-2.1-4.1-5.6-11.3-11-23.3-13.8-33.5h0c.2-5.1,1.2-9.5,3.4-12.9,12.3-19,57.9-25.6,74.9-15.5,11.4,6.8,18.7,26.6,23.6,46.9h.2c2,10.5,4.8,25.2,6.3,35,.2,1.1-.5,2.1-1.6,2.4h0c-11.3,2.6-18.7,13.9-18,27.5.7,12.3,8.2,26.8,25.8,36.5h0Z"/>
  <path class="st0" d="M653.8,510.9c0,1.6-1.8,2.6-3.2,1.8-8.2-4.8-17-7.2-27.6-10-6.8-1.8-14.5-3.9-23.5-7-18-6.2-46.2-20.5-65.9-30.7-6.3-3.3-13.4-5-20.6-5.1-11.1-.1-45.2,3.9-86.7,12.8l-1.6.4c-1.2.3-2.4-.5-2.5-1.7-1.8-11.4-5.1-28.8-7.1-39,0-.2,0-.3,0-.5.2-4.2.5-8.4.8-12.5,4.8-65.1,19.7-130.1,34.6-193.4,4.9-20.8,7.6-44.5,12.1-67.6.4-2.1,3.3-2.3,4-.4,1.5,4,3.1,8,4.7,11.9,10.1,25,13.4,37.8,17.2,52.6,2.9,11.3,6.1,24.1,13,44.2,16.4,47.7,25.2,86.5,25.3,154.8,0,1.2.5,2.4,1.3,3.2.8.8,1.9,1.3,3.2,1.3,2.5,0,4.5-2,4.5-4.5,0-69.6-9.1-109.1-25.8-157.7-6.8-19.8-9.9-31.8-12.8-43.5-3.8-15.1-7.2-28.2-17.5-53.8-7.3-17.9-14.8-36.5-12.5-55.1,2.1-17.2,16.5-36,35.9-36.4h.6c15.5,0,29.7,11.2,43.4,34.3,72.5,122.3,109.3,260.9,106.8,401.7h0Z"/>
  <path class="st0" d="M637.2,680.3h0s0,0,0,0h0c-24.2,64.7-87.7,104.3-158.2,104.3l-54.6-1c-81.7,0-119.6-14.8-167.5-114.2l-36.8-176.2c0-8.2.9-15.2,2.6-21.2-1.5-10.7,0-21.7,6.8-33.2,12.2-20.6,52.6-28.2,70.3-10,1.1,1.2,2.1,2.4,3,3.8,0,0,0,0,0,0,3.5,9.1,8.1,18.7,12.7,27.9,7.2,19.6,7.4,21.9,9.3,44.7,2.8,33.4-2.7,58.2-17,75.8-6.7,8.3-18,16.4-29.5,14.4-15.3-2.7-22.4-21.4-22.6-37.6,0-5.1-.9-50.4-12.1-70.5-1.2-2.2-3.9-3-6.1-1.8-2.2,1.2-2.9,4-1.7,6.1,8.2,14.8,10.7,49.8,10.9,66.2.2,20.5,9.6,42.8,30,46.4,1.7.3,3.5.5,5.2.5,11.6,0,23.5-6.5,32.9-18.1,15.8-19.5,22-46.4,19-82.2-.3-3.1-.5-5.9-.7-8.3,5.8,17.9,5.7,28.7,5.6,41.3,0,10-.1,21.3,3.1,37.1,2.4,12.1,7.3,29.2,21.3,38.2,5.5,3.5,12.2,5.3,19.2,5.3s11.2-1.1,16.8-3.3c13.3-5.3,23-15.7,25.9-27.8,3.8-15.5,6.1-28.8,7.2-40.5.1-1.3,1.5-2.2,2.8-1.8,6.4,2.2,13.8,3.9,22.2,4.8,8.5,1,48.1,20.6,62.7,28.3.9.5,1.4,1.6,1,2.6-3.3,8.8-9.5,26.4-11.5,47.5-2.8,28.8,3,53.3,17.4,73,1.5,2,4.3,2.5,6.3,1,2-1.5,2.4-4.3,1-6.3-20.5-28-21.8-66.4-4-113.9.8-2.2,1.2-3.2,1.4-4,.5-1.9-.4-3.9-2.1-4.9-4-2.4-58.3-30.7-71.2-32.2-10-1.2-18.3-3.3-25.1-6.2-18.1-6.5-26.8-23-27.3-32.1-.5-9.1,4-16.6,11-18.2.8-.2,1.6-.4,2.4-.5l10.6-2.4s0,0,0,0c39.5-8.4,71.7-12.2,82.7-12.2h.5c5.7,0,11.5,1.5,16.5,4.1,21.6,11.2,48.8,24.8,67.1,31.2,9.3,3.2,17.1,5.3,24.1,7.2,14,3.8,23.6,6.4,33.1,14.7-.2-.5-.3-1-.3-1.5,1.2,1.3,2.4,2.8,3.6,4.3h0c.5.6,1,1.3,1.5,2,0,.1.2.2.2.3.4.6.7,1.1,1.1,1.7.6.9,1.1,1.8,1.6,2.6.5.8.9,1.6,1.4,2.4,32.2,55.8,3.3,99.3-25.8,142.5h0Z"/>
</svg>