<?xml version="1.0" encoding="UTF-8"?>
<svg id="Calque_1" data-name="Calque 1" xmlns="http://www.w3.org/2000/svg" viewBox="0 0 850.39 850.39">
  <defs>
    <style>
      .cls-1 {
        fill: #d946e8;
      }
    </style>
  </defs>
  <path class="cls-1" d="M239.71,501.56c14.35-2.56,24.51-19.41,23.49-37.45-.21-3.85-.11-7.9-.27-11.8-.53-13.07-1.07-26.58,5.46-38.5,9.31-16.98,19.21-37.74,14.85-57.82-.43-1.97-1-3.95-1.72-5.9,0-.02-.01-.04-.02-.05l-2.61-5.79s-.04-.08-.07-.12c0,0,0-.03-.02-.04-11.63-18.67-47.99-25.33-64.01-8.63-3.52,3.67-5.46,8.48-7.18,13.22-7.68,21.15-12.53,43.27-14.39,65.63-2.12,25.56.31,53.16,16.46,73.46,4.4,5.52,10.28,10.49,16.83,13.16h.01c1.49.47,3.15.84,5,1.01,2.4.24,5.12.17,8.19-.38Z"/>
  <path class="cls-1" d="M481.28,358.2c-4.44,17.04-11.5,33.11-17.16,44.51-3.79,7.63-4.93,16.36-4.99,25.45-.45.31-.9.62-1.35.93-.38.27-.76.53-1.14.79v.51h0c.38-.25.76-.52,1.14-.79.45-.3.9-.62,1.35-.93,6.31-4.35,13.2-8.87,20.73-13.56,13.58-8.47,8.45-28.8,3.49-48.47-.7-2.79-1.39-5.51-2.01-8.16v-.02c-.02-.09-.04-.17-.06-.26Z"/>
  <path class="cls-1" d="M478.98,346.14l-2.68-25.93c-.2-4.85-.15-9.68.23-14.46.01-.15.02-.31.04-.46.05-.58.1-1.15.16-1.72.02-.21.04-.42.07-.63.06-.59.13-1.18.21-1.77h0c-.46-.79-.95-1.54-1.47-2.28-.21-.3-.43-.58-.64-.87-.1-.12-.19-.24-.29-.37-.26-.33-.53-.65-.8-.97-.24-.28-.48-.56-.73-.83-.1-.1-.19-.21-.29-.31l-.27.41c-.31.47-.58.88-.81,1.24-.13.19-.24.36-.33.5-.31.47-.45.7-.51.81l-.13.25c-5.15,9.18-16.99,16.59-30.17,18.86-2.67.46-5.26.69-7.75.69-7.77,0-14.51-2.23-19.43-6.53-5.42-4.72-8.43-12.36-9.88-17.17-.53.51-1.02,1.04-1.5,1.59-3.81,4.38-7.34,15.11-9.24,20.87l-.09.27c-1.45,4.42-2.82,8.87-4.1,13.34l-.69,2.45c-2.66,9.51-4.92,19.15-6.77,28.87l-3.57,22.43c-.8,6.19-1.43,12.39-1.9,18.62-.32,4.34-.55,8.56-.68,12.67-.05,1.47-.08,2.92-.09,4.36-.4,32.48,5.86,57.67,19.02,76.61l.75,1.19.76.94s.02,0,.02.02h0c.04-.11.07-.24.11-.36.06-.22.12-.44.19-.66.08-.28.17-.57.26-.85.26-.83.54-1.66.83-2.49,1.08-2.98,2.43-6.04,4.11-9.18.29-.54.59-1.08.9-1.63.2-.35.4-.7.6-1.05.33-.56.67-1.13,1.02-1.7.59-.95,1.21-1.9,1.86-2.87.22-.32.43-.63.65-.95.44-.64.9-1.28,1.37-1.93.07-.09.14-.19.2-.28.4-.55.82-1.11,1.25-1.67,2-2.61,4.24-5.29,6.73-8.04.3-.34.62-.68.95-1.03.32-.35.64-.7.97-1.04.33-.35.66-.7,1-1.05.74-.77,1.49-1.54,2.27-2.32.29-.28.58-.57.88-.86,2.06-2.03,4.26-4.1,6.61-6.2.42-.38.85-.76,1.28-1.14.86-.76,1.75-1.53,2.65-2.3.35-.3.69-.6,1.05-.9,3.82-3.23,7.99-6.56,12.54-9.99,1.04-.79,2.1-1.58,3.18-2.37,1.7-1.26,3.46-2.53,5.26-3.81h0s.01-.02.02-.02c-.01-.17-.02-.33-.02-.5-.02-.78-.03-1.55-.03-2.32,0-.63,0-1.25.01-1.86.01-.31.01-.62.02-.93.01-.31.02-.62.03-.93.04-1.23.1-2.46.19-3.68.04-.61.1-1.22.16-1.83s.12-1.21.2-1.81c.06-.6.14-1.19.23-1.77.01-.03.01-.05.02-.08.08-.58.18-1.16.28-1.74v-.02c.1-.55.2-1.11.32-1.66.01-.07.02-.13.04-.19.1-.47.2-.94.31-1.4.03-.15.07-.3.11-.45.1-.43.21-.87.33-1.3.04-.13.07-.26.11-.39.1-.38.21-.76.33-1.13.23-.77.48-1.53.75-2.28.19-.52.39-1.05.6-1.57.22-.56.45-1.11.7-1.66.24-.55.5-1.1.77-1.64,5.58-11.23,12.57-27.14,16.91-43.84.41-1.58,2.08-8.41,2.44-10.01v-1.01Z"/>
  <path class="cls-1" d="M600.45,373.83l.13-.23s-4.12-41.27-15.07-120.57l-1.58-34.64c-.92-20.21-17.19-36.58-37.73-37.76-9.16-.52-18.31-.74-27.38-.76-12.86-.03-49.24-1.51-76.09-1.94-14.79-.24-27.15,11-28.04,25.51l-.57,9.25c-2.28,22.01-3.18,45.08-6.02,66.24-.27,2.05-.46,4.16-.51,6.28-.04.97-.03,1.96,0,2.94-.15.1-.31.2-.46.3.07.34.14.68.22,1.03.11.52.24,1.05.37,1.59.05.2.11.4.16.61.72,5.75,2.87,11.19,7.49,15.23.34.29.68.57,1.02.83.09.1.19.19.28.27,5.27,4.59,13.67,6.3,23.05,4.68,6.37-1.1,12.48-3.59,17.42-6.91,3.99-2.68,7.21-5.89,9.18-9.36.15-.32.44-.8,1.19-1.95.06-.09.13-.19.2-.3.18-.28.4-.6.62-.96l.75-1.13.2-.31c.31-.48.64-.98.99-1.52.06-.09.12-.19.18-.28,12.67-19.38,19.44-31.79,20.15-36.92l.32-2.33,11.2.86c.13,0,.26.03.38.06,8.3-8.83,18.09-16.37,27.64-18.88,6.61-1.74,12.46-.89,17.41,2.5,10.91,7.49,14.07,30.95,16.61,49.79.67,4.96,1.25,9.24,1.89,12.54l5.09,26.13,9.98,51.26c1.44,7.41,3.29,15.16,5.28,23.26.53,2.12,1.06,4.26,1.6,6.43,3.13,12.6,6.44,25.94,8.77,39.25l4.23-55.5c0-5.24-.18-10.1-.55-14.59Z"/>
  <path class="cls-1" d="M288.64,488.52c2.21,9.1,9.88,17.27,20.03,21.32,9.5,3.78,19.46,3.28,26.64-1.37,8.14-5.26,13.41-15.16,16.57-31.15,2.78-14.09,2.72-23.8,2.67-33.19-.07-11.8-.14-22.94,5.52-40.64,1.27-3.98,3.49-9.51,6.06-15.92,3.08-7.69,6.91-17.22,10.15-26.94,3.32-9.92,6.02-20.04,6.71-28.57l.06-.73c.43-6.23-.26-11.58-2.64-15.32-10.3-16.19-50.45-22.59-65.22-13.64-10.76,6.52-17.49,27.73-21.81,47.99-2.45,11.46-4.12,22.61-5.33,30.64-.39,2.6-.73,4.9-1.05,6.84-.47,2.93-1.05,5.9-1.66,9.05-3.74,19.35-8.4,43.44,3.3,91.63Z"/>
  <path class="cls-1" d="M594.79,469.92v-.03c-.83-20.47-6.31-42.52-11.65-64.01-.11-.46-.23-.92-.34-1.38l-17.1-82.55-.47-2.44-4.09-20.96c-.67-3.45-1.25-7.8-1.93-12.83-2.15-15.97-5.4-40.1-14.49-46.34-3.7-2.53-8.17-3.14-13.31-1.79-9.19,2.42-19.09,10.49-27.37,19.76-2.93,3.3-5.67,6.74-8.08,10.13-3.18,4.44-5.82,8.81-7.7,12.64-1.9,3.87-3.34,7.88-4.42,11.98-1.1,4.21-1.81,8.52-2.22,12.9v.02c-.21,2.26-.34,4.55-.39,6.84h0s-.01.03,0,.03c-.01.02-.01.03,0,.03-.01.01-.01.02,0,.02-.07,2.55-.05,5.11.05,7.68l1.47,17.16v.03c.38,3.08.82,6.14,1.27,9.19v.02c.08.51.15,1.02.23,1.53.82,5.44,2.34,11.48,3.95,17.87,5.15,20.41,10.98,43.53-5.7,53.93-1.66,1.04-3.3,2.07-4.9,3.09-1.49.95-2.95,1.89-4.39,2.82-4.97,3.23-9.62,6.35-13.98,9.39h0c-.82.58-1.63,1.15-2.43,1.71-.82.58-1.62,1.16-2.41,1.73-1.47,1.06-2.9,2.1-4.29,3.14-.64.48-1.28.95-1.9,1.42-2.78,2.1-5.42,4.15-7.91,6.17-.61.49-1.22.98-1.81,1.47-.48.39-.95.78-1.41,1.17-.05.03-.1.07-.14.12-.47.38-.92.76-1.37,1.15-2,1.69-3.89,3.35-5.69,4.99-.61.55-1.21,1.11-1.8,1.66-.4.37-.79.73-1.17,1.1-.57.54-1.14,1.08-1.69,1.63-.55.54-1.1,1.08-1.63,1.61-.36.36-.71.71-1.05,1.07-.07.06-.13.12-.19.19-.69.71-1.36,1.42-2.03,2.12-1.64,1.75-3.17,3.48-4.59,5.18-.34.41-.68.81-1.01,1.22-.33.4-.65.8-.96,1.2-.32.4-.63.8-.93,1.19-1.53,1.98-2.9,3.93-4.14,5.84-.25.38-.49.76-.73,1.14-.23.38-.46.75-.69,1.13-.39.62-.75,1.25-1.1,1.87-.35.62-.69,1.24-1.01,1.85-.97,1.84-1.82,3.65-2.55,5.43-.25.6-.49,1.19-.71,1.78-.33.88-.64,1.75-.92,2.63-.17.5-.32.99-.47,1.49-.02.08-.04.16-.07.24-.13.44-.25.88-.36,1.32-.15.57-.29,1.14-.42,1.7-.07.28-.13.56-.19.84-.03.14-.06.28-.09.42-.22,1.02-.4,2.04-.55,3.05-.16,1.03-.29,2.06-.39,3.09-.64,6.42-.23,12.65.49,18.95l.05.41c.25,2.13.54,4.26.83,6.41l.05.38c.05.3.09.61.13.91.39,2.91.81,5.92,1.15,8.96.02.13.04.27.05.4.15,1.38-.84,2.61-2.21,2.76-.09,0-.19.02-.28.02-1.26,0-2.34-.95-2.48-2.22-.35-3.12-.77-6.23-1.19-9.24-1.46-10.65-2.89-21.12-.99-32.37-1.18-1.37-2.27-2.77-3.28-4.17-13.64-18.9-20.53-43.7-20.87-75.41-.02-1.65-.02-3.32,0-5,.06-5.73.33-11.67.79-17.84.43-5.75,1-11.49,1.71-17.21-.03.07-.06.14-.09.21-.52,1.29-1.02,2.55-1.51,3.77-2.54,6.32-4.72,11.78-5.94,15.58-5.41,16.95-5.35,27.7-5.28,39.09.05,9.64.11,19.6-2.77,34.19-2.16,10.95-6.46,26.44-18.76,34.38-4.8,3.11-10.6,4.68-16.7,4.68-4.75,0-9.69-.95-14.5-2.87-11.8-4.71-20.42-13.97-23.04-24.78-10.26-42.26-8.2-66.42-4.99-84.96-1.98,4.12-4.09,8.09-6.17,11.9-5.6,10.21-5.12,22.18-4.61,34.85.16,3.99.33,8.12.28,12.16-.21,18.78-8.64,39.19-27.01,42.46-2.41.43-5.18.85-8.07,1.03l23.33,71.84c43.05,108.74,54.37,132.89,150.22,129.2,0,0,159.21,10.58,181.95-158.58l4.36-57.15.66-.18c-.1-.34-.12-.7-.06-1.07,1.11-6.83,1.41-13.95,1.12-21.28Z"/>
</svg>