<?xml version="1.0" encoding="UTF-8"?>
<svg id="Calque_1" xmlns="http://www.w3.org/2000/svg" version="1.1" viewBox="0 0 850.4 850.4">
  <!-- Generator: Adobe Illustrator 29.8.3, SVG Export Plug-In . SVG Version: 2.1.1 Build 3)  -->
  <defs>
    <style>
      .st0 {
        fill: #a3214b;
      }
    </style>
  </defs>
  <path class="st0" d="M646.4,504.7c-2.7-2.1-5.3-3.8-8-5.3-8.5-4.6-17.4-6.6-28.2-9-6.9-1.5-14.7-3.3-23.7-6-12.5-3.8-30-11.1-46.2-18.4-2.1-1-4.2-1.9-6.2-2.8-5.2-2.4-10.2-4.6-14.7-6.8-6.4-3-13.6-4.5-20.8-4.3-9.5.3-36,4.3-69.3,12.2-2.9.7-5.8,1.4-8.7,2.1,0-.3,0-.6-.1-.8-.3-2.1-.7-4.5-1.1-7.3-1-6.6-2.3-14.9-3.9-23.7-1-2.6-8.7-31.4-16.9-64.2-8.2-32.8-16.8-69.4-19.5-87.8-7.5-51.1-9.1-105.8,16.8-151.9,10.2-18.1,32.6-36.1,51.5-26.3,9.6,5,15.9,15,17.1,25.2,14.8,124.4,43.2,238.8,58.9,295.9,13.1-.2,25.3-.6,36.4-.6,11.1-30,17.3-62.3,19.5-92.5,3.5-48.2,12.4-98.8,13.2-147.1.3-19.9.7-40.6,10.7-57.8,10-17.2,33.1-29.3,52.9-21.3,20.4,8.3,27,32,29.8,52.4,15.6,116.8-8.4,232.7-39.2,346.1h0Z"/>
  <path class="st0" d="M658.3,532.4c-1.2-2-2.5-4.3-4-6.5h0c-3.7-4.5-7.2-8.1-10.7-11-1.6-1.4-3.2-2.6-4.9-3.6v-1c-8.8-6.1-17.9-8.1-30.6-11-7-1.6-15-3.4-24.3-6.2-13.3-4-31.2-11.5-48.4-19.3-1.7-.8-3.3-1.5-5-2.3-5.1-2.3-10.1-4.6-14.9-6.9-2.5-1.2-5.2-2.1-7.9-2.6,0,0,0,0,0,0-.8-.2-1.6-.3-2.4-.4h0c-2.1-.3-4.2-.4-6.4-.4-2.5,0-6.1.4-10.7,1h0c-12.4,1.6-32,5.1-55.3,10.6-3.5.8-7,1.7-10.6,2.5-2.9.7-5.8,1.5-8.7,2.2-.4,0-.7.2-1,.3-3,.8-6,1.6-9.1,2.4-1,.3-2,.7-2.9,1.2,0,0,0,0,0,0-5.1,3-8,9.7-7.3,17.4,1,10.1,8.2,21.8,24.3,29.2.2.1.5.2.8.3,1.7.8,3.6,1.5,5.5,2.1h0c.8.3,1.6.5,2.5.8,6,1.8,12.9,3.1,20.9,3.7,13,1,68.4,27,72.5,29.2,1.7.9,2.6,2.9,2.3,4.8-.2.8-.5,1.8-1.2,4.1-9.6,29.4-12.3,55-8.1,76.7q2.8,14.5,0,0c2.7,14,8.3,26.3,16.8,36.9,1.5,1.9,1.2,4.8-.7,6.3-1.9,1.5-4.8,1.2-6.3-.7-15.2-19.1-22-43.4-20.4-72.2.1-1.8.2-3.6.4-5.4h0c.1-2.9.4-5.8,1-8.6,0,0,0,0,0,0,2.2-15.6,6.2-28.2,8.4-34.8,0-.3.2-.5.2-.8-3.4-1.7-8.8-4.2-15-7,0,0,0,0-.1,0-8.3-3.7-18.1-8-27-11.6h0c-10.6-4.3-19.8-7.6-23.4-7.9-1.2,0-2.3-.2-3.4-.3-.7,0-.8,0,0,0-6.5-.7-12.4-1.8-17.7-3.2-1.3,10.6-3.4,22.6-6.8,36.3-2.5,10.3-9.9,19.3-20.3,25.1h0c-1.8,1-3.7,1.9-5.7,2.7-5.5,2.2-11.3,3.3-16.8,3.3s-13.6-1.8-19.2-5.3c-14-8.9-18.9-26-21.3-38.2-1.4-6.9-2.2-12.9-2.6-18.4h0c-.5-7.1-.5-13.2-.5-18.8,0-2.9,0-5.8,0-8.7-.6-7.4-2.1-15.6-5.5-26-.5-1.6-1.2-3.4-1.9-5.4.2,1.9.3,3.9.5,6v1.6c3.2,35.8-3,62.7-18.8,82.2-4.6,5.8-10,10.3-15.5,13.3-5.6,3.1-11.5,4.7-17.3,4.7s-3.5-.2-5.2-.5c-18.2-3.2-27.7-21.3-29.6-39.7-.2-2.2-.4-4.4-.4-6.6,0-.5,0-1.1,0-1.7l-1.8-35.8c-1.2-11.3-3.4-22.1-7.1-28.8-1.2-2.2-.4-4.9,1.8-6.1,2.2-1.2,4.9-.4,6.1,1.7,8.3,15,9.8,44,10.1,70.5.2,16.2,7.3,34.9,22.6,37.6,11.5,2,22.8-6.1,29.5-14.4,12.6-15.7,18.4-37,17.6-65,0-1-.1-2-.2-3-1.9-22.2-6.5-44.1-13.8-65.2,0,0,0,0,0,0s0,0,0,0c-.5-.9-.9-1.9-1.3-2.8-2-4.4-3.9-8.7-5.5-13-.9-1.3-1.8-2.6-3-3.8-17.7-18.2-58.1-10.6-70.3,10-9.5,16.1-8.7,31.2-3.8,45.8-.9,4.9-1.4,10.3-1.4,16.4l30.2,144.7c5.4,26,15.2,50.8,29.2,73.4,38.6,62,76.3,72.3,144.8,72.3l54.6,1c56.6,0,108.8-25.6,139.6-69.2-.5-1.3-.5-2.9.4-4.2,4.1-6.4,8.4-12.8,12.5-19,0,0,0-.1.2-.2,2.6-4,33.7-53.9,40.6-75.4,0,0,0,0,0,0,7.4-25.4,6.2-52.1-11.5-81.8h0ZM626,577.4c.3-.8-.5-1.6-1.2-2-.2,0-.3.1-.5.2-.5-.6,0-.5.5-.2.9-.3,1.6-.9,2.2-1.5-.3,1.2-.7,2.4-1,3.6h0Z"/>
  <path class="st0" d="M416.5,537.5c-1.2,10.7-3.3,22.9-6.8,37.1-2.2,9.1-10.1,17.4-20.5,21.6-9.9,4-20.3,3.5-27.8-1.2-8.5-5.4-13.9-15.7-17.3-32.3-3-15-2.9-25.3-2.9-35.3,0-12.8.1-25-6.1-44.3-1.8-5.5-6.1-13.7-11.5-24.2-3.6-7-7.8-15-11.6-23-4.3-9.2-8.3-18.5-10.5-26.7.2-5.1,1.2-9.5,3.4-12.9,12.3-19,57.9-25.6,74.9-15.5,12.9,7.7,20.5,32,25.4,54.8,2.7,12.6,4.5,24.7,5.8,33.3-3.3.9-6.6,1.8-10,2.7-11.2,3.1-18.1,14.6-16.8,28.2,1.3,13.4,10.8,29,32.5,37.7Z"/>
</svg>