<?xml version="1.0" encoding="UTF-8"?>
<svg id="Calque_1" xmlns="http://www.w3.org/2000/svg" version="1.1" viewBox="0 0 850.4 850.4">
  <!-- Generator: Adobe Illustrator 29.8.3, SVG Export Plug-In . SVG Version: 2.1.1 Build 3)  -->
  <defs>
    <style>
      .st0 {
        fill: #a3214b;
      }
    </style>
  </defs>
  <path class="st0" d="M420.5,534c-1.2,10.7-3.3,22.9-6.8,37.1-2.2,9.1-10.1,17.4-20.5,21.6-9.9,4-20.3,3.5-27.8-1.2-8.5-5.4-14-15.7-17.3-32.3-3-15-2.9-25.3-2.9-35.3,0-12.8.1-25-6.1-44.3-1.8-5.5-6.1-13.7-11.5-24.2-7.8-14.9-18-34.4-22.1-49.7.2-5.1,1.2-9.5,3.4-12.9,12.3-19,57.9-25.6,74.9-15.5,12.9,7.7,20.5,32,25.4,54.8h1.1c1.7,8.9,3,17.4,4,24.1.4,2.8.8,5.3,1.1,7.4,0,.5.2,1.1.3,1.6-3.6.9-7.2,1.9-10.9,2.9-11.2,3.1-18.1,14.6-16.8,28.2,1.3,13.4,10.8,29,32.5,37.8h0Z"/>
  <path class="st0" d="M430,430.1c-10.3-54.2-14.7-109.3-13.1-164.1,1.5-51.6,9.4-105.8,43-146.6,13.2-16,38.4-29.9,55.3-16.9,8.6,6.6,13,17.5,12.5,27.7-6.8,118.4.2,230.3,5.5,291.8,8.7-.2,17-.4,24.8-.5,5.5-29,6.7-59.1,4.8-87-3.3-48.2-1.5-99.5-7.5-147.5-2.5-19.7-5-40.3,2.5-58.7,7.5-18.4,28.7-33.7,49.4-28.5,21.4,5.3,31.3,27.8,36.8,47.7,32.5,115.9,24,236.7,8.9,355.8-11.9-10.3-23.4-12.9-38.8-16.3-6.9-1.5-14.7-3.3-23.7-6-18.2-5.5-47-18.6-67.1-27.9-6.4-3-13.6-4.5-20.8-4.3-10.3.3-40.6,5-78,14.3,0-.3-.1-.6-.1-.8-.3-2.1-.7-4.5-1.1-7.3-1-6.6-2.3-14.9-3.9-23.7l10.8-1.1h0Z"/>
  <path class="st0" d="M606.3,724.1c-1.7,2.5-3.3,4.9-4.9,7.3-31.1,30.1-74.4,47.3-120.8,47.3l-54.6-1c-81.7,0-119.6-14.8-167.5-114.2l-36.8-176.2c0-6.1.5-11.5,1.4-16.4-5-14.5-5.8-29.7,3.8-45.8,12.2-20.6,52.6-28.2,70.3-10,1.1,1.2,2.1,2.4,3,3.8,2.7,7.1,6,14.5,9.6,21.7h0c0,.7,0,1.4.2,2,8,21.7,8.3,25.2,10.2,47.9v1.6c2.9,33.4-2.6,58.2-16.9,75.8-6.7,8.3-18,16.4-29.5,14.4-15.3-2.7-22.4-21.4-22.6-37.6-.3-26.5-1.7-55.5-10.1-70.5-1.2-2.2-3.9-3-6.1-1.8s-3,4-1.8,6.1c8.3,15,8.8,50.9,8.9,66.2.2,20.5,9.6,42.8,30,46.4,1.7.3,3.5.5,5.2.5,11.6,0,23.5-6.5,32.9-18.1,15.8-19.5,22-46.4,19-82.2v-1.6c-.6-5.3-.9-9.6-1.3-13.4,1.1,2.3,1.9,4.3,2.4,5.9,5.8,17.9,5.8,28.8,5.7,41.4,0,10-.1,21.3,3.1,37.1,2.4,12.1,7.3,29.2,21.3,38.2,5.5,3.5,12.2,5.3,19.2,5.3s11.2-1.1,16.8-3.3c13.3-5.3,23-15.7,25.9-27.8,3.4-13.7,5.5-25.7,6.8-36.3,6.2,1.7,13.2,3,21.1,3.6,8.9.7,52.2,20,65.5,26.5-2.7,8.2-8.8,27.1-10.1,49.6-1.6,28.9,5.2,53.2,20.4,72.2,1.5,2,4.4,2.3,6.3.7,2-1.5,2.3-4.4.7-6.3-21.6-27.2-24.5-65.4-8.7-113.6.7-2.3,1.1-3.3,1.2-4.1.4-1.9-.5-3.9-2.3-4.8-4.1-2.2-59.5-28.3-72.5-29.2-7.9-.6-14.9-1.9-20.9-3.7-3.2-1-6.1-2-8.7-3.3-16.2-7.4-23.4-19.1-24.3-29.2-.9-9.1,3.3-16.8,10.2-18.6,3.4-.9,6.8-1.8,10.2-2.7,3-.8,5.9-1.5,8.7-2.2,36.9-9.2,66.6-13.8,76.6-14.1,5.7-.2,11.5,1,16.7,3.4,22,10.3,49.8,22.8,68.3,28.4,9.4,2.8,17.3,4.6,24.4,6.2,16.9,3.8,27.4,6.2,39.3,18.6,0,.2,0,.3,0,.5,2.2,2.2,4.5,4.7,6.9,7.6,0,0,0,0,0,0,1.4,2.2,2.7,4.4,4,6.5,35.3,59.4-17.5,137.9-56,195.2Z"/>
</svg>