<?xml version="1.0" encoding="UTF-8"?>
<svg id="Calque_1" xmlns="http://www.w3.org/2000/svg" version="1.1" viewBox="0 0 850.4 850.4">
  <!-- Generator: Adobe Illustrator 29.8.3, SVG Export Plug-In . SVG Version: 2.1.1 Build 3)  -->
  <defs>
    <style>
      .st0 {
        fill: #a3214b;
      }
    </style>
  </defs>
  <path class="st0" d="M598.1,147.4c-7.2-19.3-18.9-41-40.6-44.5-21-3.4-40.9,13.4-46.9,32.4-6,19-1.7,39.3,2.3,58.7,9.9,47.3,12.3,98.7,19.5,146.4,1.9,12.7,3.2,25.9,3.8,39.3-7.8.2-16,.4-24.6.5-9-63.8-19.3-157.2-20.5-255.8-.1-10.2-5.4-20.9-14.4-26.8-17.8-11.8-42,3.8-54,20.7-30.7,43.1-34.8,97.7-32.8,149.3,1.7,41.4,6.8,82.6,15.2,123.3l-21.1,2.3c-8.1-57.3-17.1-138.7-18.3-224.5-.1-9.2-4.9-18.8-13.1-24.2-16.2-10.6-38.2,3.4-49.1,18.6-27.9,38.8-31.5,88.1-29.6,134.6,1.7,38.9,6.7,77.7,15.1,116-5.6,2.8-11.1,5.9-16.3,9.3-7.1-34.9-13.7-73.6-18.6-113.7-1-8-6-15.9-13.6-19.9-15-7.9-32.8,5.9-40.8,19.9-20.6,35.8-19.2,78.6-13.2,118.8,7.8,52,22.6,103,43.9,151.7.3.7.7,1.5,1,2.2l21.4,59.7c47.9,109.5,85.4,130.1,167,130.1l54.6,1.1c49.7,0,95.8-21.7,127.3-59.4-18.5,14-44.6-7.8-68.3-21.1-.7.4-1.5.7-2.3.7s-1.4-.2-2-.5c-2.6-1.3-5-2.9-7.3-4.7-.3-.2-.5-.5-.7-.7,0,0,0,0,0,0-2.4-3-4.6-6.2-6.6-9.5-10.5-17.4-15.2-38.5-13.8-62.8.6-10.9,2.4-20.9,4.3-29.3,2.1-9,4.4-16.1,5.8-20.3-13.4-6.5-56.6-25.9-65.6-26.5-43.1-3.2-60.5-25.8-62.2-44.3-1.3-13.5,5.6-25.1,16.8-28.2,3.7-1,7.4-2,11-2.9,8-2.1,15.8-4,23.2-5.6,30.5-7,54.5-10.5,63.4-10.8,7.1-.2,14.3,1.2,20.8,4.2,20.1,9.4,48.9,22.4,67.1,27.9,9.1,2.8,16.9,4.5,23.7,6,10.8,2.4,19.7,4.4,28.2,9l-.3-10.9c4.4-114,1.2-228.6-38.6-335.8h0Z"/>
  <path class="st0" d="M672.3,570c-1.5-13.7-6.3-27.8-15.2-42.8-1.3-2.2-2.7-4.5-4.1-6.7-5.5-7.2-10.5-12-15.6-15.5-8.7-6-17.8-8.1-30.5-10.9-7-1.6-15-3.4-24.4-6.2-18.5-5.6-46.3-18.1-68.3-28.4-5.2-2.4-11-3.6-16.7-3.4-11.7.4-50.1,6.7-95.5,19.1-2.7.7-5,2.4-6.7,4.6-2.7,3.5-4,8.5-3.5,14,1.2,12.5,12,27.5,37.5,33.7,4.9,1.2,10.4,2,16.4,2.5,13,1,68.4,27,72.5,29.2,1.7.9,2.6,2.9,2.2,4.8-.2.8-.5,1.8-1.2,4.1-15.8,48-13,86.1,8.4,113.2,1.7,1.3,3.5,2.4,5.4,3.4,2.2,1.1,3.1,3.8,2,6.1-.4.8-1,1.4-1.7,1.8,23.7,13.3,49.8,35,68.3,21.1,0,0,0,0,0,0,3.1-2.3,6-5.7,8.7-10.3,24.7-43.2,64.9-83.8,62.1-133.1h0ZM630.3,567.6c-.7-.5-.2-.5.4-.3-.1,0-.3.2-.4.3Z"/>
</svg>