<?xml version="1.0" encoding="UTF-8"?>
<svg id="Calque_1" data-name="Calque 1" xmlns="http://www.w3.org/2000/svg" viewBox="0 0 850.39 850.39">
  <defs>
    <style>
      .cls-1 {
        fill: #d946e8;
      }
    </style>
  </defs>
  <path class="cls-1" d="M310.89,457.81h-.02l.16.26c-.05-.09-.1-.18-.14-.26Z"/>
  <path class="cls-1" d="M368.75,271.98c-22.18,1.26-51.64,3.7-65,4.42,1.84-16.29,14.27-29.39,30.15-30.96,7.63-.75,15.26-1.23,22.83-1.54.18,0,.37,0,.56-.02,11.19-.48,40.88-2.89,62.9-4.09,2.24-.12,4.43.09,6.51.61,6.31,1.56,11.67,5.84,14.8,11.68,0,0,20.35,29.67,29.67,44.16,1.25,1.95,2.48,3.88,3.69,5.79,2.76,4.36,4.35,9.76,4.45,15.26.08,3.71-.53,7.47-1.9,11-5.91,15.21-25,17.92-40.38,14.31-2.1-.48-4.13-1.09-6.04-1.8-1.83-.68-3.59-1.43-5.29-2.25-.8-1.29-1.6-2.59-2.4-3.89-9.98-16.09-31.75-49.03-31.75-49.03-3.35-6.49-9.08-11.24-15.83-12.97-2.23-.58-4.57-.81-6.97-.68Z"/>
  <path class="cls-1" d="M422.42,233.69c-12.81.72-28.05,1.85-41.22,2.81,5.85-6.96,14.02-11.65,23.29-12.59,8.19-.83,16.39-1.36,24.53-1.69,1.83-.08,4.2-.21,6.98-.38-.02,0-.01,0,.03,0,6.47.67,40.11,4.08,59.99,3,2.24-.11,4.43.1,6.51.62,6.31,1.56,11.67,5.83,14.8,11.67,0,0,20.35,29.68,29.67,44.16,1.25,1.96,2.48,3.88,3.69,5.8,2.76,4.35,4.35,9.75,4.45,15.25.08,3.72-.53,7.47-1.9,11-5.91,15.22-25,17.93-40.38,14.31-2.1-.48-4.13-1.09-6.04-1.79-1.74-.64-19.1-10.3-22.42-12.04-.4-3.99-1.36-7.55-3.49-11.03-1.29-2.12-2.61-4.26-3.94-6.42-9.98-16.09-31.75-49.03-31.75-49.03-3.35-6.49-9.08-11.24-15.83-12.97-2.23-.58-4.57-.81-6.97-.68Z"/>
  <path class="cls-1" d="M448.77,217.47c4.16-2.66,12.79-4.91,17.83-5.43,7.9-.83,15.8-1.35,23.64-1.69,11.12-.47,42.52-3.18,65.71-4.53,9.35-.54,17.76,4.98,22.08,13.54,0,0,23.96,37.17,34.53,54.95,4.79,8.05,6.17,19.25,2.65,28.88-6.96,19.01-31.53,20.28-48.07,13.77-2.32-.91-4.52-1.94-6.62-3.06-.39-.21-.78-.43-1.16-.64.84-3.09,1.21-6.29,1.14-9.47-.1-6.1-.8-11.1-3.76-15.95-1.29-2.11-2.61-4.25-3.94-6.42-9.98-16.08-31.75-49.02-31.75-49.02-3.35-6.5-9.08-11.25-15.83-12.98-2.23-.58-4.57-.81-6.97-.67-15.75.88-36.48-.26-49.47-1.28Z"/>
  <path class="cls-1" d="M666.97,520.13c.13,6.03-5.47,41.27-5.66,41.17.66,1.45-84.36,51.66-102.38,63.59-13.16,8.71-21.89,16.33-30.19,22.15,0,.01-.01.01-.02.02-.57.85-1.14,1.65-1.71,2.44h0c-18.81,25.76-40.99,18.68-90.41,22.32-73.25,5.4-152.5,3.87-170.6-86.56l-19.91-131.92-1.67-15.6c-1.11-10.44-1.19-20.97-.24-31.43.48-5.23,1-10.89,1.43-15.49h0c1.13-12.17,2.43-25.95,3.91-41.35l.31-30.93c.17-18.03,13.27-33.12,30.39-34.81,7.63-.75,15.26-1.23,22.84-1.54.17,0,.37,0,.56-.02,11.19-.48,40.87-2.89,62.89-4.09,2.24-.12,4.43.09,6.51.61,6.31,1.56,11.67,5.84,14.81,11.68,0,0,20.35,29.67,29.66,44.16,1.25,1.95,2.48,3.88,3.69,5.79,2.76,4.36,4.35,9.76,4.46,15.26.08,3.71-.54,7.47-1.91,11-5.9,15.21-25,17.92-40.38,14.31-2.1-.48-4.13-1.09-6.04-1.8-4.05-1.5-7.73-3.34-11.16-5.46-8.67-5.34-15.55-12.47-22.09-20.34-2.17-2.6-4.29-5.28-6.42-8-7.56,2.03-15.31,4.18-23.04,6.28.14,1.06.29,2.12.46,3.19,3.27,22.15,9.4,45.47,11.4,67.59.09,1.03.82,1.88,1.83,2.13.19.05.38.07.56.07,1.38,0,2.54-1.18,2.41-2.63-1.95-20.55-6.9-40.77-10.14-63.56-.18-1.18-.34-2.36-.48-3.54,8.25-2.33,6.01-2.37,14.09-4.63,2.29,3.02,9.6,10.73,11.91,13.62,6.46,8.05,23.92,18.77,34.13,21.83,3.55,1.07,7.55,1.69,11.7,1.83l.87,11.79c.08,1.05.04,2.1-.07,3.14-.2,1.88-.22,5.04,1.99,4.86,3.13-.26,2.23-2.23,2.23-7.91,0-4.61-.45-9.28-.75-11.9,13.62-.58,27.76-6.27,32.23-18.21,1.46-3.92,2.11-8.09,2.02-12.21-.06-3.71-.34-7.01-1.23-10.12l3.57,1.44c4.2,1.26,9.11,1.83,14.18,1.7l3.85,32.36c.08,1.05.05,2.1-.07,3.14-.2,1.88-.22,5.04,1.99,4.86,3.13-.26,2.23-2.23,2.23-7.92s-2.67-24.81-3.8-32.71c13.27-1.36,26.69-7.51,30.93-18.83,1.21-3.22,1.86-6.62,2-10.02l19.44,9.89c1.89.97,3.87,1.79,5.9,2.44,4.01,31.68,3.95,130.56,10.01,152.88h0c.11.41.23.83.34,1.23h0c.35,1.32.73,2.64,1.1,3.95-17.67-8.16-41.69-8.29-59.27-4.26-1.35.31-2.19,1.65-1.88,3,.32,1.35,1.66,2.19,3,1.88,15.12-3.49,35.21-3.77,51.11,1.88,5.54,1.96,10.42,5.42,14.21,9.91,2.73,3.26,5.75,6.89,6.12,7.52,2.59,4.31,4.26,9.25,7.63,13.33,5.48-2.17,10.9-4.47,16.27-6.72,11.61-4.86,23.75-9.64,36.14-12.63,1.46-7.2,3.53-14.18,7.17-19.24,14.59-20.28,41.69-46.21,59.17-29.39,1,.96,1.89,2.13,2.66,3.46v.02c6.5,15.41,2.92,45.84,3.21,60.05Z"/>
</svg>