<?xml version="1.0" encoding="UTF-8"?>
<svg id="Calque_1" data-name="Calque 1" xmlns="http://www.w3.org/2000/svg" viewBox="0 0 850.39 850.39">
  <defs>
    <style>
      .cls-1 {
        fill: #d946e8;
      }
    </style>
  </defs>
  <path class="cls-1" d="M278.61,470.23c-4.55,15.75-.5,31.77,3.4,47.27,1.18,4.68,2.4,9.52,3.34,14.2,3.77,18.89.32,42.32-16.19,49.1-12.44,5.1-26.98-1.68-36.44-9.73-12.48-10.63-21.88-25.26-28.35-44.3,0,0-.01-.01,0-.02l-9.54-48.14s.01,0,0-.02l-1.27-20.36c-.53-17.08.33-34.18,2.56-51.14.74-5.68,1.71-11.61,4.56-16.35,5.81-9.64,17.49-15.93,32.05-17.25,16.07-1.46,31.8,3.67,40.07,13.06,7.86,8.91,11.94,18.3,13.59,27.95.94,5.54,1.08,11.16.67,16.84-1.05,5.68-1.87,11.2-2.46,16.27-1.64,7.55-3.82,15.12-5.99,22.62Z"/>
  <path class="cls-1" d="M598.75,535.82l-2.22,87.94c-12.02,83.7-103.63,135.85-181.1,135.85l-28.7.04c-61.01,0-96.29-9.17-130.71-61.64-17.05-26-28.67-55.17-34.71-85.67l-11.31-57.11c5.17,8.21,11.23,15.25,18.18,21.17,8.25,7.02,19.99,13.15,31.81,13.15,3.98,0,7.97-.69,11.83-2.28,14.67-6.02,21.12-21.44,21.88-37.97,2.65,7.96,5.95,16.59,10.03,25.99,4.83,11.11,15.86,19.51,29.5,22.46,3.26.7,6.51,1.05,9.68,1.05,9.45,0,18.21-3.06,24.53-8.78,12.03-10.88,13.9-28.31,14.26-40.47.47-16.07-1.39-26.67-3.2-36.92-2.2-12.5-4.1-23.31-1.34-42.13.61-4.22,1.98-10.39,3.57-17.54,2.47-11.14,5.3-23.87,7.02-36.2.1-.72.2-1.44.29-2.16.11-.81.21-1.61.3-2.41l.61-5.91s-.02,0-.02-.02c.02-.22.04-.43.05-.63-6.71-8.83-19.32-30.23-30.61-47.1-13.3-22.59-25.42-45.83-36.25-69.57-18.67-40.92-38.48-94.75-25.89-148.32,4.03-17.16,18.92-40.77,38.07-36.95,8.99,1.79,17.19,8.59,20.89,17.33,24.7,58.41,54.75,119.8,89.31,182.45.41.74.52.94,1.22,2.03-7.77,11.9-12.8,25.5-14.96,35.31-4.94,22.45,2.22,44.78,10.66,65.9.55,1.38,1.11,2.76,1.67,4.13l.74,1.81c8.49,20.72,17.26,42.16,14.82,63.96-.36,3.15-1.05,6.28-2.03,9.33-4.23,13.09-13.84,24.59-25.04,29.12-14.19,5.75-25.26,16.76-30.35,30.2-.35.93-.71,1.88-1.07,2.86-9.92,26.88.68,54.63,7.87,68.78.46.89.93,1.78,1.4,2.67.64,1.18,1.84,1.84,3.09,1.84.56,0,1.13-.13,1.65-.41,1.13-.6,1.8-1.74,1.84-2.94.03-.61-.1-1.23-.41-1.81-.45-.83-.9-1.68-1.33-2.53-6.68-13.13-16.54-38.79-7.54-63.17.35-.97.7-1.9,1.05-2.81,4.4-11.63,14.03-21.17,26.43-26.19,13.81-5.59,25.19-19.47,29.67-35.38.81-2.87,1.39-5.81,1.72-8.78,2.65-23.58-6.47-45.85-15.29-67.39l-.74-1.81c-.3-.74-.61-1.49-.91-2.23-8.35-20.65-15.72-42.46-11.06-63.64,1.95-8.87,6.73-20.92,13.11-31.31,5.23-8.51,11.55-15.9,18.28-19.54,4.46-2.42,8.56-2.86,12.52-1.35,9.89,3.76,18.65,26.19,24.45,41.03,1.85,4.74,3.45,8.84,4.93,12.06l9.77,21.26,17.92,39.01,5.23,11.37c2.89,6.29,39.55,74.28,37.83,118.4-1.37,35.01-5.1,68.71-17.07,100.34-.08.21-.13.42-.17.63-.29,1.62.61,3.28,2.2,3.88.41.16.83.23,1.24.23,1.42,0,2.75-.86,3.28-2.26,12.04-31.82,17.92-65.65,17.56-100.81-.08-6.62-.37-13.3-.89-20.01-2.31-30.06-15.73-57.78-28.71-84.59-2.97-6.15-6.05-12.5-8.91-18.73l-3.62-7.88-24.75-53.86c.71-11.87.81-23.61.38-34.98-1.85-48.27,1.53-99.55-2.97-147.71-1.84-19.76-3.77-40.41,4.29-58.63,8.07-18.21,29.7-32.76,50.23-26.97,21.18,5.97,30.38,28.81,35.33,48.81,32.91,133.06,12.48,270.81-10.31,405.11Z"/>
  <path class="cls-1" d="M381.69,408.09c-.16,1.6-.35,3.22-.55,4.85-1.68,13.47-4.83,27.63-7.24,38.51-1.62,7.27-3.02,13.56-3.67,18.04-2.92,19.94-.83,31.8,1.38,44.36,1.74,9.9,3.55,20.14,3.09,35.5-.51,17.29-4.31,28.56-11.95,35.48-6.79,6.13-17.27,8.4-28.04,6.08-11.28-2.44-20.69-9.49-24.56-18.41-21.19-48.78-25.71-69.79-25.17-90.91.09-3.45,5.69-25.95,6.38-32.19,1.27-5.87,2.25-11.81,2.67-17.75,1.03-5.49,2.28-11.06,3.76-16.47,4.31-15.89,10.47-30.39,18.44-37.19,8.5-7.26,23.59-12.58,37.21-12.58.3,0,.59,0,.89.02.68,0,27.43,41.86,27.36,42.66Z"/>
</svg>