<?xml version="1.0" encoding="UTF-8"?>
<svg id="Calque_1" data-name="Calque 1" xmlns="http://www.w3.org/2000/svg" viewBox="0 0 850.39 850.39">
  <defs>
    <style>
      .cls-1 {
        fill: #d946e8;
      }
    </style>
  </defs>
  <path class="cls-1" d="M515.92,480.36c-.04.16-.08.31-.12.47-.99,3.77-5.5,14.56-10.21,23.19h-.01c-1.31,1.6-2.69,3.11-4.13,4.53l-.16.16c-.3.3-.62.6-.95.92-5.91,5.55-16.77,13.38-29.16,10.97-19.29-3.73-28.33-29.48-28.56-51.81-.05-5.01.23-10.14.6-15.38.04-.65.08-1.3.13-1.96,0-.08,0-.15.02-.23.62.32,1.22.64,1.82.93.03.01.06.02.09.04,7.26,2.67,16.22,5.33,24.14,7.03,2.78.36,10.85,1.75,11.31,1.78,7.5,4.7,15.31,8.9,22,12.4l1.5.78c3.84,2.01,7.79,4.07,11.69,6.18Z"/>
  <path class="cls-1" d="M629.18,598.86s-.01.02-.02.03c-5.21,7.99-10.28,15.95-14.85,23.95-.47.83-.95,1.59-1.39,2.32-.01,0-.01.01-.01.01,0,0,0,.02-.02.03-.01,0-.01,0-.01,0-1.55,2.02-3.15,4.01-4.8,5.95l-.02.02c-31.42,37-79.44,58.39-131.22,58.39l-54.56-.98c-63.28,0-100.31-8.89-136.05-59.18-18.89-26.58-31.8-56.94-38.46-88.86l-14.28-68.42c-17.56-49.44-28.58-100.76-32.73-152.46-3.25-40.42-1.66-83.28,21.29-117.57,8.99-13.42,27.68-26.03,42.11-17.1,7.3,4.53,11.77,12.79,12.19,20.81,2.54,48.85,7.9,96.01,13.8,136.69,6.7.04,13.72.3,20.99.66,3.88,14.12,9.97,29.07,15.16,41.84,2.76,6.77,5.14,12.62,6.46,16.69,5.87,18.09,5.8,29.06,5.73,41.76-.07,10.41-.13,21.17,3.03,36.93,2.39,11.93,7.15,28.8,20.83,37.51,5.37,3.42,11.83,5.15,18.63,5.15,5.37,0,10.96-1.08,16.39-3.26,12.96-5.19,22.43-15.32,25.33-27.09,4.62-18.74,6.93-34.33,7.81-47.54,2.06,1.27,4.08,2.39,6.06,3.37-.01.18-.03.35-.04.53l-.02.3c-.01.1-.01.19-.02.28l-.02.18c-.46,6.21-.9,12.79-.84,19.05.27,25.93,10.96,54.11,34.23,58.62,1.97.38,3.95.56,5.95.56,9.05,0,18.37-3.85,26.99-11.21.07-.06.15-.12.22-.19-.58,6.49-.03,13.03,1.7,19.28.27.99.55,2.02.85,3.04.24.83.49,1.65.76,2.46.6,1.84,2.58,2.84,4.41,2.24,1.84-.6,2.84-2.58,2.24-4.42-.24-.73-.46-1.46-.68-2.22-.3-1.01-.57-2.01-.86-3.05-2.36-8.55-2.16-17.77.43-26.56h.01c1.28-4.38,3.16-8.65,5.61-12.67,2.19-3.58,3.88-7.58,5.03-11.93h0c.19-.66.35-1.31.49-1.97v-.02c.13-.53.24-1.07.35-1.61l.48-2.51-2.24-1.23c-.09-.05-.17-.09-.26-.14-4.62-2.52-9.32-4.97-13.86-7.35l-1.5-.79c-6.78-3.55-14.74-7.82-22.26-12.59l-.78-.49-.92-.05c-9.43-.47-27.29-5.49-38.1-9.93-.62-.25-1.22-.5-1.78-.75-.29-.12-.56-.24-.83-.37-.27-.12-.53-.24-.79-.36-.08-.03-.16-.07-.24-.11-.2-.09-.39-.19-.58-.28-.85-.42-1.71-.87-2.57-1.34h0c-2.07-1.14-4.17-2.44-6.25-3.87-1.95-1.33-3.88-2.78-5.76-4.33-.37-.31-.74-.62-1.11-.94-8.77-7.47-16.29-17.02-18.81-26.65-1.58-6.03-.95-11.44,1.86-16.1,3.25-1.03,7-2.03,11.13-2.98.29-.06.58-.13.87-.2,1.92-.43,3.92-.85,5.98-1.27.02,0,.05,0,.07,0,.83-.17,1.66-.33,2.51-.5.33-.06.67-.13,1.01-.19,34.41-6.53,83.08-10.4,87.54-9.32,3.21.93,6.57,2.05,10.03,3.32.01,0,.02,0,.03,0,.03.01.07.02.1.04.07.04.15.07.22.11v-.03c1.03.37,2.07.76,3.11,1.16.2.08.4.16.6.24.28.11.56.22.85.33.92.36,1.86.73,2.79,1.11.03.01.05.02.08.03.33.13.67.27,1,.41,1.29.52,2.58,1.05,3.88,1.6,4.74,1.97,9.55,4.08,14.3,6.16,9.54,4.17,18.66,8.15,27.03,11.15.05.02.09.03.14.05,1.17.38,2.3.74,3.4,1.07,19.83,5.99,33.35,7.3,45.1,11.94.03,0,.05.02.08.03.04.02.08.03.12.05.38.13.76.26,1.14.4,0,.02-.01.05,0,.07.41.17.82.35,1.23.54,0-.05,0-.1,0-.14,1.15.45,2.28.93,3.39,1.45,1.13.53,2.24,1.1,3.35,1.73-.01.19-.03.37-.05.56.29.19.57.38.86.57,5.76,3.8,11.4,9.15,17.56,17.16,1.57,2.38,3.02,4.75,4.37,7.1,34.88,60.63-.84,108.77-31.71,156.08Z"/>
  <path class="cls-1" d="M631.9,406.94c-.53-.19-1.07-.38-1.62-.56-5.41-1.8-11.18-3.11-17.66-4.58-6.88-1.56-14.69-3.33-23.8-6.09-9.7-2.94-20.95-7.87-32.86-13.08-6.25-2.73-12.6-5.5-18.81-8.02-.63-2.87-1.34-5.98-2.09-9.26-2.12-9.34-4.73-20.81-6.76-32.5-4-22.98-5.79-46.82,2.7-57.03,6.31-7.57,15.8-9.87,22.65-10.46,1.47-.13,2.98-.19,4.51-.19,6.98,0,14.41,1.29,21.27,3.58,6.85,2.28,13.13,5.55,17.77,9.49,12.69,10.78,23.4,42.88,29.47,70.72,0,.01.01.02,0,.03.14.87.27,1.73.4,2.59h.01c.07.11.14.2.21.3,2.98,14.23,4.69,27.08,4.76,35l.02,1.86c.06,5.95.12,11.81-.17,18.2Z"/>
  <path class="cls-1" d="M423.8,440.59c-.62,13.62-2.88,30-7.91,50.43-2.32,9.44-10.42,17.97-21.13,22.26-10.23,4.1-20.94,3.61-28.66-1.3-8.69-5.53-14.33-16.01-17.73-32.97-3.02-15.07-2.95-25.47-2.89-35.52.07-12.75.14-24.8-6.07-43.96-1.4-4.31-3.82-10.27-6.64-17.17-4.42-10.87-10.25-25.18-14.19-38.81-4.41-15.26-6.44-29.66-1.46-37.37,7.65-11.85,30.63-18.74,49.35-18.74,8.37,0,15.9,1.38,20.81,4.32,11.45,6.83,18.67,29.18,23.35,50.68,2.7,12.44,4.56,24.59,5.89,33.3.18,1.2.36,2.34.53,3.42-5.11,1.16-9.65,2.37-13.38,3.61l-1.11.37-.67.97c-4.47,6.53-5.67,14.41-3.47,22.79,3.43,13.07,14.05,25.19,25.38,33.69Z"/>
  <path class="cls-1" d="M525.41,370.17c-2.49-.87-4.93-1.65-7.31-2.34-1.01-.29-3.13-.42-6.11-.41h-.03c-7.1.03-19.09.84-32.79,2.26h-.03c-8.24.85-17.09,1.91-25.88,3.14h-.03c-7.88,1.71-17.15,3.82-26.19,5.84-.2.04-.4.09-.6.13-.12.03-.24.05-.35.08-.17.04-.38.08-.62.11-.38.06-.84.1-1.34.15-.08-.46-.15-.94-.22-1.44.32-.06.64-.13.96-.19-.55-1.37-1.1-2.76-1.63-4.16v-.02c-.23-1.44-.46-2.93-.7-4.48h0c-1.25-8.05-2.81-17.48-4.88-27.09l.6-.06c-.03-.12-.06-.24-.08-.36-1.52-7.31-2.34-14.24-2.45-20.59-.11-5.64.33-10.91,1.32-15.68l.12-.36v-.23c.74-3.45,1.78-6.71,3.09-9.7,5-11.48,17.97-19.9,34.7-22.53,18.15-2.86,35.9,2.14,45.25,12.73,4.06,4.59,7.88,16.05,9.93,22.2l.08.24c2.82,8.46,5.37,17.07,7.56,25.6.07.27.14.54.21.81l.41,1.59c2.86,11.45,5.22,23.13,7.01,34.76Z"/>
</svg>