<?xml version="1.0" encoding="UTF-8"?>
<svg id="Calque_1" xmlns="http://www.w3.org/2000/svg" version="1.1" viewBox="0 0 850.4 850.4">
  <!-- Generator: Adobe Illustrator 29.8.3, SVG Export Plug-In . SVG Version: 2.1.1 Build 3)  -->
  <defs>
    <style>
      .st0 {
        fill: #a3214b;
      }
    </style>
  </defs>
  <path class="st0" d="M788.8,495.4c-2-24.7-47.8-27.2-70.9-21.4-23,5.8-40.6,24.9-56.3,43.5-15.7,18.6-32,38.4-54.2,46.8-3,1.1-6.1,1.9-9.3,2.4v-1.5c-26.1-10.4-86.6-8.8-111.2,25.5-.9,1.2-2.3,1.9-3.6,1.9s-1.8-.3-2.6-.8c-2-1.5-2.5-4.3-1-6.3,27.2-37.7,88.9-39.4,118.2-29.9l-1.9-61c4.8-120.6,2.9-242.2-36.1-355.7-6.8-19.8-17.9-41.9-38.5-45.6-19.9-3.5-38.7,13.8-44.4,33.2-5.7,19.4-1.6,40.2,2.2,60.1,9.4,48.4,11.6,100.9,18.5,149.8,3.2,22.7,4.6,47,3.5,71.3-.1,3.3-2.9,5.9-6.2,6h-4.6c-4.2.2-7.8-2.9-8.3-7-9.1-63.6-22.1-173.8-23.5-291.1-.1-10.5-5.1-21.4-13.6-27.4-16.8-12-39.8,3.9-51.1,21.2-29.1,44.1-33,99.9-31,152.7,1.9,52.4,8.9,104.6,20.6,155.7.6,2.9-1.3,5.6-4.2,6l-12.5,1.3c-2.6.3-5-1.5-5.4-4.1-8.4-57.8-20.1-155.8-21.5-260.1-.1-9.4-4.7-19.3-12.4-24.8-15.3-10.9-36.2,3.4-46.5,19-26.4,39.7-29.9,90.1-28,137.7,1.9,48.9,8.7,97.6,20.1,145.2.5,2.3-.6,4.6-2.8,5.6-2.7,1.3-5.4,2.6-8,4-4.5,2.4-10.1-.3-11.1-5.3-8.1-40.9-16.2-88.3-21.8-137.6-.9-8.2-5.7-16.3-12.9-20.4-14.2-8.1-31.1,6.1-38.7,20.4-19.5,36.6-18.2,80.5-12.5,121.5,5.8,41.6,15.6,82.6,29.3,122.3,0,1.2,38.2,108.5,38.2,108.5,45.3,101.7,80.8,120.9,158.1,120.9l51.7,1c23,0,45.2-4.8,65.4-13.8,37.6-6.1,91.9-43.6,118-64.3,29.4-23.4,53-53.7,76.2-83.8,16.8-21.8,33.7-43.5,50.5-65.3,10-13,37.4-39.3,36.1-55.9h0ZM590.3,568.6c-.6-.5-.2-.5.4-.3-.1.1-.3.2-.4.3ZM592.4,567.3c-.2,0-.4,0-.7,0,.3-.3.5-.7.7-1.1v1.1Z"/>
</svg>