<?xml version="1.0" encoding="UTF-8"?>
<svg id="Calque_1" xmlns="http://www.w3.org/2000/svg" version="1.1" viewBox="0 0 850.4 850.4">
  <!-- Generator: Adobe Illustrator 29.8.3, SVG Export Plug-In . SVG Version: 2.1.1 Build 3)  -->
  <defs>
    <style>
      .st0 {
        fill: #a3214b;
      }
    </style>
  </defs>
  <path class="st0" d="M415.3,423h0c0,.2.1.3.2.5,0-.2,0-.3,0-.5ZM406.7,389c0,.2,0,.5-.1.7.1.4.3.8.4,1.2-.1-.6-.2-1.2-.3-1.9h0ZM449.9,538.4c-.2,0-.5-.2-.7-.2-.2,0-.5-.2-.7-.2-.2,0-.5-.2-.7-.2-.2,0-.5-.1-.7-.2-.7-.2-1.4-.4-2-.6-.3,0-.6-.2-.8-.2-.4,0-.7-.2-1-.2-.6-.1-1.1-.2-1.5-.3-.3,4.5-.5,8.9-.5,13.2.2,21.9,9,47.2,27.8,50.8,11.6,2.2,23-4.9,31.2-13.7,1.1-5.3,2.4-10.1,3.6-14.2,1.3-5.3,2.3-7,2.4-10.6-12.5-5.9-41-18.3-56.3-23.4h0ZM432.5,555.2c.9,19.8,8.3,41.9,24.1,49.7-15-9-22.7-29.5-24.1-49.7Z"/>
  <g>
    <path class="st0" d="M416.8,531.5c-1.2,10-3.3,21.4-6.5,34.4-2.2,9.1-10.1,17.4-20.5,21.6-9.9,4-20.3,3.5-27.8-1.2-8.5-5.4-13.9-15.7-17.3-32.3-3-15-2.9-25.3-2.9-35.3,0-12.8.1-25-6.1-44.3-1.8-5.5-6.1-13.7-11.5-24.1-3.9-7.5-8.5-16.2-12.5-25-4-8.5-7.5-17.1-9.6-24.7.2-5.1,1.2-9.5,3.4-12.9,12.3-19,57.9-25.6,74.9-15.5,12.3,7.4,19.9,30,24.8,52,2.9,13.3,4.9,26.3,6.3,35.5-5.1,1.3-10.3,2.6-15.6,4.1-11.2,3.1-18.1,14.7-16.8,28.2,1.4,14.4,12.4,31.5,37.8,39.7Z"/>
    <path class="st0" d="M514.3,414.7h0c-2.2-8.4-4.7-16.8-7.4-25-2.2-6.7-6.1-18.5-10.7-23.7-21.1-23.9-73.5-17.5-85.8,10.7-1.7,3.9-2.9,8-3.7,12.3h0c0,.6.2,1.2.3,1.9-.1-.4-.3-.8-.4-1.2-1.8,10.6,1.5,16.7,3.9,28.5,0,0,6.2,34.8,8.2,39.6.8-.2,1.6-.4,2.4-.6,2.2-.5,4.3-1,6.4-1.5,31.8-7.4,56.8-11.1,66-11.4,7.1-.2,14.3,1.2,20.8,4.2,2.5,1.2,5.1,2.4,7.8,3.6-2-12.6-4.6-25.1-7.8-37.5h0ZM415.3,423.1h0v.5c0-.2,0-.3,0-.5Z"/>
    <path class="st0" d="M632.4,491c0,.6,0,1.1,0,1.7v-1.8c-8.2-4.2-16.9-6.1-27.3-8.5-6.9-1.5-14.7-3.3-23.7-6-13.3-4-32.3-12.1-49.4-19.8-1.2-.5-2.4-1.1-3.6-1.6.6-3.8,1.1-7.5,1.6-11.3,1.2-9.7,1.8-19.6,2.1-29.4.5-21-1-41.9-4-61.6-7.3-47.8-9.7-99.1-19.5-146.4-4.1-19.4-8.3-39.7-2.3-58.7,6-19,25.8-35.9,46.9-32.4,21.7,3.6,33.4,25.2,40.6,44.5,39.3,105.8,42.9,218.9,38.8,331.4h0Z"/>
    <path class="st0" d="M649.1,642.3c-8.9,13.9-19.1,27.7-28.3,42.3,0,0,0,0,0,0-28.4,54.2-86.5,86.7-150.3,86.7l-54.6-1c-63.3,0-100.3-8.9-136-59.2-18.9-26.6-31.8-56.9-38.5-88.8l-29.7-142.4c0-11.4,1.7-20.6,5-27.9-1.2-10.3.5-20.9,7-32,12.2-20.6,52.6-28.2,70.3-10,1.1,1.2,2.1,2.4,3,3.8,1.4,3.6,2.9,7.3,4.6,11,.7,1.6,1.4,3.2,2.2,4.8h0s0,0,0,0,0,0,0,0,0,0,0,0c.6,1.2,2.5,6.9,2.5,6.9,0,0,0,0,0,0,6.7,18.4,7.7,23.4,9.2,40.2h0c.1.9.2,1.7.4,2.5,0,0,0,.1,0,.2h0c0,1.2.2,2.3.3,3.6v1.6c3,33.4-2.6,58.1-16.8,75.8-5.8,7.2-15.2,14.3-25.1,14.7-.6,0-1.1,0-1.7,0-.9,0-1.8-.1-2.7-.3-15.3-2.7-22.4-21.4-22.6-37.6-.3-26.5-1.7-55.5-10.1-70.5-.8-1.5-2.4-2.3-3.9-2.3h-.1c-.8,0-1.5.2-2.2.6-2.2,1.2-2.9,4-1.8,6.1,3.6,6.5,5.8,17,7,28h0c1.6,14.3,1.8,29.6,1.9,38.2,0,4.7.6,9.5,1.6,14.2h0c3.5,15.6,12.7,29.5,28.4,32.2.9.2,1.8.3,2.8.3.4,0,.9,0,1.3,0,.4,0,.8,0,1.1,0s.7,0,1.1,0c.3,0,.6,0,.9,0,9-.5,18.2-4.9,26-12.5h0c.1-.2.3-.4.4-.6,1.5-1.5,3-3.2,4.5-4.9,15.8-19.5,22-46.4,18.9-82.2v-1.6c-.3-2.4-.5-4.6-.7-6.6-.2-2.5-.4-4.7-.6-6.7,0,.1.1.3.2.4h0c1.5,3.1,2.6,5.7,3.3,7.7,4.5,13.8,5.5,23.4,5.7,32.8h0l.5,27.4s0,0,0,0c.4,5.4,1.2,11.5,2.6,18.4,2.4,12.1,7.3,29.2,21.3,38.2,5.5,3.5,12.2,5.3,19.2,5.3s11.2-1.1,16.8-3.3c2-.8,3.9-1.7,5.7-2.7,0,0,0,0,0,0,10.3-5.7,17.7-14.8,20.2-25,3.1-12.8,5.2-24.1,6.5-34.2,2.3.5,4.7.9,7.2,1.3-.3,4.8-.5,9.6-.5,14.2,0,1.9.1,3.8.2,5.7h0c.9,19.9,8.3,41.9,24.1,49.8,0,0,0,0,0,0,3.2,1.9,6.8,3.3,10.6,4.1,2,.4,4.1.6,6.1.6,8.8,0,17.2-3.6,24.4-8.9-.5,3.7-.9,7.6-1.1,11.5-1.6,28.9,5.2,53.2,20.4,72.2,1.5,2,4.4,2.3,6.3.7,2-1.5,2.3-4.4.7-6.3-10.2-12.9-16.3-28.2-18.1-46-1.3-12.9-.5-27,2.6-42.3,1-5.2,2.4-10.5,3.9-16,.5-1.8,1-3.6,1.6-5.4,0,0,0,0,0,0,.4-1.3.8-2.6,1.3-4,.7-2.3,1.1-3.3,1.2-4.1.1-.6.1-1.2,0-1.7-.2-1.3-1.1-2.4-2.3-3.1-1-.5-4.6-2.3-9.9-4.8-17.3-8-51.5-23.2-62-24.4-.2,0-.3,0-.5,0-2.8-.2-5.5-.5-8.1-.9-.1,0-.2,0-.4,0-2.4-.4-4.7-.8-6.9-1.3-2.8-.6-5.4-1.4-7.9-2.2-.3,0-.6-.2-.9-.3-20-7.1-28.7-20.2-29.8-31.4-.9-9.1,3.3-16.8,10.2-18.6,5-1.4,9.9-2.6,14.7-3.9.3,0,.7-.2,1-.3,2.6-.6,5.1-1.3,7.6-1.9.2,0,.4-.1.6-.1.2,0,.3,0,.5-.1h0c2.9-.7,5.6-1.4,8.4-2,30.3-7,54-10.5,62.7-10.8,5.7-.2,11.5,1,16.7,3.4,4.2,2,8.6,4,13.1,6.1,0,0,0,0,0,0,1,.5,2,.9,3.1,1.4,2.2,1,4.3,2,6.5,2.9,16.3,7.2,33,14.2,45.5,17.9,9.4,2.8,17.3,4.6,24.4,6.2,11.9,2.7,20.7,4.7,29,9.9,0-.6,0-1.2,0-1.9.2,0,.3.2.5.3v2c5.5,3.5,10.7,8.5,16.6,16.1,1.5,2.3,2.8,4.5,4.1,6.7,26.2,44.1,16.2,81.4-4.2,117.9h0Z"/>
  </g>
</svg>