<?xml version="1.0" encoding="UTF-8"?>
<svg id="Calque_1" data-name="Calque 1" xmlns="http://www.w3.org/2000/svg" viewBox="0 0 850.39 850.39">
  <defs>
    <style>
      .cls-1 {
        fill: #d946e8;
      }
    </style>
  </defs>
  <path class="cls-1" d="M724.84,372.63c-14.28-19.62-57.01,3.2-74.91,20.62-17.9,17.41-24.19,42.92-29.02,67.04-3.48,17.39-6.92,35.47-14.55,51.38-.68,1.4-1.38,2.79-2.13,4.16h0c-.36.68-.74,1.34-1.12,2.01-.56.98-1.14,1.94-1.74,2.89.07-1.4.13-2.81.19-4.22-.5-.03-1-.15-1.48-.36-25.38-10.92-87.29-9.72-112.29,25-.88,1.22-2.26,1.87-3.66,1.87-.91,0-1.83-.27-2.62-.84-2.02-1.46-2.48-4.27-1.02-6.29,28.23-39.21,93.77-39.49,121.5-28.69.16-3.45.31-6.91.45-10.36,4.76-116.13,2.16-233.06-38.36-342.29-7.17-19.31-18.88-40.97-40.6-44.52-21.05-3.45-40.9,13.44-46.87,32.45-5.97,19-1.72,39.31,2.33,58.74,9.88,47.35,12.3,98.68,19.56,146.44,2.85,18.74,4.33,38.64,4,58.69-7.03.16-14.37.33-22.02.42-9.51-63.3-22.01-165.99-23.35-275.06-.12-10.23-5.35-20.88-14.34-26.83-17.77-11.75-41.99,3.83-54.01,20.7-30.68,43.11-34.84,97.68-32.76,149.27,1.92,47.63,8.36,95.09,19.2,141.68l-22.49,2.3c-8.68-57.45-19.63-147.5-21.01-242.95-.13-9.23-4.92-18.84-13.12-24.22-16.2-10.64-38.24,3.37-49.15,18.58-27.87,38.84-31.55,88.07-29.56,134.61,1.91,44.38,8.2,88.61,18.76,131.98-6.23,2.76-12.23,5.85-17.96,9.27-8.49-39.57-16.82-85.27-22.58-132.76-.96-7.97-5.99-15.9-13.58-19.91-15.01-7.93-32.79,5.93-40.84,19.94-20.54,35.78-19.2,78.65-13.18,118.75,5.66,37.77,68.24,223.13,68.24,223.13,47.86,104.11,85.34,123.69,167,123.69l54.55,1.03c4.44,0,8.84-.16,13.21-.49.03,0,.06,0,.09-.01,90.14-3.54,176.76-56.11,227.14-146.53,18.77-33.69,20.89-73.84,26.8-111.66,4.28-27.4,8.56-54.79,12.84-82.19,2.55-16.32,14.07-53.27,4.46-66.46Z"/>
</svg>