<?xml version="1.0" encoding="UTF-8"?>
<svg id="Calque_1" data-name="Calque 1" xmlns="http://www.w3.org/2000/svg" viewBox="0 0 850.39 850.39">
  <defs>
    <style>
      .cls-1 {
        fill: #d946e8;
      }
    </style>
  </defs>
  <path class="cls-1" d="M279.65,448.19h-.02l.35.57c-.12-.2-.23-.39-.33-.57Z"/>
  <path class="cls-1" d="M337.52,262.35c-22.18,1.26-51.64,3.7-65,4.42,1.84-16.29,14.27-29.39,30.15-30.96,7.63-.75,15.26-1.23,22.83-1.54.18,0,.37,0,.56-.02,11.19-.48,40.88-2.89,62.9-4.09,2.24-.12,4.43.09,6.51.61,6.31,1.56,11.67,5.84,14.8,11.68,0,0,20.35,29.67,29.67,44.16,1.25,1.95,2.48,3.88,3.69,5.79,2.76,4.36,4.35,9.76,4.45,15.26.08,3.71-.53,7.47-1.9,11-5.91,15.21-25,17.92-40.38,14.31-2.1-.48-4.13-1.09-6.04-1.8-1.83-.68-3.59-1.43-5.29-2.25-.8-1.29-1.6-2.59-2.4-3.89-9.98-16.09-31.75-49.03-31.75-49.03-3.35-6.49-9.08-11.24-15.83-12.97-2.23-.58-4.57-.81-6.97-.68Z"/>
  <path class="cls-1" d="M391.19,224.06c-12.81.72-28.05,1.85-41.22,2.81,5.85-6.96,14.02-11.65,23.29-12.59,8.19-.83,16.39-1.36,24.53-1.69,1.83-.08,4.2-.21,6.98-.38-.02,0-.01,0,.03,0,6.47.67,40.11,4.08,59.99,3,2.24-.11,4.43.1,6.51.62,6.31,1.56,11.67,5.83,14.8,11.67,0,0,20.35,29.68,29.67,44.16,1.25,1.96,2.48,3.88,3.69,5.8,2.76,4.35,4.35,9.75,4.45,15.25.08,3.72-.53,7.47-1.9,11-5.91,15.22-25,17.93-40.38,14.31-2.1-.48-4.13-1.09-6.04-1.79-1.74-.64-19.1-10.3-22.42-12.04-.4-3.99-1.36-7.55-3.49-11.03-1.29-2.12-2.61-4.26-3.94-6.42-9.98-16.09-31.75-49.03-31.75-49.03-3.35-6.49-9.08-11.24-15.83-12.97-2.23-.58-4.57-.81-6.97-.68Z"/>
  <path class="cls-1" d="M669.02,274.96c-4.6-6.92-12.97-11.02-21.08-11.25-47.36-1.3-96.56-2.07-136.53-6.58,34.73,35.74,15,60.6-6.13,67.4-8.62,2.78-19.96.81-26.52-.81,0-.03-.01-.05-.01-.08-2.03-.65-4.01-1.47-5.91-2.44l-19.43-9.89c-.14,3.4-.8,6.8-2.01,10.02-5.74,15.34-28.33,21.18-44.58,18.48.06,8.09.12,27.35-.61,32.75-.76,5.63-.14,7.71-3.28,7.54-2.21-.12-1.77-3.25-1.31-5.08.25-1.02.42-2.05.48-3.1l.55-33.04c-.18-.04-.37-.1-.55-.15l-3.57-1.44c.89,3.11,1.17,6.41,1.23,10.12.09,4.12-.56,8.29-2.03,12.21-6.32,16.89-31.97,21.27-48.19,16.4-1.99-.6-4.26-1.49-6.67-2.59.29,2.72.65,6.91.65,11.06,0,5.68.89,7.66-2.23,7.91-2.21.18-2.19-2.98-1.99-4.86.11-1.04.14-2.09.07-3.13l-.97-13.18c-8.91-4.71-18.56-11.51-22.99-17.04-2.31-2.89-9.62-10.6-11.91-13.62-8.08,2.26-5.84,2.3-14.1,4.63.15,1.18.31,2.36.48,3.54,3.25,22.79,8.2,43.01,10.15,63.56.13,1.45-1.03,2.63-2.41,2.63-.18,0-.37-.02-.56-.07-1.01-.25-1.74-1.1-1.83-2.13-2-22.12-8.13-45.43-11.41-67.59-.16-1.07-.31-2.13-.45-3.19,7.72-2.1,15.48-4.25,23.03-6.28,2.14,2.72,4.26,5.4,6.42,8,6.54,7.87,13.43,15,22.1,20.34,3.42,2.12,7.11,3.96,11.16,5.46,1.91.71,3.94,1.32,6.04,1.8,15.38,3.61,34.47.9,40.38-14.31,1.37-3.53,1.98-7.29,1.9-11-.1-5.5-1.69-10.9-4.45-15.26-1.21-1.91-2.44-3.84-3.69-5.79-9.32-14.49-29.67-44.16-29.67-44.16-3.13-5.84-8.49-10.12-14.8-11.68-2.08-.52-4.27-.73-6.51-.61-22.02,1.2-51.71,3.61-62.9,4.09-.19.01-.38.01-.56.02-7.57.31-15.2.79-22.83,1.54-17.12,1.69-30.22,16.78-30.39,34.81l-.31,30.93c-1.48,15.4-2.78,29.18-3.91,41.34h0c-.43,4.61-.95,10.27-1.43,15.5-.95,10.46-.87,20.99.24,31.43l1.67,15.6,19.91,131.92c18.1,90.43,97.34,91.96,170.6,86.56,49.42-3.64,43.83,5.56,90.41-22.31,0,0,134.95-86.76,134.29-88.21.2.1,5.79-35.14,5.67-41.17-.29-14.21,3.29-44.64-3.21-60.05v-.02c-.77-1.33-1.66-2.5-2.67-3.46-17.48-16.82-44.57,9.11-59.16,29.39-3.64,5.06-5.71,12.04-7.17,19.24-12.4,2.99-24.53,7.77-36.14,12.63-5.37,2.25-10.79,4.55-16.28,6.72-3.36-4.08-5.03-9.02-7.62-13.33-.38-.63-3.39-4.26-6.13-7.52-3.78-4.49-8.67-7.95-14.21-9.91-15.89-5.65-35.98-5.37-51.1-1.88-1.34.31-2.69-.53-3-1.88-.31-1.35.53-2.69,1.88-3,17.58-4.03,41.6-3.9,59.26,4.26-.37-1.31-.74-2.63-1.1-3.94h0c-.11-.41-.23-.83-.33-1.23h0c-5.55-20.41-5.97-104.8-9.06-143.34,2.91.57,6.4,1.22,10.4,1.82,14.31,1.78,28.69,3.07,43.08,3.84,40.87,2.22,84.18-.26,118.73-23.07,13.54-8.93,26.19-27.16,17.11-40.82ZM279.63,448.19h.02c.1.18.21.37.33.57l-.35-.57ZM469.54,331.85c0-.09.02-.15.08-.21l-.08.21Z"/>
  <path class="cls-1" d="M279.66,448.18c.1.18.21.37.33.57l-.35-.57h.02Z"/>
  <path class="cls-1" d="M469.63,331.63l-.08.21c-.01-.09.02-.15.08-.21Z"/>
</svg>