<?xml version="1.0" encoding="UTF-8"?>
<svg id="Calque_1" xmlns="http://www.w3.org/2000/svg" version="1.1" viewBox="0 0 850.4 850.4">
  <!-- Generator: Adobe Illustrator 29.8.3, SVG Export Plug-In . SVG Version: 2.1.1 Build 3)  -->
  <defs>
    <style>
      .st0 {
        fill: #a3214b;
      }
    </style>
  </defs>
  <path class="st0" d="M305.2,352.8c2.8,6.9,5.2,12.9,6.6,17.1,6.2,19.1,6.1,31.1,6,43.8,0,10.1-.1,20.5,2.9,35.6,3.4,17.1,9.1,27.7,18,33.3,7.9,5,18.7,5.5,29.1,1.3,10.9-4.4,19.1-13,21.4-22.6,12.8-51.8,7.7-77.6,3.6-98.4-.7-3.4-1.3-6.6-1.8-9.8-.4-2.1-.7-4.6-1.1-7.4-1.4-9-3.3-21.7-6.2-34.5-2.9-13.2-6.8-26.6-12.1-36.5-3.2-6-6.9-10.7-11.2-13.3-2.5-1.5-5.6-2.6-9.2-3.3-1.6-.3-3.3-.6-5.1-.8-19.6-1.4-45.9,5.2-56.2,18.2,0,.1-.2.3-.3.4-4.8,7.5-3.2,21.1.8,35.7,3.9,14.3,10.1,29.5,14.8,40.9h0Z"/>
  <path class="st0" d="M695.8,294.7c-1.6,27.7-3.1,55.4-4.7,83.1-2.1,38.2-.3,78.4-15.6,113.8-27.8,64-73.7,111.2-128,139,0,0,0,0,0,0-27.3,17.9-60.4,27.8-95.1,27.8l-53.9-1c-62.6,0-99.2-8.9-134.5-59.2-18.7-26.6-31.4-56.9-38-88.9l-29.4-142.4c0-8.6,1-16,2.8-22.2,2.9,13.9,10.2,27,17,39.2,6.2,11.2,5.7,24.1,5.1,37.9-.2,4.3-.4,8.7-.3,13,.2,19.9,9.2,41.5,28.8,44.9,1.4.2,2.8.4,4.2.4h.7c12.9,0,24.6-8.7,31.8-17.5.4-.5.7-.9,1.1-1.4,0,0,0,0,0-.1.2-.2.4-.5.5-.7,14.3-19,19.8-44.9,17-79-.5-6.1-1.2-12.1-2.2-18.2,1.3,3.3,2.4,6.2,3.2,8.5,5.9,18.2,5.8,29.2,5.8,41.9,0,10.4-.1,21.1,3,36.8,2.4,11.8,7.1,28.6,20.6,37.2,4.9,3.1,10.6,4.8,16.7,5,.5,0,1.1,0,1.6,0,5.3,0,10.8-1.1,16.2-3.2,7.6-3,13.9-7.8,18.4-13.5,0,0,0,0,0-.1,2.3-3.3,3.6-7,5-10.8,19.6-51,2.3-121.9-1.5-132.6l13.3,36.2c1.2,2.6,2.1,5.4,2.7,8.3,2.8,11.7,1.7,24.9.8,37.8-.5,7-1.1,14.3-1,21.2.3,25.7,10.8,53.7,33.8,58.1,1.8.3,3.5.5,5.2.5h.6c6,0,11.8-1.8,17.1-4.6,0-.1.1-.2.2-.4,0,0,0,.2,0,.3h0c0,.2,0,.4,0,.5-.2.1-.4.2-.6.3h0c-3.2,5.4-5.9,11-7.9,16.6-4.6,12.7-6.3,25.9-4.9,39.2.2,1.5,1.5,2.7,3,2.7s.2,0,.3,0c1.6-.2,2.9-1.7,2.7-3.3-1.3-12.4.2-24.7,4.5-36.5.6-1.8,1.4-3.5,2.1-5.3h0c3.6-8.3,8.7-16.4,15-24.1,4-4.9,7.6-10.2,10.5-15.8,4.6-9,9-18.4,9-18.4l1.6,14.8c.7,6.1,2.4,12,5.3,17.4,2.1,3.7,4.6,7.1,7.9,10.1,6.4,5.8,14.8,8.8,24,9h0c.2,0,.4,0,.5,0h0c3.5,0,7.1-.4,10.8-1.3,11.2-2.6,21-9,27.3-17.5h0s0,0,0-.1c1.5-2.2,2.8-4.5,3.7-7,26.3-66.9,20.4-98,20.2-123.9,0-4.7-.5-10.9-1.3-18,0-1.1,0-2.9,0-4,.2-2.1.4-4.1.6-6.2,0-.3,0-.6-.1-.9,0,0,.1.1.2.2,2.5-22.4,7-45.4,21.5-62.6,16.1-19.1,56.4-46,72.5-27.9,10.9,12.2,3,50.1,2.1,66.6h0Z"/>
  <path class="st0" d="M206.6,324.8l-2.7,9h0c.3,13.3,6,26.1,12.7,38.6,1.6,2.9,3.1,5.8,4.7,8.6,5.3,9.5,6.3,20,6.2,30.5,0,.9,0,1.8,0,2.6s0,1.8,0,2.6c0,1.8-.1,3.5-.2,5.2-.2,4.2-.4,8.6-.3,12.7h0c0,2.6.2,5.3.6,8,.2,1.6.5,3.2.9,4.8.2,1.1.5,2.1.8,3.1.1.5.3,1,.5,1.5.3,1,.7,2,1.1,3,1,2.5,2.2,4.8,3.6,6.9,3.9,6,9.3,10.4,16.3,11.6,12.2,2.1,24-6.3,31-15,11.8-14.6,17.7-33.9,18-58.8,0-5.7-.2-11.8-.7-18.1-2-23.8-7.2-47.3-15.5-69.8,0-.2-.1-.4-.2-.6-1.7-4.5-3.6-9.2-7-12.6-5.2-5.4-13-8.6-22.1-9.2,0,0,0,0,0,0h0c0,0-.2,0-.3,0-15.9-.6-33.1,5.8-41.9,16.8,0,0,0,0,0,.1h0c-.4.6-.8,1.1-1.1,1.7-5.1,8.7-7.1,17.1-6.9,25.3l2.7-9h0Z"/>
  <path class="st0" d="M385.6,294.2h0s1.8,7.1,1.8,7.1l2.4,9.5h.1c.3,1.2.6,2.5.9,3.8,1.9,7.5,4.3,15,6.9,22,.4,1.2.9,2.3,1.3,3.5,3.6,9.1,7.5,17.5,10.9,24.2,1.4,2.8,2.5,5.6,3.3,8.5.4,1.5.8,2.9,1.1,4.4.3,1.5.6,3,.8,4.5.1.8.2,1.5.3,2.3.4,3.8.6,7.7.5,11.7,0,1.6,0,3.2-.1,4.7h0c-.2,5-.5,10-.9,15-.5,7.2-1.1,14-1,20.7.2,22.5,9.4,48.5,29,52.3.7.1,1.4.2,2.1.3h0c3.7.4,7.4,0,10.9-1.2,2.2-.7,4.4-1.6,6.4-2.8,1.2-.7,2.5-1.4,3.7-2.2,3.9-2.6,7.4-5.9,10.4-9.3,1.4-1.6,2.7-3.1,3.9-4.8,7.8-10.7,13.5-23.3,17.1-38,0-.3.1-.5.2-.8.4-1.5.7-3,1-4.5,2.2-10.8,3.3-22.6,3.4-35.5,0-.6.1-1.3.2-1.9.4-3.9.7-8,.7-12.4,0-6.6-.4-14-1.8-22.9-.2-1.5-.5-3.2-.9-5.1-.8-4.1-1.9-9.1-3.2-14.5-1.3-7.8-2.9-15.6-4.6-23.4-.6-2.6-1.2-5.1-1.9-7.7,0,0,0-.2,0-.3,0-.1,0-.3-.1-.4h0c-2.3-8.9-4.9-17.8-7.8-26.5v-.3c-2.2-6.2-6-17.7-10.1-22.3-3.9-4.4-9.1-7.8-15.2-10.1-4.9-1.9-10.4-3.1-16.1-3.4,0,0-.1,0-.2,0-17.9-.7-36.5,5.8-46.3,18.2,0,0,0,0,0,0,0,0,0,0,0,0h0c-1.7,2.2-3.1,4.5-4.2,7-2,4.6-3.3,9.5-4.1,14.6,0,.6-.2,1.3-.3,1.9-.1,1.3-.3,2.6-.4,3.9,0,.7,0,1.3-.1,2,0,1.3,0,2.7,0,4,0,1.4,0,2.7.1,4.1h0Z"/>
  <path class="st0" d="M496.2,300c0,.5.2,1.1.3,1.6,1.9,10.6,4.3,20.9,6.2,29.4,0,.2,0,.4.1.6,1.9,11.4,3.3,22.9,4.2,34.5.6,8.4.9,16.3.9,24-.5,4-1.1,8-1.7,11.9,0,.5-.1,1-.2,1.4-.4,7.3-2.6,22.9-2.5,22.8,0,1.6-.1,3.3-.2,5h0c0,3.7,0,7.6.1,11.8.9,20.1,5.3,33.1,13.9,40.9,7.5,6.8,18.5,9,30.1,6.3,13.1-3.1,23.9-11.9,28.2-22.9,22.4-56.9,21.2-87.2,20.3-111.4,0-1.4-.1-2.8-.2-4.2h0c0-2.5-.2-4.8-.2-7.1,0-7.6-1-17.8-2.7-28.9-.2-1.1-.4-2.3-.6-3.5-4.5-26.8-13.6-57.4-26.8-68.6-4.7-4-11-7.3-17.9-9.6-5.8-1.9-12-3.2-18-3.5h-.1c-1.1,0-2.3-.1-3.4-.1s-3,0-4.5.2c-6.9.6-16.6,2.9-23,10.6-.3.4-.6.8-.9,1.1,0,0,0,.1-.1.2-4.3,6.3-5.5,16.6-5.1,28.4.4,9.2,1.7,19.3,3.5,29.2h0Z"/>
</svg>