<?xml version="1.0" encoding="UTF-8"?>
<svg id="Calque_1" data-name="Calque 1" xmlns="http://www.w3.org/2000/svg" viewBox="0 0 850.39 850.39">
  <defs>
    <style>
      .cls-1 {
        fill: #d946e8;
      }
    </style>
  </defs>
  <path class="cls-1" d="M435.79,249.66l60.33,2.55c5.01.12,12.68,1.53,15.9,5.61,2.04,2.58,2.93,3.82,2.92,3.19-.66-35.44-3.16-69.66-10.73-104.45-3.62-16.63-10.49-35.59-26.76-40.37-15.77-4.63-32.58,7.71-38.98,22.98-6.39,15.27-5.1,32.48-3.87,48.94,1.5,20.06,1.47,40.79,1.19,61.54Z"/>
  <path class="cls-1" d="M372.63,304.39c6.75,1.73,12.48,6.48,15.83,12.97,0,0,21.77,32.94,31.75,49.03.8,1.3,1.6,2.6,2.4,3.89,1.7.82,3.46,1.57,5.29,2.25,1.91.71,3.94,1.32,6.04,1.8,15.38,3.61,34.47.9,40.38-14.31,1.37-3.53,1.98-7.29,1.9-11-.1-5.5-1.69-10.9-4.45-15.26-1.21-1.91-2.44-3.84-3.69-5.79-9.32-14.49-29.67-44.16-29.67-44.16-3.13-5.84-8.49-11.12-14.8-12.68-2.08-.52-4.27-.73-6.51-.61-22.02,1.2-51.71,4.61-62.9,5.09-.19.01-.38.01-.56.02-7.57.31-15.2.79-22.83,1.54-15.88,1.57-28.31,14.67-30.15,30.96,13.36-.72,42.82-3.16,65-4.42,2.4-.13,4.74.1,6.97.68Z"/>
  <path class="cls-1" d="M426.3,266.1c6.75,1.73,12.48,6.48,15.83,12.97,0,0,21.77,32.94,31.75,49.03,1.33,2.16,2.65,4.3,3.94,6.42,2.13,3.48,3.09,7.04,3.49,11.03,3.32,1.74,20.68,11.4,22.42,12.04,1.91.7,3.94,1.31,6.04,1.79,15.38,3.62,34.47.91,40.38-14.31,1.37-3.53,1.98-7.28,1.9-11-.1-5.5-1.69-10.9-4.45-15.25-1.21-1.92-2.44-3.84-3.69-5.8-9.32-14.48-29.67-44.16-29.67-44.16-3.13-5.84-8.49-10.11-14.8-11.67-2.08-.52-4.27-.73-6.51-.62-19.88,1.08-53.52-2.33-59.99-3-.04,0-.05,0-.03,0-2.78.17-5.15.3-6.98.38-8.14.33-16.34.86-24.53,1.69-9.27.94-17.44,5.63-23.29,12.59,13.17-.96,28.41-2.09,41.22-2.81,2.4-.13,4.74.1,6.97.68Z"/>
  <path class="cls-1" d="M628.17,467.8c-6.86-14.44-21.48-45.01-24.01-48.7-9.39-13.69-26.18-48.48-42.82-51.84-24.73-5-34.45,30.91-36.2,55.55-.85,11.86,5.65,43.25,10.16,55.18-6.61,9.14-12.21,19.03-17.45,28.74-.74,1.37-1.48,2.75-2.23,4.13-4.47-32.78-5.55-135.88-4.48-135.68l1.03-8.98c-1.95-.35-3.74-.74-5.26-1.12,0-.03-.01-.05-.01-.08-2.03-.65-4.01-1.47-5.91-2.44l-19.43-9.89c-.14,3.4-.8,6.8-2.01,10.02-4.54,12.12-19.62,18.32-33.77,19.05,1.09,7.64,3.86,27.53,3.86,33.11s.9,7.66-2.23,7.91c-2.21.18-2.19-2.98-1.99-4.85.11-1.05.14-2.1.07-3.14l-3.92-32.98c-4.04-.11-7.91-.68-11.32-1.7l-3.57-1.44c.89,3.11,1.17,6.41,1.23,10.12.09,4.12-.56,8.29-2.03,12.21-5.87,15.69-28.44,20.59-44.61,17.29.29,2.71.65,6.87.65,10.98,0,5.69.89,7.66-2.24,7.92-2.2.18-2.18-2.98-1.98-4.86.11-1.04.14-2.09.06-3.14l-.89-12.05c-10.3-3.36-27.03-13.73-33.31-21.57-2.31-2.89-9.62-10.6-11.91-13.62-8.08,2.26-5.84,2.3-14.1,4.63.15,1.18.31,2.36.48,3.54,3.25,22.79,8.2,43.01,10.15,63.56.13,1.45-1.03,2.63-2.41,2.63-.18,0-.37-.02-.56-.07-1.01-.25-1.74-1.1-1.83-2.13-2-22.12-8.13-45.43-11.41-67.59-.16-1.07-.31-2.13-.45-3.19,7.72-2.1,15.48-4.25,23.03-6.28,2.14,2.72,4.26,5.4,6.42,8,6.54,7.87,13.43,15,22.1,20.34,3.42,2.12,7.11,3.96,11.16,5.46,1.91.71,3.94,1.32,6.04,1.8,15.38,3.61,34.47.9,40.38-14.31,1.37-3.53,1.98-7.29,1.9-11-.1-5.5-1.69-10.9-4.45-15.26-1.21-1.91-2.44-3.84-3.69-5.79-9.32-14.49-29.67-44.16-29.67-44.16-3.13-5.84-8.49-10.12-14.8-11.68-2.08-.52-4.27-.73-6.51-.61-22.02,1.2-51.71,3.61-62.9,4.09-.19,0-.38,0-.56.02-7.57.31-15.2.79-22.83,1.54-17.12,1.69-30.22,16.78-30.39,34.81l-.31,30.93c-1.48,15.4-2.78,29.18-3.91,41.34h0c-.43,4.61-.95,10.27-1.43,15.5-.95,10.46-.87,20.99.24,31.43l1.67,15.6,19.91,131.92c18.1,90.43,97.34,91.96,170.6,86.56,48.48-3.57,71.05-11.36,115.87-37.98,2.84-1.23,5.61-2.81,8.27-4.78,29.05-21.54,36.24-35.46,47.28-71.16,5.13-16.55,20.41-80.49,25.32-104.85,1.16-5.74.43-11.7-2.09-16.99ZM497.69,373.2l.07-.2h.01l-.08.2Z"/>
</svg>