<?xml version="1.0" encoding="UTF-8"?>
<svg id="Calque_1" data-name="Calque 1" xmlns="http://www.w3.org/2000/svg" viewBox="0 0 850.39 850.39">
  <defs>
    <style>
      .cls-1 {
        fill: #d946e8;
      }
    </style>
  </defs>
  <path class="cls-1" d="M688.14,568.24c6.99,40.21-15.73,74.39-38.65,108.29-3.71,9.94-8.34,19.28-13.8,27.98-2.52,3.49-5.05,7.01-7.51,10.52-.27.39-.48.8-.61,1.22-31.19,40.85-81.63,64.68-136.29,64.68l-54.56-.99c-81.65,0-119.13-18.71-167-118.17l-31.76-80.48c-27.21-39.62-49.52-82.19-66.38-126.68-14.36-37.92-24.76-79.53-12.25-118.85,4.89-15.4,19.34-32.71,35.68-28.14,8.27,2.31,14.87,9,17.5,16.59,19.29,55.6,41.82,107.72,61.46,149.44,8.31-6.41,17.53-12.04,27.42-16.82-19.53-43-34.55-87.83-44.75-133.67-10.13-45.48-15.13-94.59,5.49-137.71,8.08-16.89,27.32-34.55,45.13-26.92,9.02,3.87,15.42,12.49,17.17,21.55,20.63,106.83,52.25,204.58,70.56,256.66l46.93-4.6c-14.66-54.59-23.22-110.57-25.48-166.78-2.08-51.58,2.08-106.16,32.76-149.26,12.02-16.88,36.24-32.46,54-20.7,8.99,5.95,14.22,16.59,14.35,26.82,1.54,126.26,18.06,243.97,27.56,301.92,15.42-.31,29.44-.71,41.88-.31,13.2-32.97,20.19-69.4,22.18-103.11,2.84-48.22,11.16-98.93,11.35-147.3.08-19.85.15-40.6,9.94-57.94,9.79-17.35,32.73-29.74,52.6-21.99,20.51,8,27.46,31.62,30.44,52,18.46,125.9-5.28,253.84-37.59,376.55-7.58-9.27-14.8-14.54-22.71-18.2-6.75-3.13-14.01-5.08-22.46-7.36-6.8-1.84-14.51-3.91-23.47-7.03-12.13-4.22-28.94-12.08-44.64-19.86-4.1-2.04-8.13-4.08-11.98-6.04-3.25-1.65-6.36-3.26-9.29-4.77-6.31-3.26-13.42-5.02-20.56-5.1h-.5c-9.95,0-36.26,2.96-69.39,9.33-9.04,1.74-18.59,3.74-28.46,6-6.75,1.54-12.1,6.18-15.16,12.55h-.01c-.51,1.07-.95,2.17-1.32,3.32-1.18,3.53-1.71,7.46-1.48,11.61.95,17.29,15.4,38.85,52.46,45.62,2.53.46,5.16.85,7.91,1.17,3.21.38,10.79,3.37,19.78,7.38,15.92,7.08,36.26,17.33,44.61,21.83-1.35,3.6-3.46,9.26-5.58,16.42-14.97,43.43-3.56,86.08,10.81,105.76,1.46,2,4.28,2.45,6.29.98,2-1.47,2.44-4.28.98-6.29-8.98-12.3-14.28-26.58-15.89-42.75-2.06-20.48,1.81-44,11.6-70.37.09-.26.19-.53.29-.79.84-2.22,1.21-3.23,1.4-4.01.44-1.9-.39-3.88-2.06-4.88-.67-.4-2.72-1.52-5.75-3.11-7.69-4.05-21.64-11.15-34.92-17.34-4.84-2.25-9.59-4.38-13.92-6.19-7.23-3.04-13.28-5.19-16.6-5.58-14.91-1.72-26.13-5.79-34.29-11.02-8.09-7.75-14.91-16.52-17.88-24.9-.12-.82-.21-1.63-.25-2.43-.5-9.12,4.02-16.61,10.99-18.21,10.23-2.34,20.1-4.4,29.39-6.18,31.24-5.97,55.95-8.79,65.8-8.91.18-.01.35-.01.52-.01h.53c2.61.03,5.22.34,7.76.92h.02c5.26,2.46,11.11,5.17,17.22,7.94,2.31,1.05,4.67,2.11,7.04,3.16.02.01.03.02.05.03,1.55.79,3.12,1.57,4.69,2.35,16.64,8.3,33.94,16.39,46.84,20.87,9.26,3.22,17.13,5.35,24.08,7.22,10.17,2.74,18,4.85,25.14,8.97,5.17,2.99,9.98,7.03,15.04,13.14,1.44,1.74,2.91,3.65,4.41,5.76.12.15.23.31.34.47,1.4,2.35,2.71,4.76,3.86,6.9.32.59.63,1.18.94,1.77h0c4.7,9.01,7.97,17.67,10.01,26.06Z"/>
</svg>