<?xml version="1.0" encoding="UTF-8"?>
<svg id="Calque_1" xmlns="http://www.w3.org/2000/svg" version="1.1" viewBox="0 0 850.4 850.4">
  <!-- Generator: Adobe Illustrator 29.8.3, SVG Export Plug-In . SVG Version: 2.1.1 Build 3)  -->
  <defs>
    <style>
      .st0 {
        fill: #a3214b;
      }
    </style>
  </defs>
  <path class="st0" d="M435.8,249.7l60.3,2.6c5,.1,12.7,1.5,15.9,5.6,2,2.6,2.9,3.8,2.9,3.2-.7-35.4-3.2-69.7-10.7-104.4-3.6-16.6-10.5-35.6-26.8-40.4-15.8-4.6-32.6,7.7-39,23-6.4,15.3-5.1,32.5-3.9,48.9,1.5,20.1,1.5,40.8,1.2,61.5h0Z"/>
  <path class="st0" d="M372.6,304.4c6.8,1.7,12.5,6.5,15.8,13,0,0,21.8,32.9,31.8,49,.8,1.3,1.6,2.6,2.4,3.9,1.7.8,3.5,1.6,5.3,2.2,1.9.7,3.9,1.3,6,1.8,15.4,3.6,34.5.9,40.4-14.3,1.4-3.5,2-7.3,1.9-11-.1-5.5-1.7-10.9-4.5-15.3-1.2-1.9-2.4-3.8-3.7-5.8-9.3-14.5-29.7-44.2-29.7-44.2-3.1-5.8-8.5-11.1-14.8-12.7-2.1-.5-4.3-.7-6.5-.6-22,1.2-51.7,4.6-62.9,5.1-.2,0-.4,0-.6,0-7.6.3-15.2.8-22.8,1.5-15.9,1.6-28.3,14.7-30.1,31,13.4-.7,42.8-3.2,65-4.4,2.4-.1,4.7.1,7,.7h0Z"/>
  <path class="st0" d="M426.3,266.1c6.8,1.7,12.5,6.5,15.8,13,0,0,21.8,32.9,31.8,49,1.3,2.2,2.6,4.3,3.9,6.4,2.1,3.5,3.1,7,3.5,11,3.3,1.7,20.7,11.4,22.4,12,1.9.7,3.9,1.3,6,1.8,15.4,3.6,34.5.9,40.4-14.3,1.4-3.5,2-7.3,1.9-11,0-5.5-1.7-10.9-4.5-15.2-1.2-1.9-2.4-3.8-3.7-5.8-9.3-14.5-29.7-44.2-29.7-44.2-3.1-5.8-8.5-10.1-14.8-11.7-2.1-.5-4.3-.7-6.5-.6-19.9,1.1-53.5-2.3-60-3,0,0,0,0,0,0-2.8.2-5.1.3-7,.4-8.1.3-16.3.9-24.5,1.7-9.3.9-17.4,5.6-23.3,12.6,13.2-1,28.4-2.1,41.2-2.8,2.4-.1,4.7.1,7,.7h0Z"/>
  <path class="st0" d="M628.2,467.8c-6.9-14.4-21.5-45-24-48.7-9.4-13.7-26.2-48.5-42.8-51.8-24.7-5-34.5,30.9-36.2,55.5-.8,11.9,5.7,43.2,10.2,55.2-6.6,9.1-12.2,19-17.5,28.7-.7,1.4-1.5,2.8-2.2,4.1-4.5-32.8-5.5-135.9-4.5-135.7l1-9c-2-.4-3.7-.7-5.3-1.1,0,0,0,0,0,0-2-.6-4-1.5-5.9-2.4l-19.4-9.9c-.1,3.4-.8,6.8-2,10-4.5,12.1-19.6,18.3-33.8,19,1.1,7.6,3.9,27.5,3.9,33.1s.9,7.7-2.2,7.9c-2.2.2-2.2-3-2-4.9.1-1,.1-2.1,0-3.1l-3.9-33c-4-.1-7.9-.7-11.3-1.7l-3.6-1.4c.9,3.1,1.2,6.4,1.2,10.1,0,4.1-.6,8.3-2,12.2-5.9,15.7-28.4,20.6-44.6,17.3.3,2.7.6,6.9.6,11s.9,7.7-2.2,7.9c-2.2.2-2.2-3-2-4.9.1-1,.1-2.1,0-3.1l-.9-12c-10.3-3.4-27-13.7-33.3-21.6-2.3-2.9-9.6-10.6-11.9-13.6-8.1,2.3-5.8,2.3-14.1,4.6.1,1.2.3,2.4.5,3.5,3.2,22.8,8.2,43,10.1,63.6.1,1.5-1,2.6-2.4,2.6s-.4,0-.6,0c-1-.2-1.7-1.1-1.8-2.1-2-22.1-8.1-45.4-11.4-67.6-.2-1.1-.3-2.1-.5-3.2,7.7-2.1,15.5-4.2,23-6.3,2.1,2.7,4.3,5.4,6.4,8,6.5,7.9,13.4,15,22.1,20.3,3.4,2.1,7.1,4,11.2,5.5,1.9.7,3.9,1.3,6,1.8,15.4,3.6,34.5.9,40.4-14.3,1.4-3.5,2-7.3,1.9-11-.1-5.5-1.7-10.9-4.5-15.3-1.2-1.9-2.4-3.8-3.7-5.8-9.3-14.5-29.7-44.2-29.7-44.2-3.1-5.8-8.5-10.1-14.8-11.7-2.1-.5-4.3-.7-6.5-.6-22,1.2-51.7,3.6-62.9,4.1-.2,0-.4,0-.6,0-7.6.3-15.2.8-22.8,1.5-17.1,1.7-30.2,16.8-30.4,34.8l-.3,30.9c-1.5,15.4-2.8,29.2-3.9,41.3h0c-.4,4.6-.9,10.3-1.4,15.5-.9,10.5-.9,21,.2,31.4l1.7,15.6,19.9,131.9c18.1,90.4,97.3,92,170.6,86.6,48.5-3.6,71-11.4,115.9-38,2.8-1.2,5.6-2.8,8.3-4.8,29-21.5,36.2-35.5,47.3-71.2,5.1-16.5,20.4-80.5,25.3-104.9,1.2-5.7.4-11.7-2.1-17h0ZM497.7,373.2v-.2h0v.2h0Z"/>
</svg>