<?xml version="1.0" encoding="UTF-8"?>
<svg id="Calque_1" xmlns="http://www.w3.org/2000/svg" version="1.1" viewBox="0 0 850.4 850.4">
  <!-- Generator: Adobe Illustrator 29.8.3, SVG Export Plug-In . SVG Version: 2.1.1 Build 3)  -->
  <defs>
    <style>
      .st0 {
        fill: #a3214b;
      }
    </style>
  </defs>
  <path class="st0" d="M512.4,457.5c-1.5-19.7-5.3-43.3-10.4-65.4-.2,0-.5,0-.7,0-2.2-8.4-4.7-16.8-7.4-25-2.2-6.7-6.1-18.5-10.7-23.6-21.1-23.9-73.5-17.5-85.8,10.7-1.7,3.9-2.9,8-3.7,12.3v.7h-.1c.1.4.3.8.4,1.2,1.7,9.9,4.7,21.2,8.5,32.7,6.4,19.6,14.8,39.6,21.7,53.3,7.9,15.7,6.5,34.1,5.2,51.9-.5,7.2-1.1,14-1,20.6.2,21.9,9,47.2,27.8,50.8,14,2.7,27.7-8.2,35.9-19.3,17.2-23.5,23.9-56.5,20.6-100.9h0ZM304.1,464.4v-1.6c-2.1-22.7-2.3-26.2-10.3-47.9-.2-.7-.3-1.4-.2-2h0c-3.6-7.2-6.9-14.6-9.6-21.7,0,0,0,0,0,0-.9-1.3-1.8-2.6-2.9-3.7-17.7-18.2-58.1-10.6-70.3,10-1.6,2.6-2.8,5.2-3.9,7.8,0,0,0,0,0,0-1.3,16.3,8.1,32.5,17.4,48.3,1.7,2.9,3.5,6,5.1,8.9,7.2,13,6.6,27.6,6.1,41.8-.2,4.2-.3,8.5-.3,12.6.2,16.2,7.3,34.9,22.6,37.6,11.6,2,22.8-6.1,29.5-14.4,14.2-17.6,19.8-42.4,17-75.8h0ZM742.2,351.9c-13.6-20.1-57.1,1.2-75.6,18-18.5,16.8-25.7,42.1-31.3,66-2.1,9-4.2,18.2-6.9,27.1-3,14.4-11,33.2-26.6,35-37.9,4.4-49.2,8.2-66.7,22.8-.8.7-1.9,1-2.9,1s-2.6-.5-3.5-1.6c-1.6-1.9-1.3-4.7.6-6.3,19-15.9,31.7-20.3,71.4-24.9,10.1-1.2,16.4-16.2,18.8-28.1,3.7-110.1-.7-220.5-39-324-7.2-19.3-18.9-41-40.6-44.5-21-3.4-40.9,13.4-46.9,32.4-6,19-1.7,39.3,2.3,58.7,9.9,47.4,12.3,98.7,19.6,146.4,3,19.6,4.5,40.5,4,61.6-2.6,0-5.2.1-7.8.2,5,22,8.7,45.3,10.2,64.9,3.6,46.6-3.7,81.5-22.3,106.9-11,15-25.1,23.4-38.7,23.4s-4.1-.2-6.1-.6c-23.8-4.6-34.8-33.2-35-59.6,0-7,.5-14.3,1-21.4,1.3-16.6,2.6-33.7-4.2-47.2-1.8-3.5-3.8-7.8-6-12.7,4,20.2,8.8,48-4,99.9-3,12.1-12.7,22.5-25.9,27.8-5.6,2.2-11.3,3.3-16.8,3.3s-13.6-1.8-19.2-5.3c-14-8.9-18.9-26-21.3-38.2-3.2-15.9-3.1-27.2-3-37.1,0-12.6.1-23.5-5.7-41.5-.5-1.6-1.4-3.6-2.4-5.9.4,3.8.8,8.1,1.2,13.4v1.6c3.2,35.8-3,62.7-18.8,82.2-9.4,11.6-21.3,18.1-32.9,18.1s-3.5-.2-5.2-.5c-20.4-3.6-29.8-25.9-30-46.4,0-4.4.1-8.8.3-13.1.6-13.5,1.1-26.3-4.9-37.1-1.6-2.8-3.2-5.7-5-8.7-4.9-8.4-10-17.2-13.7-26.4-2.6,6.9-4,15.3-4,25.5l29.7,142.4c6.7,31.9,19.6,62.3,38.5,88.8,35.7,50.3,72.8,59.2,136,59.2l43.5.8c1.3.4,3.2.6,5.9.7,91.9,1.3,182.5-48.4,236.9-138.6,19.9-33,23.4-73.1,30.6-110.7,5.2-27.2,10.4-54.5,15.7-81.7,3.1-16.2,15.9-52.8,6.7-66.3h0ZM614.9,558.7c0-.8-.9-1.5-1.6-1.7-.1,0-.3.2-.4.3-.7-.5-.2-.5.4-.3.8-.5,1.4-1.2,1.8-2,0,1.2-.1,2.5-.2,3.7ZM400.9,445.6c-.7-3.4-1.3-6.6-1.8-9.8-.3-2.1-.7-4.6-1.1-7.4-1.1-7-5.8-27-5.8-27-4.9-22-12.5-44.6-24.8-52-17-10.1-62.6-3.5-74.9,15.5-2.2,3.4-3.2,7.8-3.4,12.9h0c4.2,15.3,14.4,34.7,22.1,49.7,5.5,10.5,9.8,18.7,11.5,24.2,6.3,19.3,6.2,31.4,6.1,44.3,0,10-.1,20.4,2.9,35.3,3.3,16.7,8.8,27,17.3,32.3,7.5,4.7,17.8,5.2,27.8,1.2,10.4-4.2,18.3-12.4,20.5-21.6,12.7-51.4,7.6-77.1,3.6-97.7h0Z"/>
</svg>