<?xml version="1.0" encoding="UTF-8"?>
<svg id="Calque_1" data-name="Calque 1" xmlns="http://www.w3.org/2000/svg" viewBox="0 0 850.39 850.39">
  <defs>
    <style>
      .cls-1 {
        fill: #d946e8;
      }
    </style>
  </defs>
  <path class="cls-1" d="M415.34,423.05h-.07c.06.17.11.33.16.49-.03-.16-.06-.32-.09-.49ZM406.68,388.98c-.04.23-.08.45-.12.68.15.39.28.78.42,1.17-.11-.63-.21-1.24-.3-1.85ZM449.86,538.36c-.24-.08-.48-.16-.72-.24-.23-.08-.46-.16-.69-.23-.23-.08-.46-.15-.68-.22-.23-.07-.46-.14-.68-.21-.7-.21-1.36-.4-1.98-.57-.29-.08-.57-.15-.83-.21-.37-.1-.71-.18-1.04-.25-.56-.13-1.06-.22-1.5-.27-.29,4.52-.5,8.89-.45,13.19.23,21.94,9.01,47.21,27.75,50.85,11.61,2.24,23-4.86,31.18-13.68,1.14-5.34,2.39-10.12,3.56-14.16,1.29-5.27,2.3-6.99,2.4-10.64-12.5-5.93-41.04-18.31-56.32-23.36ZM432.53,555.22c.87,19.83,8.3,41.88,24.13,49.73-15.02-8.98-22.74-29.48-24.13-49.73Z"/>
  <g>
    <path class="cls-1" d="M416.83,531.55c-1.23,10.04-3.3,21.38-6.5,34.36-2.25,9.13-10.12,17.39-20.54,21.57-9.93,3.98-20.3,3.52-27.75-1.22-8.45-5.38-13.94-15.65-17.28-32.32-3-14.97-2.94-25.31-2.88-35.32.08-12.83.15-24.96-6.12-44.28-1.76-5.45-6.07-13.7-11.53-24.15-3.94-7.55-8.48-16.25-12.55-24.98-3.99-8.55-7.52-17.14-9.6-24.72.17-5.06,1.22-9.46,3.42-12.87,12.27-19,57.94-25.65,74.9-15.53,12.31,7.35,19.89,30,24.75,51.96,2.94,13.26,4.89,26.26,6.3,35.5-5.1,1.28-10.31,2.65-15.62,4.1-11.2,3.06-18.12,14.66-16.81,28.2,1.39,14.43,12.37,31.47,37.81,39.7Z"/>
    <path class="cls-1" d="M514.29,414.66h-.01c-2.19-8.43-4.66-16.78-7.42-25.02-2.23-6.69-6.12-18.46-10.71-23.66-21.09-23.89-73.49-17.49-85.79,10.73-1.69,3.87-2.89,7.98-3.68,12.26h0c.09.62.19,1.23.3,1.86-.14-.39-.27-.78-.42-1.17-1.82,10.61,1.55,16.66,3.86,28.51,0,0,6.16,34.77,8.17,39.61.81-.2,1.63-.39,2.43-.59,2.17-.52,4.31-1.02,6.41-1.51,31.8-7.35,56.83-11.14,66.04-11.41,7.13-.22,14.31,1.25,20.75,4.25,2.49,1.16,5.12,2.38,7.85,3.63-1.98-12.63-4.58-25.15-7.78-37.49ZM415.27,423.06h.07c.03.16.06.32.09.48-.05-.16-.1-.32-.16-.48Z"/>
    <path class="cls-1" d="M632.44,491.05c-.01.58-.03,1.15-.06,1.72l-.06-1.79c-8.19-4.2-16.82-6.15-27.23-8.5-6.88-1.55-14.66-3.31-23.74-6.05-13.32-4.01-32.31-12.08-49.41-19.78-1.2-.54-2.39-1.08-3.56-1.62.6-3.75,1.13-7.52,1.58-11.31,1.16-9.74,1.84-19.58,2.07-29.4.52-21.03-.96-41.94-3.95-61.58-7.26-47.76-9.67-99.09-19.55-146.44-4.06-19.43-8.3-39.74-2.33-58.74,5.96-19.01,25.82-35.89,46.87-32.45,21.72,3.55,33.43,25.21,40.59,44.53,39.26,105.82,42.93,218.86,38.78,331.41Z"/>
    <path class="cls-1" d="M649.11,642.31c-8.94,13.9-19.12,27.72-28.29,42.26,0,0-.01.02-.01.03-28.37,54.18-86.47,86.67-150.3,86.67l-54.56-.99c-63.28,0-100.31-8.88-136.04-59.18-18.89-26.58-31.81-56.93-38.47-88.85l-29.71-142.39c0-11.43,1.73-20.6,4.96-27.93-1.21-10.28.46-20.88,6.99-31.95,12.19-20.63,52.64-28.18,70.33-10.01,1.12,1.16,2.1,2.42,2.96,3.75,1.36,3.6,2.9,7.28,4.56,10.97.71,1.6,1.44,3.19,2.19,4.79,0,.01,0,.02,0,.03s.01.02.01.03.01.02.01.03.01.02.02.03c.58,1.21,2.46,6.86,2.46,6.86,0,.01,0,.02.01.03,6.73,18.41,7.69,23.37,9.17,40.25,0,.02,0,.03,0,.05.13.82.25,1.67.36,2.5.01.07.02.13.03.2v.02c.09,1.14.19,2.32.3,3.57l.14,1.59c2.81,33.36-2.75,58.15-16.98,75.79-5.84,7.24-15.17,14.34-25.12,14.7-.56.03-1.13.03-1.7,0-.91-.04-1.82-.13-2.73-.29-15.27-2.68-22.42-21.38-22.61-37.61-.3-26.47-1.73-55.54-10.06-70.51-.82-1.48-2.35-2.31-3.93-2.31h-.15c-.75,0-1.51.18-2.2.57-2.17,1.21-2.95,3.95-1.75,6.12,3.62,6.52,5.75,16.98,7.01,27.99h.01c1.64,14.33,1.81,29.57,1.91,38.24.06,4.7.59,9.5,1.64,14.15h0c3.49,15.6,12.67,29.46,28.41,32.23.92.16,1.83.28,2.76.34.44.03.87.06,1.31.08.38.02.76.03,1.14.03.36,0,.72-.01,1.08-.02.3-.01.59-.02.89-.04,9-.51,18.16-4.9,26.04-12.5,0-.01,0-.01,0-.02.15-.19.29-.37.42-.56,1.54-1.52,3.03-3.17,4.46-4.94,15.76-19.52,21.96-46.41,18.94-82.2l-.13-1.58c-.2-2.4-.38-4.59-.56-6.63-.22-2.45-.42-4.67-.64-6.74.06.14.13.28.2.42h.01c1.48,3.12,2.62,5.74,3.27,7.74,4.47,13.75,5.47,23.36,5.66,32.78h0s.49,27.38.49,27.38c0,.02,0,.05.01.07.42,5.43,1.19,11.47,2.57,18.36,2.43,12.1,7.28,29.23,21.28,38.15,5.53,3.52,12.17,5.3,19.16,5.3,5.5,0,11.22-1.1,16.77-3.33,1.98-.79,3.88-1.7,5.68-2.71.01,0,.01-.01.02-.01,10.31-5.73,17.69-14.78,20.23-25.05,3.15-12.76,5.23-24.07,6.51-34.17,2.3.5,4.7.94,7.21,1.3-.31,4.79-.55,9.59-.5,14.25.02,1.9.1,3.82.24,5.73v.05c.87,19.83,8.3,41.88,24.13,49.73,0,.01.02.01.03.02,3.21,1.92,6.75,3.31,10.64,4.06,2.05.4,4.07.59,6.08.59,8.84-.01,17.21-3.64,24.38-8.9-.49,3.7-.86,7.56-1.09,11.54-1.64,28.86,5.22,53.16,20.39,72.22,1.55,1.95,4.38,2.27,6.32.72,1.95-1.54,2.27-4.37.72-6.32-10.24-12.87-16.28-28.22-18.12-45.95-1.34-12.87-.47-26.99,2.63-42.31,1.05-5.2,2.36-10.54,3.93-16.02.5-1.78,1.02-3.56,1.58-5.37,0-.01.01-.02.01-.03.41-1.31.83-2.63,1.27-3.96.74-2.26,1.08-3.29,1.23-4.07.11-.58.11-1.16,0-1.71-.25-1.28-1.06-2.43-2.26-3.09-.95-.52-4.65-2.31-9.94-4.78-17.27-8.05-51.5-23.25-62.05-24.42-.16-.01-.32-.03-.47-.04-2.84-.21-5.55-.51-8.13-.89-.12-.02-.23-.04-.35-.06-2.41-.36-4.71-.79-6.9-1.3-2.81-.63-5.44-1.37-7.9-2.21-.3-.09-.59-.19-.88-.3-20.05-7.06-28.72-20.2-29.8-31.39-.88-9.09,3.32-16.76,10.22-18.65,4.99-1.36,9.89-2.65,14.69-3.86.34-.09.69-.18,1.03-.26,2.58-.65,5.12-1.28,7.63-1.89.21-.05.42-.1.63-.15.16-.04.32-.08.48-.11h0c2.85-.69,5.65-1.35,8.4-1.99,30.34-6.96,53.96-10.54,62.67-10.81,5.72-.17,11.51,1.01,16.69,3.42,4.21,1.96,8.62,4,13.14,6.06.03.02.06.03.1.05,1.02.46,2.04.93,3.07,1.39,2.16.98,4.34,1.96,6.52,2.93,16.3,7.25,32.97,14.16,45.49,17.94,9.38,2.83,17.34,4.63,24.36,6.21,11.92,2.69,20.66,4.66,28.95,9.93.02-.62.05-1.23.07-1.85.16.08.32.17.48.26l.06,1.99c5.41,3.55,10.66,8.55,16.5,16.13,1.49,2.27,2.84,4.54,4.14,6.73,26.25,44.13,16.22,81.36-4.2,117.86Z"/>
  </g>
</svg>