<?xml version="1.0" encoding="UTF-8"?>
<svg id="Calque_1" xmlns="http://www.w3.org/2000/svg" version="1.1" viewBox="0 0 850.4 850.4">
  <!-- Generator: Adobe Illustrator 29.8.3, SVG Export Plug-In . SVG Version: 2.1.1 Build 3)  -->
  <defs>
    <style>
      .st0 {
        fill: #a3214b;
      }
    </style>
  </defs>
  <path class="st0" d="M724.8,372.6c-14.3-19.6-57,3.2-74.9,20.6-17.9,17.4-24.2,42.9-29,67-3.5,17.4-6.9,35.5-14.5,51.4-.7,1.4-1.4,2.8-2.1,4.2h0c-.4.7-.7,1.3-1.1,2-.6,1-1.1,1.9-1.7,2.9,0-1.4.1-2.8.2-4.2-.5,0-1-.2-1.5-.4-25.4-10.9-87.3-9.7-112.3,25-.9,1.2-2.3,1.9-3.7,1.9s-1.8-.3-2.6-.8c-2-1.5-2.5-4.3-1-6.3,28.2-39.2,93.8-39.5,121.5-28.7.2-3.5.3-6.9.5-10.4,4.8-116.1,2.2-233.1-38.4-342.3-7.2-19.3-18.9-41-40.6-44.5-21-3.4-40.9,13.4-46.9,32.4-6,19-1.7,39.3,2.3,58.7,9.9,47.3,12.3,98.7,19.6,146.4,2.9,18.7,4.3,38.6,4,58.7-7,.2-14.4.3-22,.4-9.5-63.3-22-166-23.4-275.1-.1-10.2-5.4-20.9-14.3-26.8-17.8-11.8-42,3.8-54,20.7-30.7,43.1-34.8,97.7-32.8,149.3,1.9,47.6,8.4,95.1,19.2,141.7l-22.5,2.3c-8.7-57.5-19.6-147.5-21-242.9-.1-9.2-4.9-18.8-13.1-24.2-16.2-10.6-38.2,3.4-49.1,18.6-27.9,38.8-31.6,88.1-29.6,134.6,1.9,44.4,8.2,88.6,18.8,132-6.2,2.8-12.2,5.9-18,9.3-8.5-39.6-16.8-85.3-22.6-132.8-1-8-6-15.9-13.6-19.9-15-7.9-32.8,5.9-40.8,19.9-20.5,35.8-19.2,78.6-13.2,118.8,5.7,37.8,68.2,223.1,68.2,223.1,47.9,104.1,85.3,123.7,167,123.7l54.5,1c4.4,0,8.8-.2,13.2-.5,0,0,0,0,0,0,90.1-3.5,176.8-56.1,227.1-146.5,18.8-33.7,20.9-73.8,26.8-111.7,4.3-27.4,8.6-54.8,12.8-82.2,2.5-16.3,14.1-53.3,4.5-66.5h0Z"/>
</svg>