<?xml version="1.0" encoding="UTF-8"?>
<svg id="Calque_1" xmlns="http://www.w3.org/2000/svg" version="1.1" viewBox="0 0 850.4 850.4">
  <!-- Generator: Adobe Illustrator 29.8.3, SVG Export Plug-In . SVG Version: 2.1.1 Build 3)  -->
  <defs>
    <style>
      .st0 {
        fill: #a3214b;
      }
    </style>
  </defs>
  <path class="st0" d="M310.9,457.8h0l.2.3c0,0-.1-.2-.1-.3Z"/>
  <path class="st0" d="M368.8,272c-22.2,1.3-51.6,3.7-65,4.4,1.8-16.3,14.3-29.4,30.1-31,7.6-.8,15.3-1.2,22.8-1.5.2,0,.4,0,.6,0,11.2-.5,40.9-2.9,62.9-4.1,2.2-.1,4.4,0,6.5.6,6.3,1.6,11.7,5.8,14.8,11.7,0,0,20.4,29.7,29.7,44.2,1.2,2,2.5,3.9,3.7,5.8,2.8,4.4,4.4,9.8,4.5,15.3,0,3.7-.5,7.5-1.9,11-5.9,15.2-25,17.9-40.4,14.3-2.1-.5-4.1-1.1-6-1.8-1.8-.7-3.6-1.4-5.3-2.2-.8-1.3-1.6-2.6-2.4-3.9-10-16.1-31.8-49-31.8-49-3.4-6.5-9.1-11.2-15.8-13-2.2-.6-4.6-.8-7-.7h0Z"/>
  <path class="st0" d="M422.4,233.7c-12.8.7-28,1.9-41.2,2.8,5.9-7,14-11.6,23.3-12.6,8.2-.8,16.4-1.4,24.5-1.7,1.8,0,4.2-.2,7-.4,0,0,0,0,0,0,6.5.7,40.1,4.1,60,3,2.2-.1,4.4.1,6.5.6,6.3,1.6,11.7,5.8,14.8,11.7,0,0,20.3,29.7,29.7,44.2,1.2,2,2.5,3.9,3.7,5.8,2.8,4.4,4.3,9.8,4.5,15.2,0,3.7-.5,7.5-1.9,11-5.9,15.2-25,17.9-40.4,14.3-2.1-.5-4.1-1.1-6-1.8-1.7-.6-19.1-10.3-22.4-12-.4-4-1.4-7.5-3.5-11-1.3-2.1-2.6-4.3-3.9-6.4-10-16.1-31.8-49-31.8-49-3.4-6.5-9.1-11.2-15.8-13-2.2-.6-4.6-.8-7-.7h0Z"/>
  <path class="st0" d="M448.8,217.5c4.2-2.7,12.8-4.9,17.8-5.4,7.9-.8,15.8-1.4,23.6-1.7,11.1-.5,42.5-3.2,65.7-4.5,9.3-.5,17.8,5,22.1,13.5,0,0,24,37.2,34.5,54.9,4.8,8,6.2,19.2,2.7,28.9-7,19-31.5,20.3-48.1,13.8-2.3-.9-4.5-1.9-6.6-3.1-.4-.2-.8-.4-1.2-.6.8-3.1,1.2-6.3,1.1-9.5,0-6.1-.8-11.1-3.8-16-1.3-2.1-2.6-4.2-3.9-6.4-10-16.1-31.8-49-31.8-49-3.3-6.5-9.1-11.2-15.8-13-2.2-.6-4.6-.8-7-.7-15.8.9-36.5-.3-49.5-1.3h0Z"/>
  <path class="st0" d="M667,520.1c.1,6-5.5,41.3-5.7,41.2.7,1.5-84.4,51.7-102.4,63.6-13.2,8.7-21.9,16.3-30.2,22.2,0,0,0,0,0,0-.6.8-1.1,1.7-1.7,2.4h0c-18.8,25.8-41,18.7-90.4,22.3-73.2,5.4-152.5,3.9-170.6-86.6l-19.9-131.9-1.7-15.6c-1.1-10.4-1.2-21-.2-31.4.5-5.2,1-10.9,1.4-15.5h0c1.1-12.2,2.4-26,3.9-41.4l.3-30.9c.2-18,13.3-33.1,30.4-34.8,7.6-.8,15.3-1.2,22.8-1.5.2,0,.4,0,.6,0,11.2-.5,40.9-2.9,62.9-4.1,2.2-.1,4.4,0,6.5.6,6.3,1.6,11.7,5.8,14.8,11.7,0,0,20.4,29.7,29.7,44.2,1.2,2,2.5,3.9,3.7,5.8,2.8,4.4,4.4,9.8,4.5,15.3,0,3.7-.5,7.5-1.9,11-5.9,15.2-25,17.9-40.4,14.3-2.1-.5-4.1-1.1-6-1.8-4-1.5-7.7-3.3-11.2-5.5-8.7-5.3-15.5-12.5-22.1-20.3-2.2-2.6-4.3-5.3-6.4-8-7.6,2-15.3,4.2-23,6.3.1,1.1.3,2.1.5,3.2,3.3,22.1,9.4,45.5,11.4,67.6,0,1,.8,1.9,1.8,2.1.2,0,.4,0,.6,0,1.4,0,2.5-1.2,2.4-2.6-2-20.5-6.9-40.8-10.1-63.6-.2-1.2-.3-2.4-.5-3.5,8.2-2.3,6-2.4,14.1-4.6,2.3,3,9.6,10.7,11.9,13.6,6.5,8,23.9,18.8,34.1,21.8,3.5,1.1,7.5,1.7,11.7,1.8l.9,11.8c0,1,0,2.1,0,3.1-.2,1.9-.2,5,2,4.9,3.1-.3,2.2-2.2,2.2-7.9s-.5-9.3-.8-11.9c13.6-.6,27.8-6.3,32.2-18.2,1.5-3.9,2.1-8.1,2-12.2,0-3.7-.3-7-1.2-10.1l3.6,1.4c4.2,1.3,9.1,1.8,14.2,1.7l3.9,32.4c0,1,0,2.1,0,3.1-.2,1.9-.2,5,2,4.9,3.1-.3,2.2-2.2,2.2-7.9s-2.7-24.8-3.8-32.7c13.3-1.4,26.7-7.5,30.9-18.8,1.2-3.2,1.9-6.6,2-10l19.4,9.9c1.9,1,3.9,1.8,5.9,2.4,4,31.7,4,130.6,10,152.9h0c.1.4.2.8.3,1.2h0c.3,1.3.7,2.6,1.1,4-17.7-8.2-41.7-8.3-59.3-4.3-1.4.3-2.2,1.6-1.9,3,.3,1.4,1.7,2.2,3,1.9,15.1-3.5,35.2-3.8,51.1,1.9,5.5,2,10.4,5.4,14.2,9.9,2.7,3.3,5.8,6.9,6.1,7.5,2.6,4.3,4.3,9.3,7.6,13.3,5.5-2.2,10.9-4.5,16.3-6.7,11.6-4.9,23.8-9.6,36.1-12.6,1.5-7.2,3.5-14.2,7.2-19.2,14.6-20.3,41.7-46.2,59.2-29.4,1,1,1.9,2.1,2.7,3.5h0c6.5,15.4,2.9,45.9,3.2,60.1h0Z"/>
</svg>