<?xml version="1.0" encoding="UTF-8"?>
<svg id="Calque_1" xmlns="http://www.w3.org/2000/svg" version="1.1" viewBox="0 0 850.4 850.4">
  <!-- Generator: Adobe Illustrator 29.8.3, SVG Export Plug-In . SVG Version: 2.1.1 Build 3)  -->
  <defs>
    <style>
      .st0 {
        fill: #a3214b;
      }
    </style>
  </defs>
  <path class="st0" d="M728.6,542.3c-24.9-2.4-48.4,9.3-69.9,21.3-21.5,11.9-44,24.8-68.9,25-4.7,0-9.4-.6-14.1-1.7l-4.5-135.1c19.1-116.2,31.2-234.1,3.7-348.9-4.8-20-13.8-42.9-35-49.1-20.5-5.9-42.2,8.4-50.4,26.6-8.2,18.2-6.4,38.8-4.7,58.6,4.1,48.2.4,99.4,1.9,147.7.8,27.4-1.5,56.8-7.8,85.1-6.5.1-13.4.3-20.5.4-3.7-63.8-6.8-167.9,2-277.3.8-10.2-3.4-21.3-11.8-28-16.6-13.3-42.2,0-55.7,15.7-34.5,40.1-43.7,94.1-46.3,145.6-2.6,50.9-.1,102,7.5,152.5l-5.4.5c2.8,12.7,4.8,25.3,6.2,34.9.4,2.8.8,5.2,1.1,7.3.5,3.1,1.1,6.2,1.8,9.6,4.2,21.4,9.4,47.9-3.7,101-2.9,11.6-12.2,21.6-25,26.7-5.4,2.2-10.9,3.2-16.2,3.2s-13.1-1.7-18.4-5.1c-13.5-8.6-18.2-25.3-20.6-37.2-3.1-15.7-3.1-26.5-3-36.8,0-12.7.1-23.8-5.8-41.9-1.2-3.8-3.4-9.2-6-15.5,1.3,7.6,2.3,15.4,3,23.1,3,35.4-3.1,61.9-18.6,81.1-7.1,8.8-18.9,17.5-31.8,17.5s-3.2-.1-4.9-.4c-5.8-1-10.6-3.6-14.6-7.3,0,0,0,0-.1,0-6.1-5.7-10.1-13.8-12.2-22.6v-.2c-.1-.4-.2-.9-.3-1.3-.8-4-1.2-8-1.3-11.9-.1-13.1,1.8-26.8-.6-39.4,0,0,0-.2,0-.2-.8-4.5-2.2-8.8-4.4-12.8-7.3-13.2-15.2-27.4-17.6-42.4,0,0,0,0,0-.1,0-.2,0-.3,0-.5,0-.1,0-.2,0-.4,0,0,0,0,0,0-3.2,7.3-4.9,16.5-4.9,27.9l29.7,142.4c6.7,31.9,19.6,62.3,38.5,88.9,35.7,50.3,72.8,59.2,136.1,59.2l54.6,1c16.3,0,118.9-.5,156.5-7.9,37.8-7.5,69.8-31.9,102.5-51.8,23.7-14.5,47.3-28.9,71-43.4,14.1-8.6,49.7-23.8,53.6-39.6,5.7-23.6-39.3-41.4-64.2-43.8h0ZM556.5,523.8c-.6-.5-.1-.5.5-.2-.2,0-.3.2-.5.2Z"/>
  <path class="st0" d="M184.2,491c-.2,4.2-.4,8.6-.3,12.7.2,16.8,7.7,36.2,23.9,39.1,12.2,2.2,24-6.3,31-15,14.5-18,20.2-43.1,17.3-76.9-.7-8.8-1.9-17.5-3.5-26.1,0,0,0,0,0,0-.2-1.3-.5-2.5-.8-3.8-2.6-13.1-6.2-26.1-10.9-38.7h-.1c0-.2-.1-.4-.2-.5-1.9-5.1-4-10.3-7.8-14.2-.4-.4-.9-.9-1.3-1.3-.3-.3-.3-.3,0,0,.4.4,0,0,0,0-2.6-2.2-5.7-3.9-9.2-5.2-4.4-1.6-9.4-2.4-14.7-2.4s-4.4.1-6.6.4c-14.5,1.7-27.6,9-33.1,18.4-4.6,7.8-6.7,15.5-6.9,22.9-.5,17.2,8.6,33.6,17.5,49.6,7,12.6,6.4,27.1,5.9,41h0Z"/>
  <path class="st0" d="M264.1,423.9c2.8,6.9,5.2,12.9,6.6,17.1,6.2,19.1,6.1,31.1,6,43.8,0,10.1-.1,20.5,2.9,35.6,3.4,17.1,9.1,27.7,18,33.3,7.9,5,18.7,5.5,29.1,1.3,10.9-4.3,19.1-13,21.4-22.6,12.7-51.7,7.7-77.6,3.6-98.4-.7-3.4-1.3-6.6-1.8-9.8-.4-2.1-.7-4.6-1.1-7.4-1.4-9.1-3.4-22.1-6.3-35.2-4.7-21-11.9-42.4-23.1-49.1-2.5-1.5-5.6-2.6-9.2-3.3-3.6-.7-7.6-1.1-11.8-1.1-18.9,0-42.1,7-49.9,18.9-4.8,7.5-3.2,21,.8,35.5,3.9,14.3,10.2,29.6,14.8,41.1h0Z"/>
</svg>