<?xml version="1.0" encoding="UTF-8"?>
<svg id="Calque_1" data-name="Calque 1" xmlns="http://www.w3.org/2000/svg" viewBox="0 0 850.39 850.39">
  <defs>
    <style>
      .cls-1 {
        fill: #d946e8;
      }
    </style>
  </defs>
  <path class="cls-1" d="M728.59,542.34c-24.87-2.38-48.39,9.33-69.9,21.26-21.51,11.92-43.98,24.78-68.92,24.99-4.68.04-9.44-.56-14.09-1.73l-4.51-135.13c19.08-116.18,31.17-234.13,3.7-348.91-4.8-20.04-13.83-42.94-34.97-49.08-20.49-5.94-42.22,8.44-50.42,26.6-8.21,18.15-6.43,38.81-4.73,58.59,4.13,48.2.37,99.45,1.85,147.73.84,27.37-1.45,56.81-7.78,85.11-6.53.12-13.36.28-20.48.41-3.69-63.8-6.8-167.85,1.95-277.29.82-10.2-3.41-21.28-11.82-28.03-16.61-13.34-42.16-.05-55.68,15.65-34.51,40.1-43.67,94.06-46.34,145.62-2.63,50.85-.12,101.99,7.49,152.54l-5.4.53c2.83,12.73,4.75,25.3,6.21,34.89.42,2.77.8,5.23,1.14,7.29.5,3.07,1.12,6.22,1.78,9.56,4.19,21.36,9.41,47.94-3.66,100.97-2.86,11.61-12.21,21.61-25.02,26.74-5.38,2.16-10.91,3.23-16.22,3.23-6.7,0-13.06-1.71-18.35-5.07-13.52-8.61-18.24-25.35-20.61-37.19-3.15-15.71-3.09-26.45-3.03-36.83.08-12.74.14-23.75-5.75-41.92-1.24-3.82-3.42-9.21-5.96-15.46,1.32,7.65,2.3,15.36,2.95,23.1,2.99,35.38-3.1,61.92-18.61,81.13-7.15,8.85-18.89,17.51-31.78,17.51-1.62,0-3.25-.13-4.9-.42-5.78-1.02-10.64-3.61-14.62-7.29-.04-.03-.07-.06-.1-.09-6.08-5.65-10.11-13.8-12.25-22.62l-.03-.15c-.11-.43-.21-.87-.29-1.31-.81-3.97-1.23-8.01-1.27-11.89-.15-13.09,1.84-26.84-.62-39.44-.01-.08-.02-.16-.04-.24-.8-4.47-2.16-8.75-4.41-12.79-7.33-13.18-15.21-27.36-17.55-42.43-.01-.04-.01-.09-.02-.13-.03-.16-.05-.31-.06-.46-.02-.12-.03-.24-.04-.36t-.01.02c-3.22,7.33-4.95,16.49-4.95,27.91l29.71,142.39c6.66,31.92,19.58,62.28,38.46,88.86,35.74,50.29,72.77,59.18,136.05,59.18l54.56.98c16.28,0,118.88-.48,156.53-7.93,37.83-7.49,69.82-31.86,102.48-51.83,23.65-14.47,47.31-28.93,70.96-43.39,14.09-8.62,49.72-23.75,53.56-39.61,5.72-23.59-39.33-41.4-64.19-43.77ZM556.51,523.81c-.6-.55-.12-.55.49-.23-.16.08-.32.16-.49.23Z"/>
  <path class="cls-1" d="M184.22,491.01c-.17,4.21-.35,8.56-.3,12.73.19,16.84,7.74,36.25,23.85,39.08,12.19,2.15,24-6.32,30.97-14.95,14.49-17.95,20.15-43.09,17.31-76.86-.74-8.76-1.91-17.45-3.52-26.09,0-.02-.01-.05-.01-.07-.24-1.28-.49-2.55-.75-3.83-2.62-13.12-6.25-26.06-10.85-38.7h-.15c-.06-.18-.12-.35-.19-.53-1.87-5.09-3.99-10.26-7.83-14.21-.42-.43-.85-.85-1.3-1.26t-.02,0s-.01-.03-.02-.02c-2.62-2.2-5.71-3.94-9.19-5.19-4.38-1.59-9.35-2.41-14.7-2.41-2.15,0-4.37.13-6.64.4-14.54,1.74-27.55,8.97-33.12,18.42-4.63,7.84-6.66,15.47-6.88,22.93-.51,17.23,8.58,33.58,17.47,49.56,7.03,12.64,6.44,27.06,5.87,41.01Z"/>
  <path class="cls-1" d="M264.12,423.88c2.8,6.9,5.23,12.85,6.62,17.14,6.19,19.09,6.12,31.1,6.04,43.81-.06,10.08-.12,20.5,2.91,35.62,3.43,17.1,9.13,27.68,17.95,33.29,7.85,5,18.73,5.5,29.11,1.34,10.86-4.35,19.07-13.01,21.44-22.6,12.74-51.74,7.67-77.6,3.59-98.38-.67-3.39-1.29-6.59-1.81-9.75-.35-2.08-.72-4.56-1.15-7.35-1.4-9.15-3.37-22.1-6.32-35.21-4.71-21.01-11.9-42.41-23.15-49.12-2.48-1.48-5.62-2.57-9.19-3.28-3.58-.72-7.58-1.07-11.81-1.07-18.9,0-42.12,6.96-49.85,18.93-4.81,7.46-3.21,20.97.78,35.5,3.92,14.33,10.16,29.65,14.84,41.13Z"/>
</svg>