<?xml version="1.0" encoding="UTF-8"?>
<svg id="Calque_1" xmlns="http://www.w3.org/2000/svg" version="1.1" viewBox="0 0 850.4 850.4">
  <!-- Generator: Adobe Illustrator 29.8.3, SVG Export Plug-In . SVG Version: 2.1.1 Build 3)  -->
  <defs>
    <style>
      .st0 {
        fill: #a3214b;
      }
    </style>
  </defs>
  <path class="st0" d="M515.9,480.4c0,.2,0,.3-.1.5-1,3.8-5.5,14.6-10.2,23.2h0c-1.3,1.6-2.7,3.1-4.1,4.5l-.2.2c-.3.3-.6.6-1,.9-5.9,5.5-16.8,13.4-29.2,11-19.3-3.7-28.3-29.5-28.6-51.8,0-5,.2-10.1.6-15.4,0-.6,0-1.3.1-2,0,0,0-.1,0-.2.6.3,1.2.6,1.8.9,0,0,0,0,0,0,7.3,2.7,16.2,5.3,24.1,7,2.8.4,10.9,1.8,11.3,1.8,7.5,4.7,15.3,8.9,22,12.4l1.5.8c3.8,2,7.8,4.1,11.7,6.2h0Z"/>
  <path class="st0" d="M629.2,598.9s0,0,0,0c-5.2,8-10.3,16-14.8,24-.5.8-1,1.6-1.4,2.3,0,0,0,0,0,0,0,0,0,0,0,0h0c-1.5,2-3.2,4-4.8,6h0c-31.4,37-79.4,58.4-131.2,58.4l-54.6-1c-63.3,0-100.3-8.9-136.1-59.2-18.9-26.6-31.8-56.9-38.5-88.9l-14.3-68.4c-17.6-49.4-28.6-100.8-32.7-152.5-3.2-40.4-1.7-83.3,21.3-117.6,9-13.4,27.7-26,42.1-17.1,7.3,4.5,11.8,12.8,12.2,20.8,2.5,48.9,7.9,96,13.8,136.7,6.7,0,13.7.3,21,.7,3.9,14.1,10,29.1,15.2,41.8,2.8,6.8,5.1,12.6,6.5,16.7,5.9,18.1,5.8,29.1,5.7,41.8,0,10.4-.1,21.2,3,36.9,2.4,11.9,7.1,28.8,20.8,37.5,5.4,3.4,11.8,5.2,18.6,5.2s11-1.1,16.4-3.3c13-5.2,22.4-15.3,25.3-27.1,4.6-18.7,6.9-34.3,7.8-47.5,2.1,1.3,4.1,2.4,6.1,3.4,0,.2,0,.4,0,.5v.3c0,.1,0,.2,0,.3v.2c-.5,6.2-.9,12.8-.9,19,.3,25.9,11,54.1,34.2,58.6,2,.4,4,.6,6,.6,9,0,18.4-3.8,27-11.2,0,0,.1-.1.2-.2-.6,6.5,0,13,1.7,19.3.3,1,.5,2,.9,3,.2.8.5,1.7.8,2.5.6,1.8,2.6,2.8,4.4,2.2,1.8-.6,2.8-2.6,2.2-4.4-.2-.7-.5-1.5-.7-2.2-.3-1-.6-2-.9-3-2.4-8.5-2.2-17.8.4-26.6h0c1.3-4.4,3.2-8.6,5.6-12.7,2.2-3.6,3.9-7.6,5-11.9h0c.2-.7.3-1.3.5-2h0c.1-.5.2-1.1.3-1.6l.5-2.5-2.2-1.2c0,0-.2,0-.3-.1-4.6-2.5-9.3-5-13.9-7.4l-1.5-.8c-6.8-3.5-14.7-7.8-22.3-12.6l-.8-.5h-.9c-9.4-.5-27.3-5.5-38.1-10-.6-.2-1.2-.5-1.8-.8-.3-.1-.6-.2-.8-.4-.3-.1-.5-.2-.8-.4,0,0-.2,0-.2-.1-.2,0-.4-.2-.6-.3-.9-.4-1.7-.9-2.6-1.3h0c-2.1-1.1-4.2-2.4-6.2-3.9-2-1.3-3.9-2.8-5.8-4.3-.4-.3-.7-.6-1.1-.9-8.8-7.5-16.3-17-18.8-26.6-1.6-6-1-11.4,1.9-16.1,3.2-1,7-2,11.1-3,.3,0,.6-.1.9-.2,1.9-.4,3.9-.9,6-1.3h0c.8-.2,1.7-.3,2.5-.5.3,0,.7-.1,1-.2,34.4-6.5,83.1-10.4,87.5-9.3,3.2.9,6.6,2,10,3.3h0s0,0,0,0c0,0,.2,0,.2.1h0c1,.3,2.1.7,3.1,1.1.2,0,.4.2.6.2.3.1.6.2.8.3.9.4,1.9.7,2.8,1.1,0,0,0,0,0,0,.3.1.7.3,1,.4,1.3.5,2.6,1,3.9,1.6,4.7,2,9.5,4.1,14.3,6.2,9.5,4.2,18.7,8.1,27,11.1,0,0,0,0,.1,0,1.2.4,2.3.7,3.4,1.1,19.8,6,33.3,7.3,45.1,11.9,0,0,0,0,0,0,0,0,0,0,.1,0,.4.1.8.3,1.1.4,0,0,0,0,0,0,.4.2.8.4,1.2.5h0c1.2.3,2.3.8,3.4,1.3,1.1.5,2.2,1.1,3.3,1.7,0,.2,0,.4,0,.6.3.2.6.4.9.6,5.8,3.8,11.4,9.1,17.6,17.2,1.6,2.4,3,4.8,4.4,7.1,34.9,60.6-.8,108.8-31.7,156.1h0Z"/>
  <path class="st0" d="M631.9,406.9c-.5-.2-1.1-.4-1.6-.6-5.4-1.8-11.2-3.1-17.7-4.6-6.9-1.6-14.7-3.3-23.8-6.1-9.7-2.9-21-7.9-32.9-13.1-6.2-2.7-12.6-5.5-18.8-8-.6-2.9-1.3-6-2.1-9.3-2.1-9.3-4.7-20.8-6.8-32.5-4-23-5.8-46.8,2.7-57,6.3-7.6,15.8-9.9,22.7-10.5,1.5-.1,3-.2,4.5-.2,7,0,14.4,1.3,21.3,3.6,6.8,2.3,13.1,5.5,17.8,9.5,12.7,10.8,23.4,42.9,29.5,70.7,0,0,0,0,0,0,.1.9.3,1.7.4,2.6h0c0,.1.1.2.2.3,3,14.2,4.7,27.1,4.8,35v1.9c0,6,.1,11.8-.1,18.2h0Z"/>
  <path class="st0" d="M423.8,440.6c-.6,13.6-2.9,30-7.9,50.4-2.3,9.4-10.4,18-21.1,22.3-10.2,4.1-20.9,3.6-28.7-1.3-8.7-5.5-14.3-16-17.7-33-3-15.1-3-25.5-2.9-35.5,0-12.8.1-24.8-6.1-44-1.4-4.3-3.8-10.3-6.6-17.2-4.4-10.9-10.2-25.2-14.2-38.8-4.4-15.3-6.4-29.7-1.5-37.4,7.6-11.9,30.6-18.7,49.4-18.7s15.9,1.4,20.8,4.3c11.5,6.8,18.7,29.2,23.4,50.7,2.7,12.4,4.6,24.6,5.9,33.3.2,1.2.4,2.3.5,3.4-5.1,1.2-9.6,2.4-13.4,3.6l-1.1.4-.7,1c-4.5,6.5-5.7,14.4-3.5,22.8,3.4,13.1,14,25.2,25.4,33.7h0Z"/>
  <path class="st0" d="M525.4,370.2c-2.5-.9-4.9-1.6-7.3-2.3-1-.3-3.1-.4-6.1-.4h0c-7.1,0-19.1.8-32.8,2.3h0c-8.2.9-17.1,1.9-25.9,3.1h0c-7.9,1.7-17.1,3.8-26.2,5.8-.2,0-.4,0-.6.1-.1,0-.2,0-.4,0-.2,0-.4,0-.6.1-.4,0-.8.1-1.3.1,0-.5-.1-.9-.2-1.4.3,0,.6-.1,1-.2-.5-1.4-1.1-2.8-1.6-4.2h0c-.2-1.5-.5-2.9-.7-4.5h0c-1.2-8-2.8-17.5-4.9-27.1h.6c0-.2,0-.3,0-.4-1.5-7.3-2.3-14.2-2.5-20.6-.1-5.6.3-10.9,1.3-15.7v-.4c.1,0,.1-.2.1-.2.7-3.5,1.8-6.7,3.1-9.7,5-11.5,18-19.9,34.7-22.5,18.1-2.9,35.9,2.1,45.2,12.7,4.1,4.6,7.9,16,9.9,22.2v.2c2.9,8.5,5.5,17.1,7.6,25.6,0,.3.1.5.2.8l.4,1.6c2.9,11.5,5.2,23.1,7,34.8h0Z"/>
</svg>