<?xml version="1.0" encoding="UTF-8"?>
<svg id="Calque_1" xmlns="http://www.w3.org/2000/svg" version="1.1" viewBox="0 0 850.4 850.4">
  <!-- Generator: Adobe Illustrator 29.8.3, SVG Export Plug-In . SVG Version: 2.1.1 Build 3)  -->
  <defs>
    <style>
      .st0 {
        fill: #a3214b;
      }
    </style>
  </defs>
  <path class="st0" d="M779.8,574.2c-17.5,21.5-35.1,43-52.6,64.4-24.2,29.7-46.3,63.2-79.6,82.8-54.2,32-112.9,45.1-168.5,40.9-7.6,1-15.3,1.6-23.1,1.6l-54.5-1.1c-81.7,0-119.1-20.3-167-128.2l-22.5-61.8c-.3-.4-.6-.8-.9-1.2-31.2-43.1-56.4-89.9-75-139-14.4-37.9-24.8-79.5-12.3-118.9,4.9-15.4,19.3-32.7,35.7-28.1,8.3,2.3,14.9,9,17.5,16.6,17.1,49.2,36.7,95.7,54.6,134.7,7.9-7.6,16.8-14.3,26.4-20-15.7-37.5-28.1-76.2-36.9-115.7-10.1-45.5-15.1-94.6,5.5-137.7,8.1-16.9,27.3-34.6,45.1-26.9,9,3.9,15.4,12.5,17.2,21.6,17.8,92.3,43.9,177.9,62.4,233,1.1,0,2.2,0,3.3,0l45.7-4.9c-11-47-17.5-94.8-19.5-142.8-2.1-51.6,2.1-106.2,32.8-149.3,12-16.9,36.2-32.5,54-20.7,9,5.9,14.2,16.6,14.3,26.8,1.4,110,14.1,213.6,23.6,276.7,20.7-.4,39-1.1,54.5,0,7.7-25.9,12-52.8,13.5-78.2,2.8-48.2,11.2-98.9,11.3-147.3,0-19.9.2-40.6,10-57.9,9.8-17.3,32.7-29.7,52.6-22,20.5,8,27.5,31.6,30.4,52,19.2,131.2-7.3,264.5-41.7,391.9-3.6,13.4-9.7,42.7-13.8,64.9-27.1-11.2-93.9-11.4-122.5,28.3-1.5,2-1,4.8,1,6.3.8.6,1.7.8,2.6.8,1.4,0,2.8-.7,3.7-1.9,25-34.7,86.9-35.9,112.3-25,.4.2.9.3,1.3.3,0,.4-.1.8-.2,1.1.4,0,.8-.2,1.2-.3,1.6-.4,3.2-.9,4.7-1.5,23.5-8.5,40.4-28,56.8-46.4s34.7-37.2,58.9-43.2c24.2-6,72.7-4.1,75.1,20.1,1.6,16.2-27,42.3-37.4,55.1h0Z"/>
</svg>